<svg xmlns="http://www.w3.org/2000/svg" width="1024" height="1024" viewBox="0 0 1024 1024"><circle cx="512" cy="512" r="512" fill="#13291e"/><path fill="#d9d9d9" d="M926.6 565.3c-3 5.9-6.5 11.5-9.7 17.1a85.7 85.7 0 0 0 18.8-16.8c5.5-7 10.5-15.4 14.8-24.7a118 118 0 0 0 8-26.6c1.7-8.8 1.8-17.5 1-25.4-.2-2.6-3.2-3.7-4.8-1.7-5 6-9 12.6-13.7 20-4.5 7.3-8.7 15.1-12 23.5-3 6.7-5.5 13.2-7.5 19.7a424.4 424.4 0 0 0 2.3-61.2l4.9-14.6 5-19 2.5-9.8 1.7-9.8 3.7-20.2c-2.2 13.7-3.5 27-6.8 40l-4.5 19.3-5.7 18.9a93 93 0 0 0 14.7-20.5c3.9-8 7-17.2 9.3-27.3a128.6 128.6 0 0 0 2.1-27.7c-.2-9-2.3-17.4-4.4-25-.8-2.6-3.9-3-5-.7a149 149 0 0 0-9.2 22.4 192.8 192.8 0 0 0-10 48.4 424.4 424.4 0 0 0-10.8-60.6c1.7-12 1.9-24 2.7-36.7.1-6.5 0-13.2-.1-20 0-6.8-.4-13.6-1-20.3.8 6.7 1.3 13.5 1.5 20.3.3 6.8.7 13.5.7 20.1-.3 13.5-.3 26.4-2 39.5a94.7 94.7 0 0 0 13.2-51.8 108 108 0 0 0-13.5-51.1c-1.3-2.3-4.3-2-5 .4a170.7 170.7 0 0 0-5 37 159.8 159.8 0 0 0 .6 27.8c.3 4.2.8 8.2 1.4 12.1a425.9 425.9 0 0 0-24-59.4 407.1 407.1 0 0 0-15.1-76.5 411.2 411.2 0 0 1 17.6 77.8 96 96 0 0 0 1.5-53.3 123.3 123.3 0 0 0-16.3-37.4c-2.6-3.3-5.2-6.6-8-9.5-1.7-2-4.6-1-4.7 1.5a186.4 186.4 0 0 0 5.8 50.3c2 9.7 5.2 18.3 8.4 26.6l.8 2.2a428.7 428.7 0 0 0-37.2-54.8c-7.5-24.9-18.5-49-31.5-73.2a401.3 401.3 0 0 1 33.7 72.6c1-7.7 1-16.2-.7-25.2-1.7-8.8-4.6-18-8.9-27.5a143.5 143.5 0 0 0-15-23.3 114.4 114.4 0 0 0-18.6-17.3c-2-1.6-4.7 0-4.4 2.4 2.6 15.3 8.3 31.5 16.2 48.2a193.5 193.5 0 0 0 17.5 29.3c-6.1-7.1-12.6-14-19.3-20.7-.4 0 2.3 3 7.2 8.8l8 9a92.9 92.9 0 0 0-24.2-15.4 88.5 88.5 0 0 0-46.4-7.6c-2.4.2-3.4 3.2-1.8 4.7a93.6 93.6 0 0 0 17 12.9c6 4.2 13 7.8 21 11.2 8 3.8 16.4 6.8 24.7 9 8 2.3 16 4 23.7 4.7a379.1 379.1 0 0 0-66.7-33.8c22 8 44.6 17.8 65.8 30.6l.3.3a441.5 441.5 0 0 1 33 49.2 121 121 0 0 0-15.5-14.4 88 88 0 0 0-44-17.1c-2.3-.3-4 2.3-2.6 4.2 1.9 2.6 4 5.3 6.4 8 2.2 2.7 4.7 5.5 7.3 8A215.2 215.2 0 0 0 834 301a163.6 163.6 0 0 0 44.6 23.6 379.6 379.6 0 0 0-58-47.2 368.7 368.7 0 0 1 56 42.1 399.3 399.3 0 0 1 22 54.5l-2-3.5a126.3 126.3 0 0 0-17.5-20.3c-3.3-2.6-6.7-5.1-10-7.3a71.8 71.8 0 0 0-20.1-9.6c-2.2-.7-4.4 1.4-3.5 3.5a97.1 97.1 0 0 0 10 18.7c4.3 6.1 8.5 12.8 14.4 19a166 166 0 0 0 38 32.4c3.9 16.4 6.9 33.5 8.8 51.3a99.6 99.6 0 0 0-21.5-35.3 89.8 89.8 0 0 0-17.7-13.8c-2-1.1-4.7.6-4.3 2.7 1 6.7 3.4 13.4 5.9 20.5a132.1 132.1 0 0 0 10 21.6c4 7.9 9 15.3 14.3 22 4.8 6.5 10 12.4 15.4 17.6 0 7.4 0 15-.4 22.6-.4 7.7-.2 15.5-1.3 23.3l-.6 4.5a111.1 111.1 0 0 0-3-14.2c-2.7-8.5-6.2-16.2-10.2-23a77.3 77.3 0 0 0-14.4-17.2c-1.7-1.6-4.6-.4-4.7 1.8-.2 6.6.5 13.7 1.2 21.1 1 7.5 3.1 15.3 5.3 23.3a133.9 133.9 0 0 0 9.4 24.6c3.5 7.3 7 14 11 20a447.2 447.2 0 0 1-12.3 47.2 102.9 102.9 0 0 0-5.2-37 90 90 0 0 0-10.5-20c-1.3-1.9-4.4-1.4-5 .7-1.8 6.4-2.3 13.5-3.2 21-.7 7.4-.7 15.4.2 23.8.8 17.1 5 33.7 10.2 47.6a352.3 352.3 0 0 1-18.6 37l-3.3 5.7c1-3.5 1.7-7.3 2.2-11.3 1-8.8 1.7-17 .4-25a89.6 89.6 0 0 0-5.8-21.8c-1-2-4-2.2-5-.3a102 102 0 0 0-7.6 19.9c-2.4 7-4.2 14.8-5.1 23.2a161 161 0 0 0-.4 48 425.6 425.6 0 0 1-30 37 98 98 0 0 0 4.1-9.8 85.5 85.5 0 0 0 4.8-46.8c-.4-2.3-3.4-3.2-4.8-1.5-4.3 5-8.2 11.1-11.7 17.8-3.8 6.3-7.2 13.6-10 21.6A168.9 168.9 0 0 0 784 804a436 436 0 0 1-36.5 29 128.6 128.6 0 0 0 5.4-7.8 87.2 87.2 0 0 0 14.6-44.7c0-2.3-2.6-3.8-4.4-2.5-5.2 4-10.4 9-15.1 14.9a115 115 0 0 0-14.5 19c-4.7 7.8-9.2 15-12.6 22.9a159 159 0 0 0-7.4 20l-16.6 9c-6.5 3.5-13.4 6.3-20 9.3-1.7.9-3.5 1.8-5.2 2.5a84.9 84.9 0 0 0 6.6-6.3 87.2 87.2 0 0 0 23.8-40.5c.6-2.2-1.7-4.2-3.7-3.4a90 90 0 0 0-18 11.3c-6.2 4.3-12.3 9.3-18.2 15.4a202.6 202.6 0 0 0-28.5 37 331 331 0 0 1-45 9.3c2.4-1.1 5-2.4 7.4-3.8a81.5 81.5 0 0 0 32.8-33.3c1-2-.8-4.5-2.8-4a147.4 147.4 0 0 0-41 16.3 235.1 235.1 0 0 0-22.2 14.6 81.8 81.8 0 0 0-15.6 14.8l-3.2.5a259.7 259.7 0 0 0-31.7 7.2c-11.3-3.4-23-5.8-34.6-7.7l-1.2-.1a80.3 80.3 0 0 0-15.5-14.7 235.1 235.1 0 0 0-22.2-14.6 147.4 147.4 0 0 0-41-16.3c-2-.5-3.8 2-2.8 4a81.5 81.5 0 0 0 40 37 365.4 365.4 0 0 1-44.7-9 202.5 202.5 0 0 0-28.6-37.2c-6-6.1-12.1-11.1-18.1-15.4a90 90 0 0 0-18-11.3c-2-.8-4.4 1.2-3.8 3.4a87.2 87.2 0 0 0 23.8 40.5 84.9 84.9 0 0 0 7 6.6l-2.8-1.2a419 419 0 0 1-39.2-19.5c-1-3-1.8-5.8-3-8.7a159.2 159.2 0 0 0-4.5-11.7 180.8 180.8 0 0 0-27-42A89.4 89.4 0 0 0 261 778c-1.8-1.3-4.5.2-4.4 2.5a87.2 87.2 0 0 0 14.6 44.7c2 3.1 4.1 6.2 6.4 9a413.3 413.3 0 0 1-37.5-29.5 169 169 0 0 0-10.5-47.4c-2.8-8-6.2-15.3-10-21.6a94.7 94.7 0 0 0-11.7-17.8c-1.4-1.7-4.4-.8-4.8 1.5a87 87 0 0 0 4.8 46.8 99.7 99.7 0 0 0 5.3 12.2 401 401 0 0 1-31.5-38 161.9 161.9 0 0 0 0-49.4c-1-8.5-2.8-16.2-5.2-23.2-2-7.3-4.3-14-7.6-20-1-1.8-4-1.7-5 .4a92.6 92.6 0 0 0-5.8 21.7c-1.3 8-.6 16.3.4 25.2a73 73 0 0 0 3.4 15.4 383.2 383.2 0 0 1-23.6-45.7A160 160 0 0 0 149 616c.8-8.4.8-16.4.1-23.8-.8-7.5-1.3-14.6-3.2-21-.5-2.1-3.5-2.6-4.9-.7-4 5.6-7.6 12.4-10.5 20a102.9 102.9 0 0 0-4.7 42c-6-17.5-10.8-35.4-14.3-53.5l-.6-3.5c.8-4.3 1.5-8.7 2.6-13.2l4.8-18.4c2.8-12 7.7-23.8 11.7-35-3.5 11.3-8 23.2-10.5 35.3l-4.4 18.4c-1.1 6.3-2 12.5-2.9 18.9 4.5-6.4 8-13.5 11.8-21.2a133.9 133.9 0 0 0 9.3-24.5c2.3-8.1 4.6-16 5.3-23.4.8-7.4 1.4-14.5 1.3-21.2-.1-2.1-3-3.3-4.7-1.8a76.4 76.4 0 0 0-14.4 17.4c-4 6.7-7.5 14.4-10.2 22.9-1.9 6.5-3.1 13.1-3.7 19.7a420.2 420.2 0 0 1-2.8-59.8l6-14 8.5-16.9 4.4-8.2 4.7-8 9.6-15.6c-5.7 10.5-12.7 21-17.6 32.3l-8 17-7 17.8c5.7-5.3 11-11.4 16-18.1 5.3-6.8 10.2-14.2 14.4-22a132.1 132.1 0 0 0 10-21.7c2.4-7 4.8-13.8 5.8-20.5.3-2-2.3-3.8-4.3-2.6-6 3.5-12 8-17.8 13.7a98.9 98.9 0 0 0-23.5 42 421.4 421.4 0 0 1 10.3-61.4c6.7-9.8 14.5-18.9 21.5-27.9 4-4.7 8.4-9.3 12.5-13.8a174.1 174.1 0 0 1 13-13.1c-4.4 4.3-8.6 8.7-12.6 13.4-4 4.7-8.1 9.4-12 14.2-7.3 9.9-15.5 20-22 30.9a167 167 0 0 0 38.3-32.6c5.9-6.2 10.2-12.8 14.4-19a97.1 97.1 0 0 0 10-18.8c.8-2-1.3-4.1-3.6-3.5a77.6 77.6 0 0 0-20 9.7c-3.3 2.2-6.7 4.6-10 7.3a118.3 118.3 0 0 0-17.5 20.3c-2.3 3.4-4 6.9-5.8 10.4a419.1 419.1 0 0 1 22.9-59c19-17 38-32.3 58.8-44.6a379.6 379.6 0 0 0-58.1 47.2 163.6 163.6 0 0 0 44.6-23.6 215.2 215.2 0 0 0 18.4-15.4c2.6-2.6 5-5.4 7.2-8.2a76 76 0 0 0 6.5-8c1.3-1.7-.3-4.3-2.6-4.1a88 88 0 0 0-44 17.1 107.7 107.7 0 0 0-19.4 19.1l-1 1.4c10.6-19 22.7-37.2 36-54.4a380.7 380.7 0 0 1 68-31.8 379.1 379.1 0 0 0-66.7 33.8 125 125 0 0 0 23.7-4.7c8.3-2.2 16.6-5.2 24.7-9 7.8-3.3 14.8-7 21-11.2a93.6 93.6 0 0 0 17-13c1.6-1.4.5-4.3-1.7-4.6a95 95 0 0 0-74.8 26.8c6.2-7.3 12.6-14.4 19.5-21.2-.1-.4-3.3 2.2-8.5 7.7l-8.4 8.5a198.4 198.4 0 0 0 30.9-73.3c.3-2.5-2.3-4-4.4-2.4a114.4 114.4 0 0 0-18.6 17.3 143.5 143.5 0 0 0-15 23.2 127 127 0 0 0-9 27.5c-1.4 9-1.5 17.5-.6 25.2a407.3 407.3 0 0 1 33.7-72.6 411.7 411.7 0 0 0-30.8 71l-.2.2a408.8 408.8 0 0 0-35 49.5c2.6-6.8 4.9-13.8 6.5-21.5 4.6-17.5 6.2-35.1 5.8-50.3 0-2.5-3-3.5-4.9-1.5a186 186 0 0 0-7.9 9.6 123.2 123.2 0 0 0-16.1 37.3 95.7 95.7 0 0 0 1.5 53.4 411.2 411.2 0 0 1 17.6-78 399.6 399.6 0 0 0-14.8 73.2 393.8 393.8 0 0 0-23.4 55.5l.4-4.8a144.1 144.1 0 0 0 .6-27.9 159.5 159.5 0 0 0-5-36.9c-.6-2.3-3.7-2.6-5.1-.4-3.9 7-7 15-9.6 23.6-2.6 8.5-3.5 18-3.9 27.5a94.3 94.3 0 0 0 13 51.4 411.6 411.6 0 0 0-9.3 51.6 196.7 196.7 0 0 0-9.4-41.9c-2.5-8-5.6-15.5-9.2-22.4-1.1-2.2-4.3-1.9-5 .7a98.4 98.4 0 0 0-4.3 25c-.3 9 .1 18.3 2 27.7a125 125 0 0 0 9.3 27.3c4.2 7.7 9 14.3 14 19.7a383.2 383.2 0 0 0 .1 23.1c.5 7.9.2 15.7 1.3 23.7l.4 4.4a186 186 0 0 0-5.5-13.7c-3.3-8.4-7.5-16.2-12-23.6-4.6-7.3-8.8-14-13.7-20-1.6-1.9-4.6-.8-4.9 1.8-.7 7.9-.6 16.6 1.2 25.4a118 118 0 0 0 7.9 26.6c4.3 9.3 9.3 17.7 14.8 24.7a82.8 82.8 0 0 0 17.5 16 451.6 451.6 0 0 0 12.6 49.5l-7.8-11.8a179.1 179.1 0 0 0-16.8-20.5 134.7 134.7 0 0 0-17.5-16.6c-2.1-1.5-4.8 0-4.4 2.7a96.2 96.2 0 0 0 6.4 24.7 143.5 143.5 0 0 0 13.3 24.3 99.2 99.2 0 0 0 40 32.6 359.3 359.3 0 0 0 18.6 38l4 7a631.7 631.7 0 0 0-9.3-9c-6.7-6.3-14.2-11.5-21-16.5a136.3 136.3 0 0 0-20.9-12.4c-2.2-1-4.4 1-3.5 3.5 2.8 7.5 6.4 15.4 11.4 22.8 5.3 7.2 11.5 14.3 18.4 20.8a97.7 97.7 0 0 0 46 23.3 439.6 439.6 0 0 0 30.7 38.5c-3.2-2.1-6.5-4.3-10-6.2a190.2 190.2 0 0 0-47-19.1c-2.4-.6-4 2-2.7 4.2 4.4 6.7 9.8 13.5 16.1 19.7a109 109 0 0 0 49.4 27 75 75 0 0 0 22.2 2.4 425 425 0 0 0 38.5 30.9 189.3 189.3 0 0 0-60.6-12.5c-2.6 0-3.7 2.8-1.8 4.7 5.7 5.7 12.4 11 19.9 15.9 7.9 4.4 16.4 8.2 25.4 11.1a105.6 105.6 0 0 0 41.5 4.1c3.2-.4 6.2-1 9-1.7 5.6 3 11.3 6 16.8 9.2 6.7 3.7 13.7 6.5 20.4 9.7l5.9 2.7-9.8-1.2c-18.4-1.2-35.4-1.1-50.8 2.2-2.4.6-2.8 3.5-.7 5a133 133 0 0 0 23 11.2 135 135 0 0 0 27.2 5.4 90 90 0 0 0 49.9-8.6c15.7 4.5 31.4 7.7 46.3 9.8l-8.7 1.4a215.6 215.6 0 0 0-48.8 14.8c-2.4 1-2 4.2.5 5a105 105 0 0 0 80.5-5.6c6.3-3.4 12-7 17.5-10.7l3 .4c5.6 1 10.9 2 16 3.3a168.7 168.7 0 0 0-31.2 16.4c-12.6 8.6-21 17.5-26.2 23.7-2.7 3.2-4.4 5.9-5.8 7.5-1.2 1.8-2 2.7-2 2.7l10.4 6.5a113.6 113.6 0 0 1 47-41.1c8.4-4.2 17.1-7.7 26-10.5 17.5 5.5 31.7 13 42.5 20.5a113.7 113.7 0 0 1 23.5 21.8 140.9 140.9 0 0 1 6.4 9.3l10.4-6.5a125.6 125.6 0 0 0-52.3-44.8c-4-2-8-3.8-12.2-5.5a401 401 0 0 1 17.3-3.5l1.2-.1a178.5 178.5 0 0 0 17.2 10.6 105 105 0 0 0 80.6 5.6c2.6-.8 3-4 .5-5a215.6 215.6 0 0 0-57.4-16.1 375.4 375.4 0 0 0 46.2-10 90.8 90.8 0 0 0 49.8 8.8 141 141 0 0 0 27.3-5.5 133 133 0 0 0 23-11.2c2.1-1.4 1.7-4.4-.8-5a189.3 189.3 0 0 0-61.3-.8l3.6-1.7c13.7-6 26.9-12.9 39.7-20.3 3.1.8 6.2 1.5 9.7 2a105.6 105.6 0 0 0 41.4-4.2c9-2.9 17.5-6.7 25.4-11.1 7.5-5 14.2-10.2 19.9-16 1.9-1.7.8-4.7-1.8-4.6a189.3 189.3 0 0 0-62.1 13 421.4 421.4 0 0 0 39.1-31.4 75.2 75.2 0 0 0 23.1-2.5 109 109 0 0 0 65.5-46.6c1.4-2.2-.3-4.8-2.8-4.2a190.9 190.9 0 0 0-47 19c-4.3 2.4-8 5.1-12 7.7a408 408 0 0 0 32-39.8 97 97 0 0 0 46.7-23.4 103.3 103.3 0 0 0 30-43.6c.8-2.4-1.4-4.5-3.6-3.5-7 3.3-14 7.5-21 12.4-6.7 5-14.2 10.2-20.9 16.4-3.9 3.8-7.8 7.5-11.4 11.2A389.5 389.5 0 0 0 891 667a97.4 97.4 0 0 0 41.5-33.2 143.5 143.5 0 0 0 13.3-24.3 96.2 96.2 0 0 0 6.4-24.7c.4-2.6-2.3-4.2-4.4-2.6a134.7 134.7 0 0 0-17.5 16.6 179.1 179.1 0 0 0-17 20.4c-3.4 5.2-7 10.5-10.1 15.6a410.8 410.8 0 0 0 14-55l.6-3.2c2.5-4 5-8 7.2-12.3l9-17.5c6.4-12 10.8-24.5 16-37.2-4.9 13-9 25.6-15 37.7l-8.4 18zM108.9 366.4c0-6.6.4-13.3.7-20.1.2-6.8.6-13.6 1.6-20.3-.7 6.7-1 13.5-1 20.3 0 6.8-.3 13.5-.2 20.1.7 11.2 1 22 2.2 33l-1.5 5.7c-1.5-12.8-1.5-25.5-1.8-38.7zM93.7 475.2l-4.5-19.3c-3.3-13.1-4.6-26.4-6.8-40.1l3.6 20 1.8 10 2.5 9.8 5 19 3.7 10.9-.3 6.3zm3.7 90.1-8.5-18c-6-12-10-24.7-15-37.6 5.3 12.8 9.7 25.2 16.1 37.1l9 17.6a144 144 0 0 0 5.4 9.4l1 5.8c-2.6-4.7-5.5-9.4-8-14.3zm42.5 25.2a389.4 389.4 0 0 0-1.8 73.8l-2.5-6c-.7-23.2 1.3-46.1 4.3-67.8zm-54.6 12.8c13.4 20 27.3 38.5 42.8 55.2l2.3 5.5a429.2 429.2 0 0 1-45.1-60.7ZM297.9 844l-11-15.3a496 496 0 0 1-19-31.7 502.4 502.4 0 0 0 20 31l11.3 15 6 7.6 2.4 2.8-5.2-3-4.5-6.3zm-74.4-71.6c4.7 9.9 9.1 20.6 14.7 30.4l-4.5-4c-4.1-8.6-7.6-17.6-11.3-25.9a613 613 0 0 1-11.8-35c3.8 11.3 8 23 13 34.5zm-52.1-67.7a503.7 503.7 0 0 1-4.1-36.8c1.4 12 2.8 24.3 5.2 36.5 2.6 11.4 4.8 23.5 8.5 35l-3.8-5.2c-2.4-10-4-20-5.8-29.5zM146 720.3a544.2 544.2 0 0 1-29.4-28 548.9 548.9 0 0 0 30.2 27.2c7.8 6 15.4 12 23.2 17.5l3.5 4.9c-9.5-6.6-18.2-14.1-27.5-21.6zm55 73.2a538.3 538.3 0 0 1-34.7-21 542.7 542.7 0 0 0 35.2 20c8.8 4 17 8.2 25.4 11.8l4.6 4.2c-10.4-4.4-20.2-9.8-30.5-15zm88.6 64.7-19.3-4.9a540.2 540.2 0 0 1-38.3-13c12.9 4.6 25.9 8.4 38.5 11.9l19.4 4.4 7.4 1.6 5.1 3-3.3-.6-9.5-2.3zm72 11.4c-8.8-9.2-17.5-17.7-25.2-27.1 8 9 17 17.4 26 26.2 7.5 6.9 15.5 13.3 24 19.5l-5.4-1.6a277.5 277.5 0 0 1-19.4-17zM351 897c-13.1-1.4-26.8-2.4-40.2-4.8 13.4 2 27 2.6 40.2 3.7 9.1.3 18 .2 26.9-.2l5.6 1.7c-10.7.5-21.6.4-32.5-.4zm61.3-26a311.1 311.1 0 0 0 31.8 18.2c8.5 4.4 18.3 8.3 27.6 13l-5.9-.7c-7.6-3.9-15.3-7.5-22.2-11.3a308 308 0 0 1-31.3-19.3Zm28.2 48.6a352.6 352.6 0 0 1-40.5 6c13.8-1.6 27.1-4 40.3-7 8.5-2 16.6-4.5 24.5-6.6l5.7.7c-9.9 2-19.3 4.8-30 7zM580 889.2a311.1 311.1 0 0 0 31.7-18.4 308 308 0 0 1-31.2 19.4c-7 4-14.9 7.5-22.5 11.4l-5.8.7c9.3-4.7 19.2-8.8 27.8-13.2zm44 36.4a355.9 355.9 0 0 1-40.4-6c-10.5-2.1-19.9-4.8-29.5-6.8l5.5-.7c7.9 2 15.7 4.3 24.3 6.4 13 3 26.4 5.5 40.1 7zm37.5-57c9-8.8 18-17.1 26-26.2-7.8 9.4-16.4 18-25.2 27.1a277.4 277.4 0 0 1-19 16.7c-1.9.7-3.8 1.3-5.7 1.7 8.4-6.1 16.5-12.5 24-19.2zm11.6 27.2c13.1-.9 26.8-1.6 40.2-3.5-13.4 2.3-27 3.3-40.2 4.7-11.1.8-22 .9-32.7.4l5.6-1.7c9 .4 17.9.5 27 .2zm178.4-191.2c2.4-12.3 3.8-24.5 5.2-36.5a503.7 503.7 0 0 1-4.2 36.8c-1.7 8.6-3.1 17.6-5.2 26.6l-3.3 4.8c3-10.5 5-21.4 7.4-31.7zm-51.1 68a491 491 0 0 0 13-34.6 588.4 588.4 0 0 1-11.9 35c-3.5 8-6.9 16.6-10.7 24.7l-4.3 4c5.2-9.5 9.4-19.7 14-29.1zM724.7 843l11.4-14.9a491.6 491.6 0 0 0 20-31.1c-5.8 10.7-12.3 21-19 31.7l-11 15.4-4.5 5.9-5 3 2.2-2.4zm9.2 13.5 19.3-4.4a488 488 0 0 0 38.6-12 540.2 540.2 0 0 1-38.3 13.1l-19.3 5-9.5 2.3-4.7.9a420 420 0 0 0 4.9-3zm88.4-64a510 510 0 0 0 35.2-20.1 538.4 538.4 0 0 1-34.7 21c-11 5.4-21.2 11.2-32.1 15.7l4.4-4.2c9-3.7 17.8-8.3 27.2-12.5zm54.7-73.2a535.5 535.5 0 0 0 30.2-27 544.2 544.2 0 0 1-29.4 28c-9.7 7.8-18.8 15.6-28.8 22.4l3.3-4.8c8.5-5.8 16.3-12.2 24.7-18.6zm7-128.8c3 20.9 5 42.9 4.4 65.2l-2.4 5.7c1.8-24.1.4-48-2-70.8zm54.6 12.8a420.3 420.3 0 0 1-47.4 63.2l2.4-5.8a431.3 431.3 0 0 0 45-57.4zm-52.5-227.1L874 362.1c-4-4.6-8-9.2-12.5-13.4a174.1 174.1 0 0 1 13 13l12.4 13.9c6.2 8 13.2 16 19.1 24.6l1.7 6.5C901 396 893.2 386 886 376.3zm26.2 100.1-8-17c-5-11.4-12-22-17.7-32.4l9.6 15.5 4.8 8 4.3 8.3 8.6 16.9 4.5 10.5.2 6.2zm-3.5 86.4-4.4-18.5c-2.4-12-7-24-10.5-35.4 4 11.3 8.9 23.1 11.7 35l4.8 18.4c.9 3.3 1.5 6.7 2 10l-1.1 6.2c-.8-5.2-1.5-10.5-2.6-15.7z M738.3 172c5.6 6 11.6 11.7 18.7 16.9a140 140 0 0 0 22.3 14.9c7.4 4.3 14.8 7.8 22.2 10.3a432 432 0 0 0-58.8-50.2 433.1 433.1 0 0 1 60.4 48.5 96.6 96.6 0 0 0-11.7-22c-5.5-7-12-14-19.8-20.2a122 122 0 0 0-22.7-13.6c-8-3.2-15.5-5.3-22.8-6.5-2.4-.4-4 2.3-2.6 4.3 4.1 6.1 9 12 14.8 17.7zM220.9 212.4a433.1 433.1 0 0 1 60.4-48.5 432 432 0 0 0-58.8 50.2c7.4-2.5 14.8-6 22.2-10.3a140 140 0 0 0 22.3-15c7-5 13.1-11 18.7-16.7a110 110 0 0 0 14.8-17.7c1.3-2-.2-4.7-2.6-4.4-7.3 1.3-14.9 3.4-22.8 6.6a121 121 0 0 0-22.7 13.6 122.3 122.3 0 0 0-19.8 20c-5.1 7.5-9 15-11.7 22.2zM480.5 322.5h20.7v-9.6h-112v9.6c6 0 11 5 11 11.1v379.7c0 6-5 11-11 11v9.6h112v-9.6H471a21 21 0 0 1-21-21V553.7l35.1-31.5 164.3 202h-34v9.7h154.7v-9.6h-16.6a54 54 0 0 1-42-20L548.8 504l203-181.5h31v-9.6H615.4v9.6h43.8a14 14 0 0 1 9.2 24.3L450 541.8V353.1a30.5 30.5 0 0 1 30.5-30.5zm205.6 20.1a79 79 0 0 1 52.6-20.1L543.1 497.3l-12.6-15.7 155.7-139ZM300.6 239.3H396v12.1h-95.4zM313.9 259.1h68.8v12.2h-68.8zM300.6 786H396V798h-95.4zM313.9 766.1h68.8v12.2h-68.8zM341.8 282H354v473.3h-12.2zM363 282h12.2v473.3H363zM320.7 282H333v473.3h-12.2z"/></svg>