<svg xmlns="http://www.w3.org/2000/svg" width="1024" height="1024" viewBox="0 0 1024 1024"><g fill="var(--title,silver)"><g id="icon-crown"><path d="M985.8 515.8c-3.4 6.7-7.4 13.2-11 19.6 7.2-4.9 15-11.3 21.4-19.3 6.3-8 12-17.5 17-28.2 4.6-10 7-20.4 9-30.4s2.2-20 1.3-29c-.3-3-3.7-4.2-5.5-2-5.7 6.8-10.4 14.5-15.7 22.8-5.2 8.4-9.9 17.4-13.7 27-3.5 7.6-6.3 15.1-8.6 22.5a485 485 0 0 0 2.6-70l5.6-16.6 5.7-21.8 2.9-11.2 2-11.2 4.2-23c-2.5 15.6-4 30.7-7.8 45.7l-5.1 22-6.6 21.6c6.1-6.4 11.9-14.2 16.8-23.4 4.5-9.2 8.1-19.7 10.7-31.2a147 147 0 0 0 2.4-31.7c-.3-10.2-2.6-19.8-5-28.6-1-2.9-4.5-3.3-5.8-.8-4 7.9-7.6 16.5-10.5 25.7a220.3 220.3 0 0 0-11.4 55.3 485 485 0 0 0-12.4-69.3c2-13.7 2.2-27.5 3.1-41.9.2-7.5 0-15.1-.1-22.9 0-7.8-.4-15.5-1.2-23.2 1 7.7 1.6 15.4 1.8 23.2.3 7.8.8 15.4.8 23-.4 15.4-.3 30.2-2.2 45.1a108.2 108.2 0 0 0 15-59.2c-.4-10.8-1.4-21.7-4.4-31.4-2.9-9.8-6.5-19-11-27-1.5-2.6-5-2.2-5.8.5a195.1 195.1 0 0 0-5.7 42.2 182.6 182.6 0 0 0 .7 31.8c.4 4.8.9 9.4 1.6 13.9-7.4-23.3-16.6-46-27.4-67.9a465.3 465.3 0 0 0-17.3-87.5 470 470 0 0 1 20.1 89c5.6-16.5 7.5-38.2 1.8-61a140.9 140.9 0 0 0-18.7-42.7c-2.9-3.8-5.9-7.5-9-10.9-2-2.2-5.4-1-5.5 1.8a213 213 0 0 0 6.6 57.4c2.3 11.1 6 21 9.6 30.4l1 2.6a490 490 0 0 0-42.5-62.7c-8.6-28.4-21.2-55.9-36-83.6 15.6 27.3 29.1 54.5 38.5 82.9 1-8.7 1-18.5-.8-28.8-2-10-5.3-20.6-10.2-31.4A164 164 0 0 0 854 65.4c-6.6-7.8-14-14.3-21.3-19.8-2.4-1.8-5.4 0-5 2.8 2.9 17.5 9.5 36 18.5 55a221.1 221.1 0 0 0 20 33.5c-7-8.1-14.4-16-22.1-23.6-.4 0 2.7 3.4 8.3 10l9 10.4c-7.8-7-17.1-13-27.6-17.7a101.2 101.2 0 0 0-53-8.7c-2.7.3-3.9 3.7-2.1 5.4a107 107 0 0 0 19.4 14.7c7 4.8 15 9 24 12.8 9.2 4.4 18.8 7.8 28.3 10.3 9.2 2.7 18.3 4.6 27.1 5.4a433.3 433.3 0 0 0-76.2-38.6c25 9.2 50.9 20.3 75.2 35l.3.3a504.6 504.6 0 0 1 37.8 56.2 138.2 138.2 0 0 0-17.8-16.4 100.5 100.5 0 0 0-50.3-19.6c-2.6-.3-4.5 2.7-3 4.8 2.2 3 4.6 6.1 7.4 9.1 2.5 3.2 5.3 6.3 8.3 9.3a246 246 0 0 0 20.8 17.7 187 187 0 0 0 51 27 433.8 433.8 0 0 0-66.4-53.9 421.4 421.4 0 0 1 64 48.1 456.3 456.3 0 0 1 25.3 62.3l-2.3-4a144.3 144.3 0 0 0-20.1-23.2c-3.7-3-7.6-5.9-11.4-8.4-7.7-5-15-8.8-23-11-2.5-.8-5 1.7-4 4a111 111 0 0 0 11.4 21.4c5 7 9.8 14.6 16.5 21.7 13.2 15.4 28.8 28 43.5 37.1 4.4 18.7 7.8 38.3 10 58.6a113.8 113.8 0 0 0-24.5-40.3 102.6 102.6 0 0 0-20.3-15.8c-2.3-1.3-5.3.7-4.9 3.1 1.1 7.6 3.9 15.3 6.7 23.4a151 151 0 0 0 11.4 24.7c4.7 9 10.3 17.5 16.4 25.2 5.5 7.4 11.4 14.1 17.6 20 .1 8.5 0 17.2-.4 25.9-.5 8.8-.3 17.7-1.5 26.6l-.7 5.2a127 127 0 0 0-3.4-16.3c-3.1-9.7-7.1-18.5-11.7-26.2a88.4 88.4 0 0 0-16.5-19.7c-1.9-1.8-5.2-.5-5.3 2-.2 7.6.5 15.7 1.4 24.2 1 8.5 3.5 17.4 6 26.6a153 153 0 0 0 10.7 28.1c4 8.3 8 15.9 12.6 22.8a511.1 511.1 0 0 1-14 54 117.6 117.6 0 0 0-6-42.3c-3.3-8.7-7.4-16.4-12-22.9-1.5-2.1-5-1.6-5.6.8-2.2 7.4-2.7 15.5-3.7 24-.8 8.5-.8 17.6.2 27.3.9 19.5 5.8 38.5 11.6 54.3a402.6 402.6 0 0 1-21.2 42.4l-3.8 6.5c1.2-4.1 2-8.4 2.5-13 1.2-10 2-19.4.5-28.6-1.3-9-3.6-17.4-6.7-24.8-1-2.4-4.5-2.6-5.7-.4-3.6 6.7-6.3 14.4-8.7 22.7-2.7 8-4.7 17-5.8 26.6a184 184 0 0 0-.4 54.8 486.4 486.4 0 0 1-34.3 42.4c1.8-3.6 3.3-7.5 4.7-11.3 7.5-18.7 8.3-38 5.4-53.5-.4-2.6-3.8-3.6-5.4-1.7-5 5.8-9.4 12.7-13.4 20.3-4.4 7.3-8.2 15.6-11.4 24.7a193 193 0 0 0-12 53.4c-13.5 12-27.5 23-41.8 33.2a147 147 0 0 0 6.2-9 99.7 99.7 0 0 0 16.7-51.1c.1-2.6-3-4.3-5-2.8-6 4.6-11.9 10.3-17.3 17a131.4 131.4 0 0 0-16.5 21.7c-5.4 8.9-10.6 17.2-14.5 26.2a181.8 181.8 0 0 0-8.4 22.9L723.3 857c-7.4 4-15.3 7.1-22.8 10.6-2 1-4 2-6 2.8a97 97 0 0 0 7.6-7.2 99.7 99.7 0 0 0 27.2-46.3c.7-2.5-2-4.8-4.3-3.8-6.9 3.2-13.8 7.5-20.6 12.9-7 4.9-14 10.6-20.7 17.6a231.6 231.6 0 0 0-32.6 42.2c-17.6 5-34.9 8.4-51.5 10.7 2.8-1.3 5.7-2.8 8.5-4.4a93.2 93.2 0 0 0 37.5-38c1.1-2.3-.9-5.1-3.2-4.6a168.5 168.5 0 0 0-46.8 18.7 268.7 268.7 0 0 0-25.4 16.6c-7.1 5.2-13 11-17.8 17l-3.7.5c-12.9 2.1-25 5-36.2 8.3-13-3.9-26.3-6.7-39.6-8.8l-1.4-.2a91.8 91.8 0 0 0-17.7-16.8 268.7 268.7 0 0 0-25.4-16.6 168.5 168.5 0 0 0-46.8-18.7c-2.3-.5-4.3 2.3-3.2 4.7a93.2 93.2 0 0 0 45.8 42.2A417.6 417.6 0 0 1 373 886a231.4 231.4 0 0 0-32.7-42.4c-6.8-7-13.8-12.7-20.7-17.6-6.8-5.4-13.7-9.7-20.6-12.9-2.3-1-5 1.3-4.3 3.8a99.7 99.7 0 0 0 27.2 46.3 97 97 0 0 0 8 7.6l-3.2-1.4c-15.3-6.6-30.2-14.1-44.8-22.3-1-3.3-2-6.6-3.3-9.9a182 182 0 0 0-5.2-13.4c-3.9-9-9-17.3-14.5-26.2-5-8.3-10.6-15.5-16.5-21.7a102.2 102.2 0 0 0-17.3-17c-2-1.5-5.1.2-5 2.8a99.7 99.7 0 0 0 16.7 51.1c2.3 3.6 4.7 7.1 7.3 10.4a472.4 472.4 0 0 1-42.8-33.8 193.1 193.1 0 0 0-12-54.2c-3.3-9.1-7.1-17.4-11.5-24.7-4-7.6-8.4-14.5-13.4-20.3-1.6-1.9-5-.9-5.4 1.7a99.4 99.4 0 0 0 5.4 53.5 114 114 0 0 0 6.1 14 458.2 458.2 0 0 1-36-43.4 185 185 0 0 0-.1-56.5c-1.1-9.7-3.1-18.6-5.8-26.6-2.4-8.3-5-16-8.7-22.7-1.2-2.2-4.7-2-5.7.4-3 7.4-5.4 15.7-6.7 24.8-1.4 9.2-.7 18.6.5 28.7.7 6.2 2 12 3.9 17.6a438 438 0 0 1-27-52.2c6.1-16 11.3-35.6 12.2-55.7 1-9.7 1-18.8.2-27.3-1-8.5-1.5-16.6-3.7-24-.6-2.4-4-2.9-5.6-.8-4.6 6.5-8.7 14.2-12 22.8a117.6 117.6 0 0 0-5.4 48c-6.8-19.9-12.3-40.3-16.3-61l-.7-4c.9-5 1.7-10 3-15.1l5.5-21c3.2-13.7 8.8-27.2 13.3-40.1-4 13-9.2 26.6-12 40.4l-5 21c-1.3 7.2-2.2 14.3-3.3 21.6 5.1-7.3 9.2-15.4 13.5-24.2a153 153 0 0 0 10.6-28c2.6-9.3 5.2-18.2 6.1-26.7.9-8.5 1.6-16.6 1.4-24.3-.1-2.4-3.4-3.7-5.3-2-5.9 5.5-12 12-16.5 19.8-4.6 7.7-8.6 16.5-11.7 26.2-2.1 7.5-3.5 15-4.2 22.5a480.2 480.2 0 0 1-3.2-68.3l6.8-16 9.8-19.3 5-9.4 5.4-9.2 11-17.8c-6.6 12-14.5 24-20.2 37L54.4 414l-8 20.3c6.6-6 12.7-13 18.4-20.7 6.1-7.7 11.7-16.2 16.4-25.2a151 151 0 0 0 11.4-24.7c2.8-8.1 5.6-15.8 6.7-23.4.4-2.4-2.6-4.4-4.9-3-6.8 4-13.7 9.2-20.3 15.7a113 113 0 0 0-26.9 48A481.6 481.6 0 0 1 59 330.8c7.6-11.2 16.5-21.6 24.5-31.9 4.7-5.4 9.6-10.6 14.3-15.8a199 199 0 0 1 14.8-15c-5 5-9.8 10-14.3 15.4-4.5 5.3-9.3 10.7-13.8 16.2-8.3 11.3-17.6 22.9-25 35.3a190.9 190.9 0 0 0 43.7-37.3c6.7-7.1 11.6-14.6 16.5-21.7a111 111 0 0 0 11.3-21.5c1-2.2-1.4-4.7-4-4a88.7 88.7 0 0 0-23 11.1c-3.7 2.5-7.6 5.3-11.3 8.4a135.2 135.2 0 0 0-20 23.2C70 297 68 301 66 305a479 479 0 0 1 26.2-67.3c21.7-19.5 43.5-37 67.2-51a433.8 433.8 0 0 0-66.4 53.9 187 187 0 0 0 51-27A246 246 0 0 0 165 196c3-3 5.8-6.1 8.3-9.3 2.8-3 5.2-6 7.4-9.1 1.5-2-.4-5-3-4.8a100.5 100.5 0 0 0-50.3 19.6 123.1 123.1 0 0 0-22.2 21.8l-1.2 1.6c12.2-21.7 26-42.5 41.3-62.2 25-15.3 51.7-26.8 77.6-36.3a433.3 433.3 0 0 0-76.2 38.6c8.8-.8 17.9-2.7 27.1-5.4 9.5-2.5 19-5.9 28.2-10.3 9-3.7 17-8 24.1-12.8a107 107 0 0 0 19.4-14.7c1.8-1.7.6-5-2-5.4A108.6 108.6 0 0 0 158 138c7.1-8.4 14.5-16.5 22.3-24.3-.1-.4-3.7 2.5-9.7 8.8l-9.6 9.8a226.8 226.8 0 0 0 35.3-83.8c.4-2.9-2.6-4.6-5-2.8-7.3 5.5-14.7 12-21.3 19.8A164 164 0 0 0 152.9 92a145.2 145.2 0 0 0-10.2 31.4c-1.7 10.3-1.8 20-.8 28.8 9.4-28.4 23-55.6 38.5-82.9a470.5 470.5 0 0 0-35.2 81.1l-.2.3a467.2 467.2 0 0 0-39.9 56.5c2.9-7.7 5.5-15.8 7.4-24.6 5.2-20 7-40.1 6.6-57.4-.1-2.9-3.5-4-5.6-1.8-3 3.4-6 7.1-9 11A140.8 140.8 0 0 0 86 177.1a109.4 109.4 0 0 0 1.8 61 470 470 0 0 1 20.1-89.1A456.7 456.7 0 0 0 91 232.6 450.1 450.1 0 0 0 64.2 296l.5-5.5a164.7 164.7 0 0 0 .7-31.8 182.3 182.3 0 0 0-5.7-42.2c-.7-2.7-4.3-3-5.9-.5-4.4 8-8 17.2-11 27-2.9 9.7-3.9 20.6-4.4 31.4-.2 23.4 5.3 43.8 14.9 58.8a470.4 470.4 0 0 0-10.7 59 224.8 224.8 0 0 0-10.7-47.9c-2.9-9.2-6.4-17.8-10.5-25.7-1.3-2.5-4.9-2.1-5.7.8-2.5 8.8-4.8 18.4-5 28.6-.3 10.3.2 21 2.3 31.7 2.6 11.5 6.2 22 10.7 31.2 4.7 8.8 10.2 16.3 16 22.5a438 438 0 0 0 .1 26.4c.5 9 .2 18 1.4 27.1l.5 5c-1.8-5-3.9-10.3-6.3-15.6-3.8-9.6-8.5-18.6-13.7-27-5.3-8.3-10-16-15.7-22.8-1.8-2.2-5.2-1-5.5 2-.9 9-.7 19 1.3 29s4.4 20.4 9 30.4c5 10.7 10.7 20.2 17 28.2 6 7.5 13.1 13.5 20 18.3A516.1 516.1 0 0 0 62.2 591l-9-13.5A204.7 204.7 0 0 0 34 554.1a154 154 0 0 0-20-19c-2.4-1.7-5.4.1-5 3.1a110 110 0 0 0 7.3 28.2 164 164 0 0 0 15.2 27.8c13.9 18 29.5 30.8 45.7 37.3A410.6 410.6 0 0 0 98.5 675l4.5 7.8a722 722 0 0 0-10.6-10.3c-7.6-7.1-16.2-13-24-18.7a155.8 155.8 0 0 0-23.8-14.2c-2.6-1.2-5.1 1.2-4 4 3.2 8.6 7.3 17.6 13 26 6 8.3 13.1 16.4 21 23.8a111.7 111.7 0 0 0 52.5 26.6c11 15.4 22.7 30.1 35.2 44-3.7-2.4-7.4-4.9-11.4-7.1a217.4 217.4 0 0 0-53.7-21.8c-2.8-.7-4.7 2.3-3.1 4.8 5 7.7 11.1 15.4 18.4 22.5a124.5 124.5 0 0 0 56.4 30.8 85.8 85.8 0 0 0 25.4 2.8c14.1 12.8 28.9 24.5 44 35.3a216.3 216.3 0 0 0-69.3-14.2c-2.9 0-4.2 3.2-2 5.3 6.5 6.5 14.1 12.6 22.7 18.2 9 5 18.8 9.4 29 12.7a120.7 120.7 0 0 0 47.5 4.7c3.6-.5 7-1.2 10.2-2 6.5 3.5 13 7 19.3 10.6 7.6 4.2 15.6 7.4 23.3 11l6.7 3.1-11.2-1.4c-21-1.3-40.5-1.2-58 2.6-2.8.6-3.3 4-.8 5.7 7.8 4.8 16.6 9.2 26.2 12.8 9.7 3.1 20.3 5.1 31.1 6.2 21.9 2.3 42-2.2 57-9.9 18 5.2 35.9 8.8 53 11.2l-10 1.6a246.4 246.4 0 0 0-55.8 16.9c-2.7 1.2-2.3 4.8.6 5.8a120 120 0 0 0 92-6.5c7.2-3.8 13.8-7.9 20-12.2l3.5.5c6.3 1.1 12.4 2.3 18.2 3.7a192.8 192.8 0 0 0-35.6 18.8c-14.4 9.8-24 20-30 27.1-3 3.6-5 6.7-6.6 8.6-1.4 2-2.3 3-2.3 3l11.9 7.5a129.8 129.8 0 0 1 53.8-47c9.5-4.8 19.5-8.8 29.7-12 19.9 6.3 36.2 14.9 48.5 23.4a130 130 0 0 1 26.9 25 161 161 0 0 1 7.3 10.6l11.9-7.5a143.5 143.5 0 0 0-59.8-51.2c-4.5-2.3-9.2-4.3-13.9-6.2 6.6-1.5 13.1-2.8 19.7-4 .5 0 1 0 1.4-.2a204 204 0 0 0 19.7 12.1 120 120 0 0 0 92.1 6.5c3-1 3.3-4.6.6-5.8a246.4 246.4 0 0 0-65.6-18.4 429 429 0 0 0 52.7-11.3c15 7.7 35.2 12.2 57 10 10.9-1.2 21.5-3.2 31.2-6.3 9.6-3.6 18.4-8 26.2-12.8 2.5-1.6 2-5.1-.9-5.7a216.3 216.3 0 0 0-70-1l4.1-1.9c15.6-6.9 30.7-14.7 45.4-23.2 3.5.9 7 1.7 11 2.2a120.7 120.7 0 0 0 47.4-4.7c10.2-3.3 20-7.7 29-12.7 8.6-5.6 16.2-11.7 22.7-18.2 2.2-2 .9-5.4-2-5.3a216.3 216.3 0 0 0-71 14.9 481.6 481.6 0 0 0 44.7-36 86 86 0 0 0 26.4-2.8 124.5 124.5 0 0 0 74.8-53.3c1.6-2.5-.3-5.5-3.1-4.8-17.3 4-35.3 11.8-53.7 21.8-5 2.7-9.3 5.8-13.8 8.7a466.4 466.4 0 0 0 36.7-45.4 110.9 110.9 0 0 0 53.3-26.8c8-7.4 15-15.5 21-23.8 5.8-8.4 10-17.4 13.2-26 1-2.8-1.5-5.2-4.1-4-8 3.8-16 8.6-23.9 14.2-7.7 5.6-16.3 11.6-23.9 18.7-4.5 4.3-9 8.6-13.1 12.8a445.1 445.1 0 0 0 26.7-53.3c16.8-6.2 33-19.3 47.4-37.9a164 164 0 0 0 15.2-27.8 110 110 0 0 0 7.3-28.2c.4-3-2.6-4.8-5-3a154 154 0 0 0-20 19 204.7 204.7 0 0 0-19.4 23.3c-4 6-8 12-11.6 17.8a469.5 469.5 0 0 0 16-62.8l.7-3.7c2.8-4.6 5.7-9.2 8.2-14l10.3-20c7.3-13.7 12.3-28 18.3-42.5-5.6 14.7-10.2 29.2-17.1 43l-9.7 20.5zM51.3 288.5c0-7.6.5-15.2.8-23 .2-7.8.7-15.5 1.8-23.2-.8 7.7-1.1 15.4-1.2 23.2 0 7.8-.3 15.4-.1 23 .8 12.8 1.1 25.2 2.5 37.6l-1.7 6.6c-1.8-14.6-1.7-29.1-2.1-44.2zM33.9 412.8l-5.1-22c-3.8-15-5.3-30.2-7.8-45.9l4.1 23 2.1 11.3 2.9 11.2 5.7 21.8 4.2 12.4-.3 7.2-5.8-19zm4.3 103-9.7-20.5c-7-13.8-11.5-28.3-17.1-43 6 14.6 11 28.8 18.3 42.4L40 514.8c1.9 3.6 4 7.2 6.2 10.7l1.2 6.7c-3.1-5.4-6.4-10.8-9.2-16.4zm48.5 28.8a445 445 0 0 0-2 84.4l-2.9-6.8c-.8-26.6 1.5-52.8 4.9-77.6zm-62.4 14.6c15.3 22.8 31.2 44 49 63.1l2.6 6.3a490.5 490.5 0 0 1-51.6-69.4Zm243 275.2L254.7 817a566.9 566.9 0 0 1-21.7-36.3c7 12 14.7 23.7 22.8 35.5l13 17.1 6.8 8.7 2.8 3.2-6-3.5-5.1-7.2zm-85-81.8c5.4 11.3 10.4 23.5 16.8 34.8l-5.2-4.6c-4.7-9.9-8.6-20.1-12.9-29.6-5-13.5-9.5-26.9-13.5-40.1 4.4 13 9.2 26.3 14.8 39.5zm-59.6-77.4a575.7 575.7 0 0 1-4.7-42c1.6 13.6 3.2 27.8 6 41.7 3 13 5.5 26.9 9.7 40l-4.3-6c-2.8-11.3-4.6-22.8-6.7-33.7zM93.8 693a622 622 0 0 1-33.6-32 627.3 627.3 0 0 0 34.5 31c9 6.8 17.6 13.8 26.6 20l3.9 5.6c-10.8-7.5-20.8-16.1-31.4-24.6zm62.9 83.6a615.2 615.2 0 0 1-39.7-24 620.3 620.3 0 0 0 40.3 22.9c10 4.5 19.3 9.3 29 13.4l5.2 4.8c-11.8-5-23-11.2-34.8-17zm101.2 74-22-5.6a617.4 617.4 0 0 1-43.8-15c14.7 5.3 29.6 9.7 44 13.7l22.2 5 8.4 1.8 5.9 3.5-3.8-.7-10.9-2.6zm82.3 13c-10-10.5-20-20.3-28.8-31 9.2 10.4 19.4 19.9 29.7 30 8.6 7.8 17.8 15.2 27.5 22.2l-6.2-1.8a317.2 317.2 0 0 1-22.2-19.4zM328 894.9c-15-1.6-30.6-2.8-46-5.5 15.4 2.3 31 3 46 4.2 10.4.4 20.6.3 30.7-.2l6.4 2c-12.2.5-24.6.4-37.1-.5zm70.1-29.8a355.6 355.6 0 0 0 36.3 20.9c9.7 5 20.9 9.5 31.5 14.8l-6.7-.8c-8.7-4.4-17.5-8.5-25.4-12.9a352 352 0 0 1-35.7-22zm32.2 55.6c-15 3.1-30.4 5.5-46.3 6.9 15.8-1.9 31-4.6 46-8.1 9.8-2.3 19-5.1 28.1-7.5l6.5.8c-11.3 2.3-22.1 5.5-34.3 8zM589.7 886a355.6 355.6 0 0 0 36.3-21 352 352 0 0 1-35.7 22.1c-8 4.5-17 8.6-25.7 13l-6.7.8c10.7-5.3 22-10 31.8-15zm50.3 41.6a406.7 406.7 0 0 1-46.2-6.9c-12-2.4-22.7-5.5-33.7-7.8l6.3-.8c9 2.4 18 5 27.8 7.4 14.8 3.5 30.1 6.2 45.8 8zm42.9-65.1c10.3-10.1 20.5-19.6 29.7-30-8.9 10.7-18.8 20.5-28.8 31a317 317 0 0 1-21.8 19c-2.1.8-4.3 1.5-6.4 2 9.6-7 18.8-14.3 27.3-22zm13.2 31c15-1 30.6-1.8 46-4-15.4 2.6-31 3.8-46 5.4-12.7.9-25.1 1-37.4.5l6.5-2c10.2.5 20.4.6 30.9.2zM900 675c2.7-14 4.3-28 6-41.7a575.7 575.7 0 0 1-4.8 42c-2 9.9-3.6 20.2-6 30.4l-3.8 5.5c3.5-12 5.8-24.4 8.5-36.2zm-58.4 77.7a561.1 561.1 0 0 0 14.8-39.5c-4 13.2-8.5 26.6-13.5 40-4 9.1-7.9 18.9-12.3 28.2l-4.9 4.5c6-10.8 10.8-22.4 16-33.2zm-86.5 80.6 13-17a561.8 561.8 0 0 0 22.8-35.6c-6.6 12.2-14 24.1-21.7 36.3l-12.6 17.5-5 6.8c-1.8 1.2-3.8 2.3-5.7 3.4l2.4-2.7zm10.5 15.4 22.1-5c14.5-4 29.4-8.4 44.1-13.8a617.4 617.4 0 0 1-43.8 15.1l-22 5.7-10.9 2.6-5.4 1a480 480 0 0 0 5.6-3.4l10.3-2.2zm101-73.2c13.5-7 27-14.6 40.3-22.9a615.3 615.3 0 0 1-39.7 24c-12.5 6.2-24.2 12.8-36.7 17.9l5-4.7c10.4-4.3 20.4-9.5 31.1-14.3zm62.6-83.6c11.8-9.6 23-20 34.5-30.9a622 622 0 0 1-33.6 32c-11.1 9-21.5 17.9-33 25.7l3.8-5.5c9.7-6.6 18.7-14 28.3-21.3zm8-147.2c3.3 23.9 5.6 49 5 74.5l-2.8 6.6c2.1-27.6.5-55-2.2-81zm62.4 14.6a480.4 480.4 0 0 1-54.2 72.3l2.7-6.6a492.9 492.9 0 0 0 51.5-65.7zm-60.1-259.5c-4.5-5.5-9.3-10.9-13.8-16.2-4.5-5.3-9.2-10.5-14.3-15.3a199 199 0 0 1 14.8 14.9c4.7 5.2 9.6 10.4 14.3 15.8 7.1 9.1 15 18.3 21.8 28.1l1.9 7.4c-7.5-12.2-16.5-23.6-24.7-34.7zm30 114.4-9.2-19.5c-5.7-13-13.6-25-20.2-37l11 17.8 5.5 9.2 4.9 9.4 9.8 19.3 5.2 12 .2 7.1-7.2-18.3zm-4 98.7-5-21.1c-2.8-13.8-8-27.4-12-40.4 4.5 12.9 10.1 26.4 13.3 40l5.5 21c1 3.8 1.7 7.6 2.3 11.3l-1.3 7.2c-.9-6-1.7-12-2.9-18z"/><path d="M770.6 66.4c6.4 6.7 13.3 13.3 21.4 19.2a160 160 0 0 0 25.5 17c8.4 5 16.9 9 25.4 11.8A493.7 493.7 0 0 0 775.7 57a495 495 0 0 1 69 55.5c-3-8.2-7.5-16.8-13.4-25.2-6.3-8-13.7-16-22.6-23a139.5 139.5 0 0 0-26-15.6c-9-3.6-17.7-6.1-26-7.4-2.7-.5-4.5 2.6-3 4.9 4.7 7 10.3 13.8 16.9 20.2z"/><path d="M179.3 112.5a495 495 0 0 1 69-55.5 493.7 493.7 0 0 0-67.2 57.4c8.5-2.8 17-6.8 25.4-11.7A160 160 0 0 0 232 85.6c8-5.9 15-12.6 21.4-19.2 6.6-6.4 12.2-13.2 16.9-20.2 1.5-2.3-.3-5.4-3-5-8.3 1.4-17 3.9-26 7.5-8.8 3.8-17.5 9.3-26 15.5-8.9 7-16.3 15.1-22.6 23-5.9 8.5-10.3 17.1-13.4 25.3z"/></g><path id="icon-k" d="M476 238.3h23.7v-11H371.6v11c7 0 12.6 5.7 12.6 12.7v434c0 6.9-5.6 12.5-12.6 12.5v11h128v-11h-34.5a24 24 0 0 1-24-24v-171l40.2-36 187.7 231h-38.8v11H807v-11h-19a61.7 61.7 0 0 1-47.9-22.8l-186.1-229 232-207.4h35.3v-11h-191v11h50c14.6 0 21.5 18 10.6 27.8L441.1 489V273.3a34.9 34.9 0 0 1 34.9-34.9zm235 23c16.6-14.8 38-23 60.1-23L547.6 438.1l-14.5-17.9 178-159Z"/><g id="icon-column"><path d="M270.4 143.2h109v13.9h-109z"/><path d="M285.6 165.9h78.6v13.9h-78.6z"/><path d="M270.4 768h109v13.9h-109z"/><path d="M285.6 745.3h78.6v13.9h-78.6z"/><path d="M317.5 192.1h13.9V733h-13.9z"/><path d="M341.7 192.1h13.9V733h-13.9z"/><path d="M293.4 192.1h13.9V733h-13.9z"/></g></g></svg>