<svg xmlns="http://www.w3.org/2000/svg" width="1024" height="312" viewBox="0 0 1024 312"><g fill="var(--title,silver)"><path d="M273.69 167.5a43.55 43.55 0 0 0-6.67 3.96c-2.15 1.59-4.56 3.25-6.67 5.23-1.3 1.23-2.55 2.45-3.74 3.67.53-.92 1.08-1.83 1.59-2.76 2.18-3.96 4.14-8.04 5.91-12.2 4.72-1.73 9.26-5.4 13.27-10.6a45.8 45.8 0 0 0 4.26-7.79 30.72 30.72 0 0 0 2.03-7.87c.11-.83-.74-1.35-1.37-.85a43.04 43.04 0 0 0-5.61 5.3 57.22 57.22 0 0 0-5.42 6.54c-1.13 1.73-2.29 3.41-3.31 5.09a131.2 131.2 0 0 0 4.55-17.68l.16-1.01c.8-1.29 1.61-2.59 2.32-3.92l2.86-5.62c2.06-3.8 3.45-7.78 5.13-11.87-1.56 4.14-2.85 8.17-4.8 12.03l-2.7 5.73c-.95 1.87-2.06 3.68-3.07 5.48a27.34 27.34 0 0 0 5.97-5.4 40.48 40.48 0 0 0 4.78-7.88 37.25 37.25 0 0 0 2.49-8.5 27 27 0 0 0 .36-8.1c-.08-.84-1.02-1.17-1.53-.55-1.6 1.89-2.92 4.04-4.39 6.37a49.66 49.66 0 0 0-3.84 7.54 53.08 53.08 0 0 0-2.4 6.34c.71-6.5.95-13.03.72-19.56l1.58-4.69 1.6-6.1.8-3.12.6-3.14 1.14-6.43c-.7 4.38-1.11 8.6-2.18 12.79l-1.43 6.16-1.83 6.02a29.96 29.96 0 0 0 4.69-6.55 40.44 40.44 0 0 0 3-8.71c.59-3 .71-5.98.65-8.85a32.54 32.54 0 0 0-1.41-8c-.24-.81-1.23-.94-1.6-.22a43.49 43.49 0 0 0-2.93 7.17 58.32 58.32 0 0 0-2.17 8.2c-.5 2.5-.84 4.94-1.03 7.27-.17-1.78-.38-3.57-.62-5.34-.7-4.72-1.66-9.4-2.85-14.01.54-3.86.64-7.71.89-11.72.04-2.12-.02-4.24-.05-6.4 0-2.18-.1-4.36-.31-6.51.28 2.15.43 4.33.5 6.5.08 2.17.22 4.29.23 6.42-.13 4.3-.1 8.45-.63 12.61 2.7-4.21 4.27-9.96 4.2-16.55a37 37 0 0 0-1.23-8.79 37.18 37.18 0 0 0-3.07-7.53c-.43-.72-1.43-.62-1.62.15a54.52 54.52 0 0 0-1.38 7.66c-.14 1.35-.2 2.72-.24 4.12a50.98 50.98 0 0 0 .22 8.88c.1 1.35.23 2.66.43 3.92a134.55 134.55 0 0 0-7.66-18.99c-.9-7.99-2.27-16.33-4.83-24.47 2.85 8.24 4.48 16.74 5.62 24.9 1.56-4.62 2.1-10.7.5-17.04a32.1 32.1 0 0 0-3.1-8.31 39.38 39.38 0 0 0-2.12-3.62c-.8-1.1-1.64-2.12-2.5-3.07-.57-.62-1.52-.31-1.55.5-.12 4.83.4 10.44 1.84 16.05.65 3.1 1.66 5.87 2.68 8.48l.31.78a136.96 136.96 0 0 0-11.9-17.54c-2.4-7.96-5.93-15.65-10.05-23.4 4.34 7.65 8.12 15.24 10.75 23.17a29.3 29.3 0 0 0-.22-8.04c-.55-2.8-1.5-5.76-2.85-8.77a45.84 45.84 0 0 0-4.8-7.46c-1.87-2.15-3.92-4-5.96-5.53-.67-.5-1.53 0-1.4.8.8 4.9 2.66 10.06 5.16 15.35a61.54 61.54 0 0 0 5.73 9.54c-2.03-2.33-4.13-4.6-6.32-6.77-.1.02.77.95 2.34 2.82.69.8 1.55 1.76 2.52 2.89a30.55 30.55 0 0 0-7.74-4.93 28.27 28.27 0 0 0-14.83-2.43c-.72.08-1.06 1.01-.56 1.5a29.9 29.9 0 0 0 5.42 4.1 36.97 36.97 0 0 0 6.73 3.58 42.6 42.6 0 0 0 7.88 2.87c2.58.75 5.12 1.28 7.6 1.51-6.83-4.49-14.18-7.9-21.31-10.78 7 2.57 14.22 5.67 21 9.76l.09.1a141 141 0 0 1 10.57 15.72 38.54 38.54 0 0 0-4.99-4.6c-4.62-3.3-9.49-5.15-14.03-5.48-.73-.06-1.26.77-.86 1.34.62.87 1.3 1.73 2.07 2.57.71.87 1.48 1.75 2.33 2.6a68.74 68.74 0 0 0 5.8 4.93c4.72 3.36 9.5 6.03 14.27 7.54-5.96-5.7-11.97-10.87-18.57-15.05 6.3 3.73 12.11 8.33 17.88 13.45a127.48 127.48 0 0 1 7.09 17.4c-.22-.38-.42-.76-.66-1.14a40.3 40.3 0 0 0-5.61-6.46 33.77 33.77 0 0 0-3.17-2.35 24.8 24.8 0 0 0-6.43-3.1c-.71-.21-1.4.48-1.11 1.12.8 1.97 1.8 4 3.17 5.99 1.37 1.99 2.75 4.08 4.6 6.06 3.7 4.3 8.04 7.85 12.16 10.4a131 131 0 0 1 2.78 16.37 31.82 31.82 0 0 0-2.11-4.81 32.5 32.5 0 0 0-4.73-6.47 28.69 28.69 0 0 0-5.67-4.4c-.63-.37-1.46.17-1.35.86.3 2.1 1.07 4.26 1.85 6.52.76 2.26 1.9 4.56 3.21 6.91a42.8 42.8 0 0 0 4.58 7.04 40 40 0 0 0 4.9 5.6c.04 2.38.01 4.8-.1 7.23-.16 2.46-.09 4.96-.43 7.45l-.18 1.45a35.46 35.46 0 0 0-.95-4.55c-.88-2.71-2-5.18-3.27-7.34a24.7 24.7 0 0 0-4.6-5.5c-.55-.5-1.47-.15-1.5.54-.04 2.14.15 4.4.39 6.78.26 2.38.98 4.88 1.7 7.45a42.74 42.74 0 0 0 2.97 7.85c1.11 2.3 2.2 4.42 3.52 6.35a87.55 87.55 0 0 1-2.25 9.51c-.52 1.88-1.1 3.75-1.7 5.62.1-1.31.1-2.65-.05-4.03a32.87 32.87 0 0 0-1.58-7.84 28.95 28.95 0 0 0-3.36-6.37c-.43-.6-1.4-.45-1.58.22-.6 2.05-.75 4.34-1.02 6.7-.24 2.38-.22 4.92.07 7.63a50.7 50.7 0 0 0 3.23 15.16c-1.74 4.06-3.7 8.03-5.91 11.87l-1.1 1.87c.32-1.18.59-2.4.73-3.68.34-2.82.53-5.44.12-8-.37-2.55-1-4.87-1.86-6.93-.28-.67-1.27-.74-1.6-.12a32.75 32.75 0 0 0-2.42 6.33 36.83 36.83 0 0 0-1.63 7.44c-.9 5.31-.73 10.7-.1 15.31-3 4.18-6.24 8.16-9.66 11.93.51-1.04.97-2.13 1.39-3.23a27.8 27.8 0 0 0 1.5-14.96c-.12-.71-1.07-1-1.52-.46a30.05 30.05 0 0 0-3.73 5.67 36.79 36.79 0 0 0-3.2 6.91 53.97 53.97 0 0 0-2.39 8.03c-.45 2.42-.8 4.7-.96 6.88-3.77 3.36-7.7 6.46-11.72 9.3.62-.8 1.22-1.65 1.78-2.53a27.86 27.86 0 0 0 4.67-14.28c.02-.73-.84-1.2-1.4-.78a28.56 28.56 0 0 0-4.85 4.75 36.7 36.7 0 0 0-4.6 6.06c-1.52 2.48-2.97 4.8-4.05 7.33a50.85 50.85 0 0 0-1.47 3.75c-.34.88-.63 1.76-.9 2.64l-5.26 2.87c-2.08 1.13-4.27 2-6.36 2.98-.57.27-1.14.52-1.7.77.73-.62 1.45-1.28 2.14-2a27.86 27.86 0 0 0 7.6-12.94c.19-.7-.56-1.36-1.2-1.07a28.3 28.3 0 0 0-5.75 3.6 39.45 39.45 0 0 0-5.79 4.93 64.73 64.73 0 0 0-9.13 11.8 107.1 107.1 0 0 1-14.42 2.97c.81-.37 1.62-.76 2.4-1.22a26.06 26.06 0 0 0 10.48-10.6c.33-.66-.23-1.45-.89-1.32a47.09 47.09 0 0 0-13.08 5.24 75.1 75.1 0 0 0-7.1 4.64 25.55 25.55 0 0 0-4.95 4.74c-.34.05-.7.09-1.03.15-3.61.58-7 1.38-10.14 2.32a86.16 86.16 0 0 0-11.06-2.47l-.4-.05a25.57 25.57 0 0 0-4.92-4.69 75.1 75.1 0 0 0-7.1-4.64 47.09 47.09 0 0 0-13.08-5.24c-.67-.13-1.22.66-.9 1.32 2 3.95 5.58 7.82 10.48 10.6.75.43 1.5.8 2.26 1.16-2.45-.33-4.88-.72-7.3-1.2-2.33-.49-4.66-1.04-6.96-1.68a64.66 64.66 0 0 0-9.14-11.83 39.45 39.45 0 0 0-5.79-4.94 28.3 28.3 0 0 0-5.76-3.59c-.63-.29-1.38.36-1.2 1.07a27.86 27.86 0 0 0 7.61 12.94c.74.78 1.52 1.47 2.31 2.14l-.95-.42a129.78 129.78 0 0 1-12.53-6.26c-.27-.9-.56-1.81-.91-2.72-.44-1.23-.92-2.5-1.47-3.75-1.08-2.53-2.53-4.85-4.05-7.33a36.7 36.7 0 0 0-4.6-6.06 28.56 28.56 0 0 0-4.85-4.75c-.56-.43-1.42.05-1.4.78.18 4.4 1.52 9.63 4.66 14.28.66 1.02 1.36 2 2.1 2.93a132.01 132.01 0 0 1-12.01-9.47c-.16-2.26-.52-4.6-.98-7.11-.52-2.7-1.42-5.3-2.4-8.03a36.8 36.8 0 0 0-3.19-6.91 30.05 30.05 0 0 0-3.73-5.67c-.45-.53-1.4-.25-1.53.46a27.79 27.79 0 0 0 1.5 14.96c.52 1.34 1.06 2.68 1.72 3.9-3.59-3.83-6.95-7.88-10.04-12.13.68-4.71.89-10.29-.04-15.78-.32-2.7-.87-5.18-1.63-7.44a32.76 32.76 0 0 0-2.43-6.33c-.32-.62-1.3-.55-1.59.12a28.65 28.65 0 0 0-1.87 6.93c-.4 2.56-.2 5.18.13 8 .2 1.72.58 3.33 1.08 4.88-.5-.86-1.03-1.71-1.52-2.58-2.2-3.89-4.18-7.9-5.98-11.99a51 51 0 0 0 3.37-15.53c.3-2.7.3-5.25.07-7.63-.27-2.36-.42-4.65-1.02-6.7-.18-.67-1.15-.82-1.58-.22a28.95 28.95 0 0 0-3.36 6.37 32.87 32.87 0 0 0-1.58 7.84c-.22 1.92-.13 3.78.1 5.57a129.53 129.53 0 0 1-4.57-17.07c-.08-.37-.13-.75-.2-1.12.25-1.41.48-2.8.83-4.2l1.54-5.87c.9-3.84 2.47-7.6 3.73-11.2-1.15 3.64-2.6 7.43-3.37 11.28l-1.37 5.9c-.4 1.98-.63 3.97-.95 6a46.32 46.32 0 0 0 3.77-6.74 42.74 42.74 0 0 0 2.98-7.85c.72-2.57 1.44-5.07 1.7-7.45.24-2.38.43-4.64.38-6.78-.02-.7-.94-1.04-1.49-.55a24.7 24.7 0 0 0-4.6 5.51 36.5 36.5 0 0 0-3.27 7.34 34.9 34.9 0 0 0-1.15 6.23 134.13 134.13 0 0 1-.9-19.1l1.88-4.4 2.75-5.4 1.37-2.64 1.55-2.56 3.06-4.97C21.58 92 19.37 95.4 17.78 99l-2.58 5.47-2.22 5.67a39.8 39.8 0 0 0 5.12-5.8 42.81 42.81 0 0 0 4.58-7.04 42.19 42.19 0 0 0 3.21-6.9c.78-2.27 1.54-4.42 1.85-6.53.1-.69-.72-1.23-1.35-.86a28.68 28.68 0 0 0-5.67 4.4A32.5 32.5 0 0 0 16 93.88a31.59 31.59 0 0 0-2.77 6.93c.15-1.86.34-3.73.57-5.59.65-4.72 1.56-9.41 2.7-14.04 2.1-3.13 4.57-6.05 6.81-8.9 1.31-1.53 2.7-2.99 4.01-4.43a55.6 55.6 0 0 1 4.12-4.17 55.54 55.54 0 0 0-3.98 4.29c-1.27 1.48-2.61 2.97-3.85 4.53-2.35 3.16-4.93 6.38-7.02 9.87a53.34 53.34 0 0 0 12.24-10.45c1.85-1.98 3.23-4.07 4.6-6.06a31.01 31.01 0 0 0 3.17-6c.29-.63-.4-1.32-1.11-1.11a24.8 24.8 0 0 0-6.43 3.1c-1.06.7-2.13 1.48-3.17 2.35a37.77 37.77 0 0 0-5.61 6.46 34.06 34.06 0 0 0-1.8 3.3c1.98-6.43 4.42-12.71 7.34-18.78 6.06-5.43 12.15-10.31 18.76-14.23-6.59 4.18-12.6 9.35-18.56 15.05 4.77-1.5 9.55-4.18 14.26-7.54a68.75 68.75 0 0 0 5.8-4.94c.86-.84 1.62-1.72 2.34-2.6.76-.83 1.45-1.69 2.07-2.56.4-.57-.13-1.4-.86-1.34-4.54.33-9.4 2.18-14.04 5.48a34.4 34.4 0 0 0-6.22 6.1c-.1.13-.18.26-.27.4 3.39-6.06 7.23-11.87 11.5-17.34 6.99-4.29 14.45-7.49 21.67-10.14-7.13 2.88-14.48 6.3-21.3 10.79 2.47-.24 5-.77 7.59-1.52a42.6 42.6 0 0 0 7.88-2.87 36.97 36.97 0 0 0 6.73-3.59 29.9 29.9 0 0 0 5.42-4.1c.5-.48.16-1.41-.56-1.5-4.4-.5-9.71.08-14.83 2.44a30.4 30.4 0 0 0-8.87 5.96 126.5 126.5 0 0 1 6.08-6.65c-.02-.1-1.02.7-2.7 2.47-.75.75-1.65 1.66-2.67 2.73a63.38 63.38 0 0 0 4.68-8.06c2.51-5.29 4.37-10.46 5.17-15.36.13-.8-.73-1.3-1.4-.79A38.42 38.42 0 0 0 47.53 7a45.85 45.85 0 0 0-4.8 7.46 40.57 40.57 0 0 0-2.86 8.77 29.3 29.3 0 0 0-.23 8.04c2.64-7.93 6.42-15.52 10.76-23.16-4 7.5-7.43 14.96-9.82 22.66l-.07.09c-3.3 4.02-7.24 9.28-11.13 15.77.8-2.14 1.54-4.4 2.06-6.85a59.52 59.52 0 0 0 1.84-16.06c-.03-.8-.98-1.1-1.55-.49-.86.95-1.7 1.98-2.5 3.07a39.36 39.36 0 0 0-2.12 3.62 32.1 32.1 0 0 0-3.1 8.3 30.56 30.56 0 0 0 .5 17.04c1.14-8.15 2.76-16.65 5.62-24.9-2.44 7.77-3.8 15.72-4.7 23.37a125.78 125.78 0 0 0-7.5 17.73l.14-1.55a46.03 46.03 0 0 0 .21-8.88c-.02-1.4-.1-2.77-.23-4.12a54.53 54.53 0 0 0-1.38-7.66c-.19-.77-1.19-.87-1.63-.15a37.18 37.18 0 0 0-3.06 7.53 37 37 0 0 0-1.24 8.8c-.06 6.53 1.48 12.22 4.15 16.43a131.45 131.45 0 0 0-2.99 16.47c-.2-1.69-.46-3.41-.82-5.19a58.33 58.33 0 0 0-2.17-8.19 43.49 43.49 0 0 0-2.93-7.17c-.38-.72-1.36-.6-1.6.21A32.55 32.55 0 0 0 2.97 86c-.06 2.87.06 5.85.65 8.85a40.44 40.44 0 0 0 3 8.71 30.07 30.07 0 0 0 4.46 6.3c-.06 2.43-.04 4.9.05 7.38.13 2.5.05 5.04.38 7.57l.15 1.42a52.9 52.9 0 0 0-1.75-4.39 49.66 49.66 0 0 0-3.84-7.54c-1.47-2.33-2.8-4.48-4.4-6.37-.5-.62-1.44-.3-1.52.54a27 27 0 0 0 .36 8.11c.54 2.82 1.21 5.7 2.49 8.5 1.4 3 3.02 5.65 4.78 7.88a26.92 26.92 0 0 0 5.58 5.12c.59 3.25 1.25 6.5 2.21 9.72.55 2.03 1.16 4.06 1.8 6.09-.8-1.24-1.65-2.49-2.49-3.76a57.22 57.22 0 0 0-5.41-6.54c-1.78-2-3.67-3.79-5.61-5.3-.64-.5-1.48.02-1.37.85.39 2.53.87 5.24 2.03 7.87a45.8 45.8 0 0 0 4.26 7.78c3.87 5.03 8.22 8.59 12.75 10.4 1.76 4.17 3.74 8.26 5.99 12.2.4.74.83 1.45 1.26 2.18-.96-.96-1.95-1.91-2.97-2.88-2.1-1.98-4.52-3.64-6.67-5.23a43.56 43.56 0 0 0-6.67-3.95c-.73-.35-1.44.34-1.15 1.13A35.6 35.6 0 0 0 15 175.9a45.93 45.93 0 0 0 5.88 6.65c4.8 4.08 9.83 6.61 14.62 7.42 3.07 4.3 6.37 8.41 9.86 12.3-1.02-.67-2.05-1.36-3.17-1.98-5.16-2.8-10.18-5-15-6.1-.8-.19-1.34.64-.89 1.34 1.4 2.14 3.1 4.3 5.14 6.3a45.96 45.96 0 0 0 7.17 5.23 34.8 34.8 0 0 0 8.6 3.37c2.41.65 4.82.85 7.07.77 3.96 3.57 8.09 6.85 12.31 9.87-1.1-.43-2.21-.85-3.4-1.21-5.64-1.63-10.98-2.73-15.95-2.77-.81 0-1.17.92-.57 1.5a40.15 40.15 0 0 0 6.35 5.07c2.5 1.4 5.25 2.63 8.13 3.58a33.73 33.73 0 0 0 13.25 1.3c1-.14 1.94-.34 2.86-.57l5.38 2.97c2.13 1.16 4.37 2.06 6.5 3.09l1.91.87c-1.03-.15-2.07-.29-3.14-.4-5.88-.36-11.32-.34-16.2.71-.8.17-.94 1.15-.23 1.6a40.47 40.47 0 0 0 7.3 3.57c2.73.88 5.7 1.44 8.71 1.75 6.1.64 11.71-.63 15.88-2.78a110.64 110.64 0 0 0 14.86 3.14 68.84 68.84 0 0 0-18.4 5.16c-.74.33-.65 1.34.16 1.62a33.54 33.54 0 0 0 17.1 1.12c3.18-.6 6.34-1.66 8.64-2.93a56.84 56.84 0 0 0 5.56-3.42l.98.16c1.76.3 3.46.64 5.1 1.03a53.88 53.88 0 0 0-9.97 5.25 41.45 41.45 0 0 0-8.4 7.57c-.83 1.01-1.39 1.86-1.8 2.4l-.65.83 3.3 2.1a36.26 36.26 0 0 1 6.58-7.53c2.54-2.2 5.44-4 8.47-5.57a55.73 55.73 0 0 1 8.3-3.4 51.64 51.64 0 0 1 13.54 6.55 36.35 36.35 0 0 1 7.53 6.97c1.4 1.9 2.05 2.98 2.05 2.98l3.3-2.1a40.1 40.1 0 0 0-7.41-8.33 46.77 46.77 0 0 0-9.28-5.96 55.76 55.76 0 0 0-3.88-1.74c1.82-.42 3.66-.8 5.5-1.1l.4-.07c1.7 1.2 3.54 2.32 5.5 3.38a30.23 30.23 0 0 0 8.64 2.93 33.54 33.54 0 0 0 17.1-1.12c.81-.28.9-1.3.16-1.62a68.84 68.84 0 0 0-18.45-5.16c2.6-.38 5.17-.81 7.73-1.35 2.4-.53 4.79-1.13 7.15-1.8a28.58 28.58 0 0 0 15.9 2.8c3.03-.32 6-.88 8.72-1.76 2.67-1 5.14-2.22 7.3-3.58.71-.44.56-1.42-.23-1.59-4.88-1.05-10.32-1.07-16.2-.72-1.15.13-2.27.28-3.38.44l1.16-.52a132.7 132.7 0 0 0 12.66-6.5c.98.26 2 .48 3.07.63a33.73 33.73 0 0 0 13.25-1.3 46.02 46.02 0 0 0 8.13-3.58 40.15 40.15 0 0 0 6.35-5.06c.6-.59.24-1.51-.57-1.5-4.97.03-10.32 1.13-15.96 2.76-1.37.42-2.66.91-3.92 1.41 4.38-3.1 8.57-6.47 12.54-10.08 2.33.11 4.85-.08 7.37-.76a34.8 34.8 0 0 0 8.6-3.37 45.97 45.97 0 0 0 7.17-5.23c2.03-2 3.74-4.16 5.14-6.3.45-.7-.1-1.53-.88-1.34-4.84 1.1-9.85 3.3-15 6.1-1.37.76-2.61 1.61-3.86 2.42l-.05.03a130.3 130.3 0 0 0 10.3-12.72c4.89-.75 10-3.31 14.91-7.47a45.92 45.92 0 0 0 5.88-6.65 35.6 35.6 0 0 0 3.67-7.26c.3-.79-.42-1.48-1.15-1.13zm-11.13-95c-1.24-1.56-2.59-3.05-3.86-4.53a55.54 55.54 0 0 0-3.97-4.3 55.62 55.62 0 0 1 4.11 4.18c1.33 1.44 2.7 2.9 4.02 4.42 2 2.55 4.16 5.14 6.1 7.89.17.67.35 1.34.5 2.03-2.07-3.41-4.6-6.58-6.9-9.69zm8.4 31.97L268.38 99c-1.59-3.6-3.8-7-5.64-10.32l3.06 4.97 1.55 2.56 1.37 2.63 2.75 5.4 1.43 3.37c.02.65.05 1.3.06 1.97zm-1.14 27.56-1.37-5.89c-.78-3.85-2.22-7.64-3.37-11.29 1.26 3.61 2.83 7.37 3.73 11.2l1.54 5.88c.26 1.04.46 2.1.64 3.15l-.37 1.97c-.25-1.69-.47-3.36-.8-5.02zm9.55 13c-4.67 7.36-9.55 14.2-15.2 20.23.27-.63.55-1.25.8-1.89 5.25-5.5 9.92-11.68 14.4-18.35zm-17.44-4.1a130.1 130.1 0 0 1 1.4 20.83c-.25.62-.52 1.23-.78 1.84.58-7.73.15-15.4-.62-22.66zM14.33 69.37c0-2.13.14-4.25.22-6.42.07-2.17.22-4.35.5-6.5a65.52 65.52 0 0 0-.31 6.5c-.03 2.17-.09 4.29-.05 6.4.22 3.59.33 7.04.73 10.48-.17.63-.34 1.25-.5 1.9-.48-4.08-.47-8.14-.6-12.36Zm-4.85 34.73-1.43-6.16c-1.07-4.19-1.48-8.41-2.18-12.8l1.15 6.44.6 3.14.78 3.12 1.6 6.1 1.18 3.47-.08 2.01-1.62-5.32zm1.2 28.79-2.7-5.73c-1.95-3.86-3.24-7.9-4.8-12.03 1.68 4.09 3.07 8.07 5.12 11.87l2.87 5.62c.53 1 1.13 2 1.73 2.97l.35 1.9c-.87-1.5-1.78-3.03-2.57-4.6zm13.55 8.06c-.8 7.52-1.24 15.48-.56 23.5-.27-.61-.55-1.21-.8-1.83-.25-7.43.4-14.75 1.36-21.67zm-17.44 4.08c4.28 6.37 8.73 12.3 13.69 17.62.23.59.48 1.17.72 1.76-5.32-5.82-9.96-12.36-14.4-19.38zm67.9 76.9-3.5-4.9a158.4 158.4 0 0 1-6.07-10.15c1.94 3.34 4.1 6.63 6.36 9.93l3.65 4.78L77 224l.78.88c-.56-.32-1.1-.66-1.66-1zm-23.76-22.86c1.52 3.18 2.96 6.6 4.75 9.76-.51-.45-1-.93-1.51-1.4-1.3-2.72-2.4-5.56-3.58-8.2-1.42-3.76-2.68-7.5-3.77-11.2 1.21 3.65 2.57 7.35 4.11 11.04zm-16.66-21.63c-.63-3.95-.98-7.91-1.3-11.73.45 3.8.9 7.75 1.67 11.65.83 3.63 1.55 7.48 2.72 11.13l-1.2-1.69c-.77-3.12-1.28-6.32-1.89-9.36zm-8.04 4.93c-3.24-2.77-6.29-5.8-9.41-8.92 3.2 3.03 6.34 5.95 9.63 8.63 2.55 1.92 4.93 3.87 7.45 5.63l1.09 1.55c-3.03-2.11-5.8-4.5-8.76-6.89zm17.55 23.39c-3.71-2.06-7.4-4.31-11.07-6.72a173.3 173.3 0 0 0 11.23 6.39c2.79 1.26 5.42 2.6 8.13 3.75.46.44.93.86 1.4 1.29-3.29-1.39-6.39-3.09-9.69-4.71zm28.3 20.69-6.16-1.58a172.49 172.49 0 0 1-12.25-4.22c4.11 1.49 8.28 2.72 12.33 3.86l6.2 1.39 2.34.5c.53.34 1.08.67 1.63.97l-1.06-.18-3.03-.74zm23 3.6c-2.8-2.93-5.58-5.65-8.07-8.65 2.58 2.9 5.44 5.54 8.31 8.37a89.03 89.03 0 0 0 7.68 6.22l-1.74-.52a88.63 88.63 0 0 1-6.18-5.43zm-3.45 8.78c-4.2-.44-8.56-.78-12.86-1.53 4.31.63 8.68.84 12.86 1.16 2.9.12 5.77.08 8.59-.06.59.2 1.18.39 1.78.57-3.4.13-6.87.1-10.37-.14zm19.6-8.34a99.36 99.36 0 0 0 10.13 5.84c2.71 1.38 5.82 2.68 8.78 4.14l-1.87-.22c-2.41-1.22-4.86-2.37-7.07-3.59a98.38 98.38 0 0 1-9.97-6.17zm8.98 15.56c-4.2.86-8.5 1.52-12.91 1.91 4.4-.51 8.67-1.29 12.82-2.27 2.77-.64 5.32-1.4 7.9-2.09l1.8.23c-3.15.66-6.2 1.53-9.61 2.22zm44.6-9.72a99.35 99.35 0 0 0 10.12-5.84 98.38 98.38 0 0 1-9.97 6.17c-2.24 1.23-4.73 2.4-7.17 3.64l-1.86.21c3-1.48 6.13-2.78 8.87-4.18zm14.05 11.63c-4.41-.39-8.72-1.05-12.9-1.9-3.37-.7-6.36-1.54-9.46-2.2l1.75-.23c2.54.67 5.06 1.43 7.8 2.06 4.14.98 8.42 1.76 12.81 2.27zm11.97-18.2c2.88-2.82 5.74-5.45 8.32-8.36-2.49 3-5.27 5.72-8.07 8.64a88.59 88.59 0 0 1-6.08 5.35l-1.8.56a89 89 0 0 0 7.63-6.18zm3.7 8.7c4.18-.32 8.55-.53 12.86-1.16-4.3.75-8.66 1.1-12.86 1.53-3.54.25-7.03.27-10.46.13l1.82-.56c2.84.14 5.71.18 8.63.06zm56.99-61.1c.76-3.9 1.22-7.85 1.68-11.65-.33 3.82-.69 7.78-1.32 11.73-.55 2.76-1.02 5.66-1.67 8.5l-1.12 1.59c1-3.37 1.67-6.85 2.43-10.17zm-16.3 21.71c1.55-3.69 2.9-7.4 4.12-11.05-1.1 3.7-2.35 7.45-3.78 11.2-1.13 2.54-2.19 5.26-3.42 7.88l-1.41 1.3c1.67-3.05 3.05-6.3 4.5-9.33zm-24.19 22.52 3.65-4.78a157 157 0 0 0 6.36-9.93 158.4 158.4 0 0 1-6.06 10.15l-3.51 4.9-1.39 1.9c-.53.33-1.07.65-1.62.95l.69-.77 1.88-2.42zm2.93 4.31 6.2-1.4c4.05-1.13 8.21-2.36 12.33-3.85a172.5 172.5 0 0 1-12.25 4.22l-6.16 1.58-3.03.74-1.54.27c.52-.3 1.04-.62 1.56-.94l2.9-.62zm28.25-20.47c3.76-1.95 7.51-4.08 11.24-6.39-3.67 2.4-7.36 4.66-11.07 6.72-3.5 1.71-6.76 3.52-10.25 4.94.44-.4.87-.83 1.31-1.25 2.95-1.21 5.77-2.66 8.77-4.02zm17.72-23.06c-3.11 2.51-6.02 5.04-9.25 7.23l1.09-1.56c2.7-1.85 5.23-3.92 7.93-5.96 3.3-2.68 6.44-5.6 9.64-8.63a173.73 173.73 0 0 1-9.4 8.92z"/><path d="M215.34 7.3a45.51 45.51 0 0 0 5.98 5.36 44.74 44.74 0 0 0 7.14 4.77 36.45 36.45 0 0 0 7.08 3.27 137.95 137.95 0 0 0-18.76-16.04 138.34 138.34 0 0 1 19.28 15.52 31.89 31.89 0 0 0-3.76-7.05 38.76 38.76 0 0 0-6.31-6.45 39 39 0 0 0-7.26-4.33 34.18 34.18 0 0 0-7.26-2.08c-.76-.13-1.27.73-.84 1.37a35.55 35.55 0 0 0 4.7 5.66z"/><path d="M50.1 20.18C56 14.38 62.55 9.28 69.38 4.66A137.95 137.95 0 0 0 50.62 20.7a36.45 36.45 0 0 0 7.08-3.27 44.74 44.74 0 0 0 7.14-4.77c2.25-1.64 4.2-3.5 5.98-5.36 1.83-1.8 3.4-3.7 4.7-5.66.43-.64-.07-1.5-.83-1.37-2.3.37-4.76 1.07-7.26 2.08a39 39 0 0 0-7.26 4.33 38.76 38.76 0 0 0-6.31 6.45 31.89 31.89 0 0 0-3.76 7.05z"/><path d="M133.02 55.34h6.62v-3.07h-35.8v3.07a3.52 3.52 0 0 1 3.53 3.53v121.27a3.52 3.52 0 0 1-3.53 3.52v3.07h35.8v-3.07h-9.67c-3.7 0-6.7-3-6.7-6.7v-47.81l11.23-10.02 52.45 64.53H176.1v3.07h49.39v-3.07h-5.33c-5.2 0-10.1-2.34-13.37-6.36l-52.02-64 64.86-57.96h9.85v-3.07h-53.38v3.07h13.98c4.07 0 6 5.04 2.96 7.76l-69.77 62.34V65.1a9.74 9.74 0 0 1 9.74-9.75zm65.68 6.41a25.2 25.2 0 0 1 16.79-6.4l-62.46 55.8-4.04-4.97z"/><path d="M75.56 28.75h30.45v3.89H75.56z"/><path d="M79.8 35.1h21.95v3.89H79.8z"/><path d="M75.56 203.37h30.45v3.89H75.56z"/><path d="M79.8 197.02h21.95v3.89H79.8z"/><path d="M88.73 42.42h3.89v151.16h-3.89z"/><path d="M95.49 42.42h3.89v151.16h-3.89z"/><path d="M81.98 42.42h3.89v151.16h-3.89z"/><path d="M403.31 179.67a36 36 0 0 0-15.45-14.41c-6.69-3.35-14.63-5.02-23.82-5.02h-46.51v1.4h1.67c2.22 0 4.1.71 5.64 2.15a7.68 7.68 0 0 1 2.43 5.5v65.46a8.02 8.02 0 0 1-2.36 5.36 7.44 7.44 0 0 1-5.58 2.3h-1.8v1.4h46.51c9.2 0 17.13-1.7 23.82-5.09a36.55 36.55 0 0 0 15.45-14.41c3.63-6.22 5.44-13.65 5.44-22.29 0-8.63-1.81-16.08-5.44-22.35zm-13.85 49.86c-6.18 6.73-14.65 10.1-25.42 10.1h-27.71v-75.21h27.71c10.77 0 19.24 3.37 25.42 10.1 6.17 6.73 9.26 15.9 9.26 27.5 0 11.61-3.09 20.78-9.26 27.5z"/><path d="M442.3 243.8h37.6l7.66-19.91h-1.39a40.63 40.63 0 0 1-4.6 8 18.15 18.15 0 0 1-6.89 5.58c-2.83 1.34-6.57 2.02-11.21 2.02H442.3V204.1h23.68c1.95 0 3.38.58 4.31 1.74a6.39 6.39 0 0 1 1.4 4.11v1.81h1.53v-19.5h-1.53v1.81c0 1.58-.47 2.95-1.4 4.11-.93 1.16-2.36 1.74-4.31 1.74H442.3v-35.37h28.83c2.13 0 3.83.7 5.08 2.09a7.24 7.24 0 0 1 1.88 5.01v2.1h1.54V158c-1.21.47-3.44.96-6.69 1.47-3.25.5-6.31.76-9.2.76h-40.38v1.4h1.95c2.32 0 4.22.7 5.71 2.08a7.42 7.42 0 0 1 2.37 5.3v65.87a7.76 7.76 0 0 1-2.37 5.3 7.74 7.74 0 0 1-5.7 2.22h-1.96v1.4h18.94z"/><path d="M536.37 242.76c3.76-2 6.76-4.71 8.99-8.15 2.23-3.43 3.3-7.2 3.2-11.28-.1-2.69-.65-5.4-1.67-8.15a15.72 15.72 0 0 0-4.74-6.75l-28.13-21.73a17.69 17.69 0 0 1-3.27-3.62c-.8-1.2-1.35-2.43-1.67-3.69a14.6 14.6 0 0 1-.5-3.69c-.08-3.71 1.52-6.84 4.81-9.4 3.3-2.55 7.27-3.83 11.91-3.83 5.48 0 9.52 1.1 12.12 3.27 2.6 2.19 3.9 5.18 3.9 8.99h1.67l-.14-13.8-.06-.01-.08-1.37h-4.64c-.58-.13-1.18-.25-1.83-.35a73.27 73.27 0 0 0-11.9-.9c-4.29 0-8.16.9-11.64 2.7a21.9 21.9 0 0 0-8.29 7.32 18.16 18.16 0 0 0-3.06 10.3c0 2.42.46 4.97 1.39 7.67.93 2.69 2.7 5.15 5.3 7.38l27.85 21.44a14.85 14.85 0 0 1 3.82 5.09 15.03 15.03 0 0 1 1.19 6.06c0 4.55-1.65 8.2-4.95 10.93-3.3 2.74-7.82 4.2-13.57 4.39-4.1.09-7.66-.63-10.73-2.16a15.54 15.54 0 0 1-6.96-6.76c-1.58-2.97-2.18-6.54-1.81-10.72h-1.67c-.56 1.76-1 3.76-1.32 5.99a43.57 43.57 0 0 0-.5 6.33c0 2 .15 3.65.43 4.95a21.74 21.74 0 0 0 6.68 3.69c2.7.97 5.6 1.7 8.7 2.16 3.11.46 6.01.7 8.7.7 4.56 0 8.71-1 12.47-3z"/><path d="M657.04 202.02c0-6.5-1.2-12.41-3.62-17.75a41.53 41.53 0 0 0-10.1-13.86 45.5 45.5 0 0 0-15.03-8.98 52.9 52.9 0 0 0-18.32-3.14 52.3 52.3 0 0 0-18.24 3.14 45.66 45.66 0 0 0-14.98 8.98 41.57 41.57 0 0 0-10.1 13.86 42.63 42.63 0 0 0-3.61 17.75c0 6.5 1.2 12.42 3.62 17.76a41.56 41.56 0 0 0 10.1 13.86c4.31 3.9 9.3 6.9 14.97 8.98a52.3 52.3 0 0 0 18.24 3.13c6.5 0 12.6-1.04 18.32-3.13a45.52 45.52 0 0 0 15.04-8.98 41.52 41.52 0 0 0 10.1-13.86 42.62 42.62 0 0 0 3.61-17.76zm-15.18 20.61a36.06 36.06 0 0 1-13.23 13.93 35.56 35.56 0 0 1-18.66 5.02 35.3 35.3 0 0 1-18.52-5.02 36.06 36.06 0 0 1-13.23-13.93c-3.25-5.94-4.88-12.8-4.88-20.6 0-7.9 1.63-14.8 4.88-20.69a36.2 36.2 0 0 1 13.23-13.86 35.3 35.3 0 0 1 18.52-5c6.87 0 13.1 1.66 18.66 5a36.19 36.19 0 0 1 13.23 13.86c3.25 5.9 4.88 12.8 4.88 20.68 0 7.8-1.63 14.67-4.88 20.61z"/><path d="M840.32 167.62c.1-1.67.79-3.08 2.09-4.24a6.68 6.68 0 0 1 4.6-1.75h2.08v-1.39h-23.95v1.4h2.09c1.85 0 3.43.58 4.73 1.74a5.5 5.5 0 0 1 1.95 4.24v46.8c0 8.54-2.53 15.27-7.59 20.2-5.06 4.91-12 7.37-20.82 7.37-7.98 0-14.27-2.6-18.87-7.8-4.6-5.2-6.9-12.3-6.9-21.3v-45.27a5.4 5.4 0 0 1 2.03-4.24 6.94 6.94 0 0 1 4.66-1.75h2.1v-1.39h-26.47v1.4h2.09a6.6 6.6 0 0 1 4.66 1.74 6.06 6.06 0 0 1 2.02 4.24v46.94c0 9.65 3.14 17.27 9.4 22.84 6.27 5.57 14.74 8.35 25.42 8.35 10.77 0 19.24-2.8 25.42-8.42 6.17-5.62 9.26-13.25 9.26-22.91v-46.8Z"/><path d="M922.41 197.64c2.37-3.76 3.55-8.3 3.55-13.58 0-4.92-1.3-9.17-3.9-12.75-2.6-3.57-6.27-6.3-11-8.21-4.73-1.9-10.35-2.86-16.85-2.86h-32.59v1.4h1.95c2.23 0 4.1.7 5.64 2.08a7.3 7.3 0 0 1 2.44 5.3v65.87c-.1 2.04-.9 3.8-2.44 5.3a7.8 7.8 0 0 1-5.64 2.22h-1.95v1.4h28.83v-1.4h-1.95c-2.23 0-4.11-.74-5.64-2.23a7.65 7.65 0 0 1-2.3-4.28v-71.48h13.37c6.87 0 12.26 1.63 16.16 4.87 3.9 3.26 5.85 7.71 5.85 13.37 0 1.21-.08 2.51-.21 3.9-.14 1.4-.4 2.6-.77 3.63-1.4 3.99-3.27 7.05-5.64 9.19a19.48 19.48 0 0 1-7.59 4.38c-2.7.8-5.25 1.21-7.66 1.26-2.42.04-5.15-.21-8.22-.77v1.4a32.75 32.75 0 0 0 14.2 3.55c4.74.04 9.06-.93 12.96-2.93 3.9-2 7.03-4.87 9.4-8.63z"/><path d="M1022.89 242.41c-1.86 0-3.81-.67-5.85-2.02-2.05-1.34-3.76-3.6-5.16-6.75h-.04l-34.08-75.35h-1.25c-.1.93-.42 2.18-.98 3.76a77.15 77.15 0 0 1-1.87 4.8c-.7 1.63-1.56 3.56-2.58 5.79l-29.05 62.26c-1.34 2.5-2.9 4.33-4.65 5.5a10.89 10.89 0 0 1-6 2.01h-1.1v1.4h26.6v-1.4h-1.12c-1.67 0-3.16-.77-4.46-2.3-1.17-1.38-1.39-3.27-.68-5.66l8-18.92h35.18l7.76 18.9c.71 2.4.5 4.3-.68 5.68-1.3 1.53-2.74 2.3-4.31 2.3h-1.12v1.4H1024v-1.4h-1.11zm-62.51-31.06 16.08-38.06 15.63 38.06h-31.71z"/><path d="M326.42 116.81h18.69l-.13-1.31h-1.72c-2.45 0-4.54-.7-6.25-2.11a6.71 6.71 0 0 1-2.7-5V46.27c.1-2.01 1-3.7 2.7-5.06a9.74 9.74 0 0 1 6.25-2.04h1.72l.13-1.32h-29.88v1.32h1.84c2.46 0 4.55.68 6.26 2.04a6.63 6.63 0 0 1 2.7 5.06v62.12a6.71 6.71 0 0 1-2.7 5 9.53 9.53 0 0 1-6.26 2.1h-1.84v1.32z"/><path d="M366.69 116.81h15v-1.31h-2.24a7.3 7.3 0 0 1-5.06-1.98 6.32 6.32 0 0 1-2.18-4.87h-.01l-.1-54.95 68.55 64.95h1.18a118.75 118.75 0 0 1-1.18-16.85V46c0-1.92.72-3.54 2.17-4.86a7.3 7.3 0 0 1 5.07-1.97h2.23v-1.32h-24.87v1.32h2.24a7.23 7.23 0 0 1 7.37 6.84v54.35l-68.43-64.48h-1.32c.79 6.49 1.18 11.97 1.18 16.45v56.32c0 1.93-.7 3.56-2.1 4.87a7.23 7.23 0 0 1-5.13 1.98h-2.24v1.31h9.87z"/><path d="M460.65 41.07c1.93 1.28 3.56 3.4 4.87 6.39h.04l32.2 71.2h1.19c.08-.88.4-2.07.92-3.56.52-1.49 1.12-3 1.78-4.54.65-1.53 1.46-3.36 2.43-5.46l27.44-58.82c1.27-2.37 2.74-4.1 4.4-5.2a10.29 10.29 0 0 1 5.67-1.91h1.05v-1.32h-25v1.32h.92c1.58 0 2.98.72 4.2 2.17 1.11 1.3 1.32 3.1.65 5.36l-24.42 57.79-23.63-57.59c-.68-2.36-.47-4.22.62-5.56 1.19-1.45 2.53-2.17 4.02-2.17h1.05v-1.32h-26.98v1.32h1.06c1.75 0 3.6.63 5.52 1.9z"/><path d="M560.4 116.81h18.7l-.14-1.31h-1.7c-2.46 0-4.55-.7-6.26-2.11a6.71 6.71 0 0 1-2.7-5V46.27c.09-2.01.99-3.7 2.7-5.06a9.74 9.74 0 0 1 6.25-2.04h1.71l.13-1.32h-29.87v1.32h1.84c2.46 0 4.54.68 6.25 2.04a6.64 6.64 0 0 1 2.7 5.06v62.12a6.72 6.72 0 0 1-2.7 5 9.54 9.54 0 0 1-6.25 2.1h-1.84v1.32z"/><path d="m672.4 101.68 1.45-18.03h-1.19c-.44 7.2-2.32 13.07-5.66 17.63a29.4 29.4 0 0 1-12.96 10.07c-5.31 2.15-11.25 3.22-17.83 3.22-6.93-.08-12.94-1.64-18.03-4.67A30.24 30.24 0 0 1 606.4 97c-2.76-5.57-4.15-12.12-4.15-19.67 0-7.72 1.39-14.37 4.15-19.94a30.4 30.4 0 0 1 11.71-12.9c5.05-3.02 11.03-4.53 17.97-4.53 8.16 0 15.15 1.75 20.99 5.26 5.83 3.51 9.71 9.3 11.64 17.37h1.19L667 44.04a49.72 49.72 0 0 0-14.34-5.93 66.67 66.67 0 0 0-16.45-2.1c-8.87 0-16.56 1.67-23.1 5a35.5 35.5 0 0 0-15.07 14.21c-3.5 6.14-5.26 13.51-5.26 22.11 0 8.51 1.75 15.84 5.26 21.98a35.48 35.48 0 0 0 15.07 14.21c6.54 3.33 14.23 5.05 23.1 5.13 5.17 0 10.09-.68 14.74-2.04a43.05 43.05 0 0 0 12.5-5.85 32.58 32.58 0 0 0 8.95-9.08z"/><path d="M682.4 48.38c0-1.84.6-3.4 1.78-4.67a6.67 6.67 0 0 1 4.8-2.04h23.82v66.72a7.12 7.12 0 0 1-2.37 5 7.6 7.6 0 0 1-5.4 2.1h-1.57v1.32h27.1v-1.31h-1.44c-2.1 0-3.9-.7-5.4-2.11a7.1 7.1 0 0 1-2.36-5V41.67h23.81c2.02.09 3.62.77 4.8 2.04a6.6 6.6 0 0 1 1.79 4.67v2.1h1.44V35.61c-.79.27-2.02.57-3.68.92a56.28 56.28 0 0 1-11.06 1.19H695.7c-1.75 0-3.64-.11-5.66-.33a52.13 52.13 0 0 1-9.08-1.78v14.87h1.45z"/><path d="M774.59 107.2a43.17 43.17 0 0 0 14.15 8.5 49.4 49.4 0 0 0 17.24 2.95c6.14 0 11.9-.98 17.3-2.96a42.99 42.99 0 0 0 14.21-8.49 39.19 39.19 0 0 0 9.54-13.09 40.26 40.26 0 0 0 3.43-16.78c0-6.14-1.14-11.73-3.43-16.78a39.2 39.2 0 0 0-9.54-13.1 43 43 0 0 0-14.2-8.48A50 50 0 0 0 805.97 36c-6.15 0-11.9.99-17.24 2.96a43.2 43.2 0 0 0-14.15 8.49 39.2 39.2 0 0 0-9.54 13.1 40.23 40.23 0 0 0-3.42 16.77c0 6.14 1.14 11.74 3.42 16.78a39.18 39.18 0 0 0 9.54 13.1zm1.38-49.41a34.2 34.2 0 0 1 12.5-13.1 33.38 33.38 0 0 1 17.5-4.73c6.5 0 12.38 1.58 17.64 4.73a34.19 34.19 0 0 1 12.5 13.1c3.07 5.57 4.6 12.08 4.6 19.54 0 7.37-1.53 13.86-4.6 19.48a34.06 34.06 0 0 1-12.5 13.16 33.6 33.6 0 0 1-17.63 4.74c-6.41 0-12.24-1.58-17.5-4.74a34.08 34.08 0 0 1-12.51-13.16c-3.07-5.62-4.6-12.1-4.6-19.48 0-7.46 1.53-13.97 4.6-19.54z"/><path d="M41.02 309.75a3.11 3.11 0 0 1-1.2-2.03l-4.11-28.05h-.46l-13.03 25.92-13.49-25.92h-.5L4.26 307.6h-.03a3 3 0 0 1-1.15 2.14 3.7 3.7 0 0 1-2.32.77H0v.5h9.45v-.45h-.72c-.74-.04-1.26-.28-1.53-.74-.23-.4-.33-.82-.34-1.25l2.3-20.6 12.3 23.76h.5c.14-.71.35-1.47.62-2.27s.66-1.78 1.17-2.94l9.64-18.98 2.69 20.82h-.02c.07.48-.02.96-.28 1.43-.25.48-.77.73-1.56.77h-.76v.46h10.62v-.51h-.76c-.86 0-1.62-.26-2.3-.77z"/><path d="M68.6 306.66a6.66 6.66 0 0 1-2.53 2.04c-1.04.5-2.4.74-4.11.74h-7.77v-12.97h8.69c.71 0 1.24.21 1.58.64.34.43.51.93.51 1.5v.67h.56v-7.15h-.56v.66c0 .58-.17 1.08-.5 1.5-.35.44-.88.65-1.6.65H54.2v-12.98h10.58c.78 0 1.4.26 1.86.77.46.51.7 1.12.7 1.84v.77h.55v-5.78a21.84 21.84 0 0 1-5.82.82H47.25v.51h.71c.85 0 1.55.26 2.1.77.54.5.83 1.16.87 1.94v24.16c-.04.75-.33 1.4-.87 1.94-.55.55-1.25.82-2.1.82h-.71v.5h20.74l2.8-7.3h-.5a14.91 14.91 0 0 1-1.7 2.94z"/><path d="M100.93 282.22a19.3 19.3 0 0 0-8.73-1.84H75.14v.51h.61c.82 0 1.5.26 2.07.8.56.52.86 1.2.9 2.01v24c-.04.76-.33 1.41-.87 1.98-.55.56-1.23.84-2.05.84h-.66v.5H92.2c3.37 0 6.28-.61 8.73-1.86a13.4 13.4 0 0 0 5.67-5.28c1.33-2.28 2-5 2-8.18 0-3.16-.67-5.9-2-8.2a13.2 13.2 0 0 0-5.67-5.28zm.59 23.57c-2.26 2.47-5.37 3.7-9.32 3.7H82.03v-27.58H92.2c3.95 0 7.06 1.24 9.32 3.7 2.26 2.48 3.4 5.84 3.4 10.1 0 4.25-1.14 7.61-3.4 10.08z"/><path d="M122.41 281.68a3.78 3.78 0 0 1 2.43-.79h.66l.05-.5h-11.6v.5h.72c.96 0 1.76.26 2.43.8a2.58 2.58 0 0 1 1.05 1.96v24.1a2.6 2.6 0 0 1-1.05 1.95 3.7 3.7 0 0 1-2.43.82h-.71v.5h11.6l-.06-.5h-.66a3.7 3.7 0 0 1-2.43-.82 2.6 2.6 0 0 1-1.05-1.94v-24.11c.04-.78.39-1.44 1.05-1.97z"/><path d="M159.88 309.78a5.51 5.51 0 0 1-1.9-2.48l-12.5-27.63H145c-.03.34-.15.8-.35 1.37-.2.58-.44 1.17-.7 1.77-.25.6-.56 1.3-.94 2.12l-10.56 22.63a5.61 5.61 0 0 1-1.8 2.22 4 4 0 0 1-2.2.74h-.4v.5h9.75v-.5h-.4a2.1 2.1 0 0 1-1.64-.84c-.44-.53-.5-1.26-.21-2.17l2.89-6.85h12.9l2.8 6.83c.3.92.25 1.66-.2 2.19-.47.56-1 .84-1.58.84h-.4v.5h10.46v-.5h-.4c-.69 0-1.4-.25-2.15-.74zm-20.78-10.65 5.9-13.97 5.73 13.97z"/><path d="M190.78 282.22a19.3 19.3 0 0 0-8.73-1.84h-17.06v.51h.6c.83 0 1.52.26 2.08.8.56.52.86 1.2.9 2.01v24c-.04.76-.33 1.41-.88 1.98-.54.56-1.22.84-2.04.84h-.66v.5h17.06c3.37 0 6.28-.61 8.73-1.86a13.4 13.4 0 0 0 5.67-5.28c1.33-2.28 2-5 2-8.18 0-3.16-.67-5.9-2-8.2a13.2 13.2 0 0 0-5.67-5.28zm.59 23.57c-2.27 2.47-5.37 3.7-9.32 3.7h-10.17v-27.58h10.17c3.95 0 7.05 1.24 9.32 3.7 2.26 2.48 3.4 5.84 3.4 10.1 0 4.25-1.14 7.61-3.4 10.08z"/><path d="M233 284.11a16.69 16.69 0 0 0-5.52-3.3 19.42 19.42 0 0 0-6.71-1.14c-2.39 0-4.62.38-6.7 1.14-2.07.77-3.9 1.87-5.49 3.3a15.22 15.22 0 0 0-5.03 11.6 15.22 15.22 0 0 0 5.03 11.6 16.71 16.71 0 0 0 5.5 3.28c2.07.77 4.3 1.15 6.69 1.15 2.38 0 4.62-.38 6.71-1.15 2.1-.76 3.94-1.86 5.52-3.3a15.22 15.22 0 0 0 5.03-11.59 15.22 15.22 0 0 0-5.03-11.6zm-.54 19.15a13.04 13.04 0 0 1-11.7 6.95c-2.48 0-4.74-.61-6.79-1.84a13.22 13.22 0 0 1-4.85-5.1 15.5 15.5 0 0 1-1.79-7.57c0-2.89.6-5.42 1.79-7.58 1.2-2.16 2.8-3.86 4.85-5.08a12.95 12.95 0 0 1 6.8-1.84 13.04 13.04 0 0 1 11.7 6.92c1.18 2.16 1.78 4.7 1.78 7.58 0 2.86-.6 5.39-1.79 7.56z"/><path d="M268.96 308.68a46.99 46.99 0 0 1-4.04-4.52c-.7-.87-1.49-1.9-2.37-3.1-.55-.77-1.2-1.58-1.97-2.4a6.4 6.4 0 0 0-2.02-1.58 9.35 9.35 0 0 0 4.12-1.43 8.44 8.44 0 0 0 2.83-3.01 8.08 8.08 0 0 0 1.02-3.98c0-1.3-.24-2.46-.71-3.48a7.16 7.16 0 0 0-2.07-2.6c-.9-.72-2-1.26-3.27-1.64a15.38 15.38 0 0 0-4.32-.56h-12.82v.51h.72c.82 0 1.5.26 2.04.77.45.42.72.94.82 1.56v24.91a2.84 2.84 0 0 1-2.86 2.39h-.72v.5h10.47l-.05-.5h-.66c-.82 0-1.5-.27-2.04-.82a2.83 2.83 0 0 1-.87-1.94v-25.78c.2.02.77.01 1.68-.02a60.3 60.3 0 0 1 4.2.05 8.7 8.7 0 0 1 2.75.52c.82.3 1.52.73 2.12 1.27.6.55 1.06 1.2 1.38 1.94.32.75.5 1.6.53 2.56a8.17 8.17 0 0 1-.35 2.9 6.04 6.04 0 0 1-1.97 3.07c-.83.62-1.73.98-2.68 1.1-.95.12-1.9.2-2.86.23-.85.04-1.82.04-2.91 0v.51c.99 0 1.92.35 2.8 1.05.9.7 1.67 1.49 2.36 2.38l.86 1.2 1.59 2.22 1.6 2.27.95 1.3c.55.65 1.2 1.32 1.94 2.02a9.2 9.2 0 0 0 2.94 1.76c1.2.48 2.75.72 4.62.72h1.59v-.51a5.7 5.7 0 0 1-2.43-.49 7 7 0 0 1-1.94-1.35z"/><path d="M296.72 306.66a6.66 6.66 0 0 1-2.53 2.04c-1.04.5-2.4.74-4.1.74h-7.77v-12.97H291c.72 0 1.24.21 1.58.64.34.43.52.93.52 1.5v.67h.56v-7.15h-.56v.66c0 .58-.18 1.08-.52 1.5-.34.44-.86.65-1.58.65h-8.68v-12.98h10.57c.78 0 1.4.26 1.86.77.46.51.7 1.12.7 1.84v.77h.56v-5.78a21.84 21.84 0 0 1-5.82.82h-14.82v.51h.72c.85 0 1.54.26 2.09.77.54.5.83 1.16.87 1.94v24.16c-.04.75-.33 1.4-.87 1.94-.55.55-1.24.82-2.1.82h-.71v.5h20.74l2.8-7.3h-.5a14.91 14.91 0 0 1-1.69 2.94z"/><path d="m318.94 298.05-10.32-7.96a6.5 6.5 0 0 1-1.2-1.33c-.29-.45-.5-.9-.61-1.36a5.39 5.39 0 0 1-.18-1.35 4.08 4.08 0 0 1 1.76-3.45 6.92 6.92 0 0 1 4.37-1.4c2.01 0 3.5.4 4.45 1.2.95.8 1.42 1.9 1.42 3.3h.62l-.05-5.06-.03-.01-.02-.5h-1.7c-.22-.05-.44-.1-.68-.13a30.16 30.16 0 0 0-4.37-.34 9.1 9.1 0 0 0-4.26 1 8.02 8.02 0 0 0-3.04 2.68 6.66 6.66 0 0 0-1.12 3.78c0 .89.16 1.82.5 2.81.35 1 1 1.9 1.95 2.71l10.21 7.86c.65.59 1.12 1.2 1.4 1.87.3.66.44 1.4.44 2.22 0 1.67-.6 3-1.81 4.01-1.21 1-2.87 1.54-4.98 1.61-1.5.03-2.81-.23-3.94-.8a5.71 5.71 0 0 1-2.55-2.47 6.93 6.93 0 0 1-.66-3.93h-.62a15.95 15.95 0 0 0-.66 4.52c0 .73.05 1.34.15 1.81.65.55 1.47 1 2.46 1.36.98.35 2.05.62 3.19.79 1.14.17 2.2.25 3.2.25a9.6 9.6 0 0 0 4.56-1.1 8.73 8.73 0 0 0 3.3-2.98 7.15 7.15 0 0 0 1.17-4.14 9.45 9.45 0 0 0-.61-2.99c-.38-1-.96-1.83-1.74-2.48z"/><path d="M359.09 280.9h.61c.75 0 1.3.28 1.64.86.34.58.32 1.2-.05 1.88l-7.8 12.9-7.28-12.94a1.78 1.78 0 0 1-.02-1.81c.32-.6.86-.9 1.61-.9h.61v-.5h-11.85v.5h.62c.98 0 1.88.23 2.68.7.8.45 1.47 1.07 2.02 1.86h.02l9.43 14.85v9.46a2.8 2.8 0 0 1-.9 1.94c-.56.55-1.25.82-2.07.82h-.61v.5h10.47v-.5h-.61c-.82 0-1.5-.27-2.07-.82a2.8 2.8 0 0 1-.9-1.94v-9.38l9.79-14.88h.07a6.77 6.77 0 0 1 1.97-1.82 4.93 4.93 0 0 1 2.68-.79h.61v-.51H359.1v.51z"/><path d="m400.77 298.05-10.32-7.96a6.5 6.5 0 0 1-1.2-1.33c-.29-.45-.5-.9-.61-1.36a5.39 5.39 0 0 1-.18-1.35 4.08 4.08 0 0 1 1.76-3.45 6.92 6.92 0 0 1 4.37-1.4c2 0 3.49.4 4.44 1.2.96.8 1.43 1.9 1.43 3.3h.62l-.05-5.06-.03-.01-.03-.5h-1.7a30.16 30.16 0 0 0-5.04-.46 9.1 9.1 0 0 0-4.26 1 8.02 8.02 0 0 0-3.04 2.67 6.67 6.67 0 0 0-1.13 3.78c0 .89.17 1.82.51 2.81.34 1 1 1.9 1.95 2.71l10.21 7.86c.65.59 1.12 1.2 1.4 1.87.3.66.44 1.4.44 2.22 0 1.67-.6 3-1.81 4.01-1.21 1-2.87 1.54-4.98 1.61-1.5.03-2.81-.23-3.94-.8a5.71 5.71 0 0 1-2.55-2.47 6.93 6.93 0 0 1-.66-3.93h-.62a15.95 15.95 0 0 0-.66 4.52c0 .73.05 1.34.15 1.81.65.55 1.47 1 2.45 1.36 1 .35 2.05.62 3.2.79 1.14.17 2.2.25 3.19.25a9.6 9.6 0 0 0 4.57-1.1 8.73 8.73 0 0 0 3.3-2.98 7.15 7.15 0 0 0 1.17-4.14 9.45 9.45 0 0 0-.61-2.99c-.38-1-.96-1.83-1.74-2.48z"/><path d="M430.04 306.66a6.66 6.66 0 0 1-2.53 2.04c-1.04.5-2.4.74-4.11.74h-7.76v-12.97h8.68c.71 0 1.24.21 1.58.64.34.43.51.93.51 1.5v.67h.57v-7.15h-.57v.66c0 .58-.17 1.08-.5 1.5-.35.44-.88.65-1.6.65h-8.67v-12.98h10.57c.78 0 1.4.26 1.86.77.46.51.7 1.12.7 1.84v.77h.55v-5.78a21.84 21.84 0 0 1-5.82.82H408.7v.51h.71c.85 0 1.55.26 2.1.77.54.5.83 1.16.87 1.94v24.16c-.04.75-.33 1.4-.87 1.94-.55.55-1.25.82-2.1.82h-.71v.5h20.74l2.8-7.3h-.5a14.91 14.91 0 0 1-1.69 2.94z"/><path d="M462.2 308.68a46.99 46.99 0 0 1-4.04-4.52c-.7-.87-1.5-1.9-2.38-3.1-.54-.77-1.2-1.58-1.96-2.4a6.4 6.4 0 0 0-2.02-1.58 9.35 9.35 0 0 0 4.11-1.43 8.44 8.44 0 0 0 2.84-3.01 8.08 8.08 0 0 0 1.02-3.98c0-1.3-.24-2.46-.72-3.48a7.16 7.16 0 0 0-2.07-2.6c-.9-.72-1.99-1.26-3.27-1.64a15.38 15.38 0 0 0-4.31-.56h-12.82v.51h.71c.82 0 1.5.26 2.04.77.46.42.72.94.82 1.56v24.91a2.84 2.84 0 0 1-2.86 2.39h-.71v.5h10.47l-.05-.5h-.67c-.81 0-1.5-.27-2.04-.82a2.83 2.83 0 0 1-.87-1.94v-25.78c.21.02.77.01 1.69-.02a60.3 60.3 0 0 1 4.19.05 8.7 8.7 0 0 1 2.75.52c.82.3 1.53.73 2.12 1.27.6.55 1.06 1.2 1.38 1.94.33.75.5 1.6.54 2.56a8.17 8.17 0 0 1-.36 2.9 6.04 6.04 0 0 1-1.96 3.07c-.84.62-1.73.98-2.69 1.1-.95.12-1.9.2-2.86.23-.85.04-1.82.04-2.9 0v.51c.98 0 1.92.35 2.8 1.05.89.7 1.67 1.49 2.35 2.38a497.9 497.9 0 0 1 2.45 3.42l1.61 2.27c.5.7.81 1.13.95 1.3.54.65 1.19 1.32 1.94 2.02a9.2 9.2 0 0 0 2.93 1.76c1.21.48 2.75.72 4.63.72h1.58v-.51a5.7 5.7 0 0 1-2.43-.49 7 7 0 0 1-1.94-1.35z"/><path d="M490.21 280.9h.36c.61 0 1.15.27 1.63.83.45.53.5 1.26.21 2.17l-9.43 22.34-9.15-22.29c-.28-.94-.22-1.68.22-2.22.45-.56.97-.84 1.55-.84h.41v-.5h-10.47v.5h.4c.69 0 1.4.25 2.15.74.75.5 1.38 1.32 1.9 2.48l12.5 27.63h.47c.03-.34.15-.8.35-1.38.21-.57.44-1.16.7-1.76.25-.6.57-1.3.94-2.12l10.57-22.65c.51-1 1.1-1.75 1.8-2.2.74-.5 1.47-.74 2.19-.74h.4v-.5h-9.7v.5z"/><path d="M510.92 281.68a3.78 3.78 0 0 1 2.43-.79h.66l.05-.5h-11.6v.5h.72c.96 0 1.77.26 2.43.8a2.57 2.57 0 0 1 1.05 1.96v24.1a2.6 2.6 0 0 1-1.05 1.95 3.7 3.7 0 0 1-2.43.82h-.71v.5h11.6l-.06-.5h-.66a3.7 3.7 0 0 1-2.43-.82 2.6 2.6 0 0 1-1.04-1.94v-24.11c.03-.78.38-1.44 1.04-1.97z"/><path d="M548.19 305a11.41 11.41 0 0 1-5.03 3.9 18.3 18.3 0 0 1-6.93 1.26 13.8 13.8 0 0 1-7-1.81 11.75 11.75 0 0 1-4.57-5 17 17 0 0 1-1.6-7.65c0-3 .53-5.57 1.6-7.73a11.8 11.8 0 0 1 4.55-5 13.3 13.3 0 0 1 6.97-1.77c3.17 0 5.89.68 8.15 2.04 2.26 1.36 3.77 3.61 4.52 6.74h.46l-1.12-7.2a19.33 19.33 0 0 0-5.57-2.3 25.91 25.91 0 0 0-6.39-.81c-3.44 0-6.42.64-8.96 1.94a13.78 13.78 0 0 0-5.85 5.51 17.04 17.04 0 0 0-2.04 8.58c0 3.3.68 6.15 2.04 8.53a13.78 13.78 0 0 0 5.85 5.52 19.96 19.96 0 0 0 8.96 2c2.01 0 3.92-.27 5.72-.8 1.8-.53 3.43-1.28 4.86-2.27a12.71 12.71 0 0 0 3.47-3.53l.56-7h-.46c-.17 2.8-.9 5.08-2.2 6.85z"/><path d="M564.1 281.68a3.78 3.78 0 0 1 2.43-.79h.66l.05-.5h-11.6v.5h.72c.95 0 1.76.26 2.43.8a2.57 2.57 0 0 1 1.04 1.96v24.1a2.6 2.6 0 0 1-1.04 1.95 3.7 3.7 0 0 1-2.43.82h-.72v.5h11.6l-.05-.5h-.66a3.7 3.7 0 0 1-2.43-.82 2.6 2.6 0 0 1-1.05-1.94v-24.11c.04-.78.38-1.44 1.05-1.97z"/><path d="M602 284.11a16.69 16.69 0 0 0-5.52-3.3 19.42 19.42 0 0 0-6.72-1.14c-2.38 0-4.6.38-6.69 1.14-2.07.77-3.9 1.87-5.49 3.3a15.2 15.2 0 0 0-5.03 11.6 15.2 15.2 0 0 0 5.03 11.6 16.73 16.73 0 0 0 5.5 3.28c2.07.77 4.3 1.15 6.68 1.15 2.39 0 4.63-.38 6.72-1.15 2.1-.76 3.93-1.86 5.52-3.3a15.2 15.2 0 0 0 5.03-11.59 15.2 15.2 0 0 0-5.03-11.6zm-.54 19.15a13.04 13.04 0 0 1-11.7 6.95c-2.48 0-4.75-.61-6.79-1.84a13.21 13.21 0 0 1-4.85-5.1 15.5 15.5 0 0 1-1.8-7.57c0-2.89.6-5.42 1.8-7.58a13.26 13.26 0 0 1 4.85-5.08 12.94 12.94 0 0 1 6.8-1.84 13.04 13.04 0 0 1 11.7 6.92 15.49 15.49 0 0 1 1.78 7.58c0 2.86-.6 5.39-1.79 7.56z"/><path d="m628.02 298.05-10.32-7.96a6.4 6.4 0 0 1-1.2-1.33 5.32 5.32 0 0 1-.8-2.7 4.1 4.1 0 0 1 1.78-3.46 6.92 6.92 0 0 1 4.36-1.4c2.01 0 3.5.4 4.44 1.2.96.8 1.44 1.9 1.44 3.3h.61l-.05-5.06-.03-.01-.02-.5h-1.7c-.22-.05-.44-.1-.68-.13a30.13 30.13 0 0 0-4.36-.33 9.1 9.1 0 0 0-4.27 1 8.04 8.04 0 0 0-3.04 2.67 6.67 6.67 0 0 0-1.12 3.78c0 .89.17 1.83.5 2.81.35 1 1 1.9 1.95 2.71l10.21 7.87c.65.58 1.12 1.2 1.4 1.86.3.66.44 1.4.44 2.22 0 1.67-.6 3-1.81 4.01-1.21 1-2.87 1.54-4.98 1.61-1.5.04-2.81-.23-3.93-.79a5.69 5.69 0 0 1-2.56-2.48 6.9 6.9 0 0 1-.66-3.93h-.61a15.93 15.93 0 0 0-.66 4.52c0 .73.04 1.34.14 1.81.65.55 1.47 1 2.46 1.36.99.35 2.05.62 3.19.79 1.14.17 2.2.25 3.2.25a9.6 9.6 0 0 0 4.56-1.1 8.73 8.73 0 0 0 3.3-2.98 7.16 7.16 0 0 0 1.17-4.14 9.45 9.45 0 0 0-.61-2.99c-.37-1-.95-1.83-1.74-2.48z"/><path d="M657.17 281.68a3.78 3.78 0 0 1 2.42-.79h.66l.06-.5h-11.6v.5h.72c.95 0 1.76.26 2.42.8a2.57 2.57 0 0 1 1.05 1.96v24.1a2.6 2.6 0 0 1-1.05 1.95 3.7 3.7 0 0 1-2.42.82h-.72v.5h11.6l-.06-.5h-.66a3.7 3.7 0 0 1-2.42-.82 2.6 2.6 0 0 1-1.05-1.94v-24.11c.03-.78.38-1.44 1.05-1.97z"/><path d="M697.24 280.38h-5.83v.51h.87a2.8 2.8 0 0 1 2.86 2.66v21.1l-26.56-25.04h-.51c.3 2.53.46 4.65.46 6.39v21.86a2.5 2.5 0 0 1-.82 1.9 2.8 2.8 0 0 1-1.99.76h-.87v.5h9.66v-.5h-.87c-.75 0-1.4-.26-1.97-.77a2.46 2.46 0 0 1-.84-1.89l-.04-21.33 26.6 25.21h.46a49.38 49.38 0 0 1-.46-6.53v-21.66c0-.75.28-1.38.84-1.9a2.83 2.83 0 0 1 1.97-.76h.87v-.5h-3.83z"/><path d="M744.28 309.75a3.1 3.1 0 0 1-1.2-2.03l-4.11-28.05h-.46l-13.03 25.91L712 279.67h-.51l-3.96 27.94h-.03a3 3 0 0 1-1.15 2.14 3.7 3.7 0 0 1-2.32.77h-.77v.5h9.45v-.45H712c-.75-.04-1.26-.28-1.53-.74-.24-.4-.34-.82-.34-1.25l2.3-20.6 12.29 23.76h.5c.14-.71.35-1.47.62-2.27s.66-1.78 1.18-2.94l9.63-18.98 2.7 20.82h-.02c.06.48-.03.96-.28 1.43-.26.48-.78.73-1.56.77h-.77v.46h10.63v-.51h-.77c-.85 0-1.62-.26-2.3-.77z"/><path d="M779.7 284.11a16.69 16.69 0 0 0-5.51-3.3 19.42 19.42 0 0 0-6.72-1.14c-2.38 0-4.61.38-6.69 1.14-2.08.77-3.9 1.87-5.5 3.3a15.2 15.2 0 0 0-5.02 11.6 15.2 15.2 0 0 0 5.03 11.6 16.73 16.73 0 0 0 5.49 3.28c2.08.77 4.3 1.15 6.7 1.15 2.37 0 4.61-.38 6.7-1.15 2.1-.76 3.94-1.86 5.52-3.3a15.2 15.2 0 0 0 5.04-11.59 15.2 15.2 0 0 0-5.03-11.6zm-.53 19.15a13.04 13.04 0 0 1-11.7 6.95c-2.48 0-4.75-.61-6.8-1.84a13.21 13.21 0 0 1-4.84-5.1 15.5 15.5 0 0 1-1.8-7.57c0-2.89.6-5.42 1.8-7.58a13.26 13.26 0 0 1 4.85-5.08 12.94 12.94 0 0 1 6.8-1.84 13.04 13.04 0 0 1 11.69 6.92 15.49 15.49 0 0 1 1.79 7.58c0 2.86-.6 5.39-1.79 7.56z"/><path d="M809.9 295.78a10.54 10.54 0 0 0-4.42-1.4 8.13 8.13 0 0 0 4.8-3.48c.54-.88.81-1.84.81-2.86 0-1.7-.37-3.06-1.12-4.08a7.05 7.05 0 0 0-2.81-2.3 12.65 12.65 0 0 0-3.5-1.02c-1.2-.17-2.27-.26-3.2-.26h-10.41v.51h.61c.89 0 1.61.26 2.17.77.57.5.86 1.17.9 1.99v24.1a2.8 2.8 0 0 1-.9 1.95c-.56.55-1.28.82-2.17.82h-.61v.5h12.67c1.25 0 2.55-.13 3.88-.4s2.55-.73 3.68-1.38a7.76 7.76 0 0 0 2.73-2.63c.7-1.1 1.05-2.5 1.05-4.16 0-1.36-.38-2.62-1.13-3.78a9.14 9.14 0 0 0-3.04-2.89zm-.5 10.65a6.01 6.01 0 0 1-2.78 2.33c-1.17.49-2.49.74-3.95.74h-5.72V281.9h3.47c2.21 0 3.95.49 5.2 1.46 1.27.97 1.9 2.53 1.9 4.67 0 1.4-.3 2.51-.87 3.35a5.53 5.53 0 0 1-2.22 1.89c-.9.42-1.88.7-2.94.84s-2.04.2-2.96.2v.52c1.4 0 2.8.1 4.19.28 1.4.18 2.67.54 3.83 1.07 1.15.53 2.09 1.3 2.8 2.3.72 1 1.08 2.32 1.08 3.96a7.2 7.2 0 0 1-1.02 3.98z"/><path d="M827.62 281.68a3.78 3.78 0 0 1 2.43-.79h.66l.05-.5h-11.6v.5h.72c.95 0 1.76.26 2.42.8a2.57 2.57 0 0 1 1.05 1.96v24.1a2.6 2.6 0 0 1-1.05 1.95 3.7 3.7 0 0 1-2.42.82h-.72v.5h11.6l-.05-.5h-.66a3.7 3.7 0 0 1-2.43-.82 2.6 2.6 0 0 1-1.05-1.94v-24.11c.03-.78.38-1.44 1.05-1.97z"/><path d="M857.68 306.66a6.65 6.65 0 0 1-2.53 2.04c-1.04.5-2.41.74-4.11.74h-7.77v-25.79c0-.78.3-1.44.9-1.97a3.1 3.1 0 0 1 2.12-.79h.6v-.5h-10.57v.5h.62c.85 0 1.57.26 2.14.8.58.52.89 1.18.92 1.96v24.1c-.03.76-.32 1.4-.87 1.95-.54.55-1.24.82-2.1.82h-.7v.5h20.73l2.81-7.3h-.5a15 15 0 0 1-1.7 2.94z"/><path d="M872.16 281.68a3.78 3.78 0 0 1 2.43-.79h.66l.05-.5h-11.6v.5h.72c.96 0 1.76.26 2.43.8a2.57 2.57 0 0 1 1.04 1.96v24.1a2.6 2.6 0 0 1-1.04 1.95 3.7 3.7 0 0 1-2.43.82h-.71v.5h11.6l-.06-.5h-.66a3.7 3.7 0 0 1-2.43-.82 2.6 2.6 0 0 1-1.05-1.94v-24.11c.04-.78.39-1.44 1.05-1.97z"/><path d="M909.62 309.78a5.52 5.52 0 0 1-1.89-2.48l-12.5-27.63h-.47c-.03.34-.15.8-.36 1.37-.2.58-.43 1.17-.69 1.77-.25.6-.57 1.3-.94 2.12l-10.55 22.62a5.64 5.64 0 0 1-1.81 2.23 4 4 0 0 1-2.2.74h-.4v.5h9.75v-.5h-.41a2.1 2.1 0 0 1-1.63-.84c-.45-.53-.5-1.26-.21-2.17l2.89-6.85h12.9l2.8 6.82c.3.93.25 1.67-.2 2.2-.48.56-1 .84-1.58.84h-.41v.5h10.47v-.5h-.41c-.68 0-1.4-.25-2.15-.74zm-20.77-10.65 5.9-13.97 5.73 13.97z"/><path d="M940.35 308.68c-.6-.58-1.25-1.26-1.97-2.04a84.64 84.64 0 0 1-4.44-5.57c-.55-.78-1.2-1.59-1.97-2.4a6.41 6.41 0 0 0-2.01-1.59 9.33 9.33 0 0 0 4.1-1.43 8.42 8.42 0 0 0 2.84-3.01 8.07 8.07 0 0 0 1.03-3.98c0-1.3-.25-2.46-.72-3.48a7.14 7.14 0 0 0-2.07-2.6c-.9-.72-2-1.26-3.27-1.64a15.38 15.38 0 0 0-4.31-.56h-12.83v.51h.72c.82 0 1.5.26 2.04.77.45.42.72.94.82 1.55v24.92a2.84 2.84 0 0 1-2.86 2.39h-.72v.5h10.47l-.05-.5h-.66c-.82 0-1.5-.27-2.04-.82a2.84 2.84 0 0 1-.87-1.94v-25.78c.2.02.76.01 1.69-.02 1.19-.03 2.58-.01 4.18.05a8.7 8.7 0 0 1 2.76.52c.82.3 1.52.73 2.12 1.27.6.55 1.06 1.2 1.38 1.94.33.75.5 1.6.54 2.56a8.06 8.06 0 0 1-.36 2.9 6.02 6.02 0 0 1-1.97 3.07c-.83.62-1.73.98-2.68 1.1-.95.12-1.9.2-2.86.23-.85.04-1.82.04-2.91 0v.51c.99 0 1.92.35 2.8 1.05.9.7 1.68 1.49 2.36 2.38l.87 1.2 1.58 2.22c.58.81 1.12 1.57 1.6 2.27.5.7.82 1.13.96 1.3.54.65 1.19 1.32 1.93 2.02a9.2 9.2 0 0 0 2.94 1.76c1.21.48 2.75.72 4.63.72h1.58v-.51a5.7 5.7 0 0 1-2.43-.49 7 7 0 0 1-1.94-1.35z"/><path d="M955.22 281.68a3.78 3.78 0 0 1 2.42-.79h.66l.06-.5h-11.6v.5h.72c.95 0 1.76.26 2.42.8a2.57 2.57 0 0 1 1.05 1.96v24.1a2.6 2.6 0 0 1-1.05 1.95 3.7 3.7 0 0 1-2.42.82h-.72v.5h11.6l-.06-.5h-.66a3.7 3.7 0 0 1-2.42-.82 2.6 2.6 0 0 1-1.05-1.94v-24.11c.03-.78.38-1.44 1.05-1.97z"/><path d="M993.11 284.11a16.69 16.69 0 0 0-5.51-3.3 19.42 19.42 0 0 0-6.72-1.14c-2.38 0-4.61.38-6.69 1.14-2.08.77-3.9 1.87-5.5 3.3a15.2 15.2 0 0 0-5.02 11.6 15.2 15.2 0 0 0 5.03 11.6 16.73 16.73 0 0 0 5.49 3.28c2.08.77 4.3 1.15 6.7 1.15 2.37 0 4.61-.38 6.7-1.15 2.1-.76 3.94-1.86 5.52-3.3a15.2 15.2 0 0 0 5.04-11.59 15.2 15.2 0 0 0-5.03-11.6zm-.53 19.15a13.04 13.04 0 0 1-11.7 6.95c-2.48 0-4.75-.61-6.8-1.84a13.21 13.21 0 0 1-4.84-5.1 15.5 15.5 0 0 1-1.8-7.57c0-2.89.6-5.42 1.8-7.58a13.26 13.26 0 0 1 4.85-5.08 12.94 12.94 0 0 1 6.8-1.84 13.04 13.04 0 0 1 11.69 6.92 15.49 15.49 0 0 1 1.79 7.58c0 2.86-.6 5.39-1.79 7.56z"/><path d="m1019.14 298.05-10.32-7.96a6.4 6.4 0 0 1-1.2-1.33c-.29-.45-.5-.9-.61-1.36a5.32 5.32 0 0 1-.18-1.35 4.1 4.1 0 0 1 1.76-3.45 6.92 6.92 0 0 1 4.37-1.4c2 0 3.49.4 4.44 1.2.96.8 1.43 1.9 1.43 3.3h.62l-.06-5.06-.02-.01-.03-.5h-1.7a30.13 30.13 0 0 0-5.04-.46 9.1 9.1 0 0 0-4.26 1 8.04 8.04 0 0 0-3.04 2.67 6.67 6.67 0 0 0-1.13 3.78c0 .89.17 1.83.51 2.81.34 1 1 1.9 1.95 2.71l10.21 7.87c.65.58 1.12 1.2 1.4 1.86.3.66.44 1.4.44 2.22 0 1.67-.6 3-1.81 4.01-1.21 1-2.87 1.54-4.98 1.61-1.5.04-2.81-.23-3.94-.79a5.68 5.68 0 0 1-2.55-2.48 6.9 6.9 0 0 1-.66-3.93h-.62a15.95 15.95 0 0 0-.66 4.52c0 .73.05 1.34.15 1.81.65.55 1.46 1 2.45 1.36 1 .35 2.06.62 3.2.79 1.14.17 2.2.25 3.19.25a9.6 9.6 0 0 0 4.57-1.1 8.73 8.73 0 0 0 3.3-2.98 7.16 7.16 0 0 0 1.17-4.14 9.44 9.44 0 0 0-.61-2.99c-.38-1-.96-1.83-1.74-2.48z"/><path d="m736.3 239.75-33.08-40.7 41.25-36.85h6.27v-1.96h-33.95v1.96h8.89c2.59 0 3.81 3.2 1.88 4.93l-44.37 39.65v-38.39a6.2 6.2 0 0 1 6.2-6.2h4.2v-1.95h-22.76v1.96c1.24 0 2.24 1 2.24 2.24v77.12c0 1.24-1 2.24-2.24 2.24v1.95h22.76v-1.95h-6.14a4.26 4.26 0 0 1-4.26-4.26v-30.4l7.13-6.38 33.36 41.04h-6.89v1.95h31.4v-1.95h-3.38c-3.3 0-6.43-1.49-8.5-4.05zm-36.76-45.23 31.61-28.25a16.02 16.02 0 0 1 10.68-4.07l-39.72 35.49z"/></g></svg>