<svg xmlns="http://www.w3.org/2000/svg" width="1024" height="400" viewBox="0 0 1024 400"><path fill="#13291e" d="M0 0h1024v400H0z"/><g fill="silver"><path d="M303.48 210.07a38.1 38.1 0 0 0-5.84 3.46c-1.88 1.39-3.99 2.84-5.84 4.57a138.13 138.13 0 0 0-3.27 3.21l1.4-2.41c1.9-3.46 3.62-7.03 5.17-10.67 4.12-1.52 8.1-4.72 11.6-9.29 1.5-2.18 2.75-4.5 3.74-6.8a26.88 26.88 0 0 0 1.77-6.9c.1-.72-.64-1.18-1.2-.74a37.66 37.66 0 0 0-4.9 4.64 50.07 50.07 0 0 0-4.74 5.72c-1 1.52-2.01 2.99-2.9 4.46a114.8 114.8 0 0 0 3.97-15.47c.06-.3.1-.6.14-.89.7-1.12 1.42-2.26 2.04-3.43l2.5-4.91c1.8-3.33 3.02-6.81 4.5-10.39-1.38 3.62-2.5 7.15-4.2 10.53l-2.37 5c-.84 1.65-1.8 3.23-2.7 4.8a23.92 23.92 0 0 0 5.23-4.72 35.42 35.42 0 0 0 4.19-6.9 32.6 32.6 0 0 0 2.17-7.43c.5-2.46.54-4.87.32-7.1-.07-.73-.9-1.01-1.34-.47-1.4 1.65-2.55 3.53-3.84 5.57a43.45 43.45 0 0 0-3.36 6.6 46.45 46.45 0 0 0-2.1 5.55c.62-5.68.83-11.4.63-17.11l1.38-4.1 1.4-5.34.7-2.74.52-2.75 1-5.63c-.61 3.84-.97 7.53-1.9 11.2l-1.26 5.4-1.6 5.25a26.21 26.21 0 0 0 4.1-5.72 35.39 35.39 0 0 0 2.63-7.63c.51-2.62.63-5.23.57-7.74-.06-2.5-.62-4.85-1.23-7-.21-.71-1.08-.82-1.4-.2-1 1.92-1.87 4.04-2.57 6.28a51.03 51.03 0 0 0-1.9 7.17c-.44 2.2-.73 4.32-.9 6.37-.14-1.56-.32-3.12-.54-4.68a118.6 118.6 0 0 0-2.5-12.26c.48-3.37.57-6.74.78-10.25.04-1.86-.01-3.71-.04-5.6 0-1.9-.08-3.81-.27-5.7.25 1.89.37 3.79.44 5.7.07 1.9.19 3.75.2 5.61-.12 3.77-.1 7.4-.55 11.04 2.36-3.7 3.74-8.72 3.68-14.48-.12-2.65-.37-5.3-1.08-7.7a32.53 32.53 0 0 0-2.68-6.59c-.39-.63-1.26-.54-1.43.13a47.7 47.7 0 0 0-1.2 6.7 44.55 44.55 0 0 0-.21 3.61 44.62 44.62 0 0 0 .19 7.77c.08 1.18.2 2.33.37 3.44-1.8-5.7-4.04-11.26-6.7-16.62-.78-7-1.98-14.3-4.22-21.42 2.5 7.2 3.92 14.65 4.91 21.79a26.74 26.74 0 0 0 .44-14.91 28.1 28.1 0 0 0-2.71-7.27 34.45 34.45 0 0 0-1.85-3.17c-.7-.95-1.44-1.85-2.2-2.68-.5-.54-1.32-.28-1.35.43-.1 4.23.35 9.14 1.61 14.04a46.17 46.17 0 0 0 2.34 7.43l.28.68a119.84 119.84 0 0 0-10.42-15.35c-2.1-6.96-5.18-13.69-8.8-20.47 3.8 6.69 7.11 13.34 9.42 20.27.24-2.13.22-4.53-.2-7.03a35.5 35.5 0 0 0-2.5-7.68 40.11 40.11 0 0 0-4.2-6.52 33.62 33.62 0 0 0-5.2-4.84c-.6-.44-1.34 0-1.23.7.7 4.28 2.33 8.8 4.52 13.43a53.85 53.85 0 0 0 5.01 8.34 110.9 110.9 0 0 0-5.53-5.92c-.1.02.67.83 2.04 2.47.61.7 1.36 1.54 2.2 2.52a26.73 26.73 0 0 0-6.76-4.3 24.74 24.74 0 0 0-12.98-2.14c-.63.08-.92.9-.49 1.32a26.16 26.16 0 0 0 4.74 3.58 32.35 32.35 0 0 0 5.9 3.14 37.27 37.27 0 0 0 6.89 2.5c2.26.67 4.48 1.13 6.64 1.34-5.96-3.93-12.4-6.92-18.64-9.44a106.93 106.93 0 0 1 18.38 8.54l.08.09c2.74 3.55 6 8.14 9.24 13.75a33.72 33.72 0 0 0-4.36-4.02c-4.05-2.89-8.3-4.51-12.28-4.8-.64-.05-1.1.68-.75 1.17.54.77 1.14 1.52 1.81 2.25.63.77 1.3 1.53 2.04 2.27a60.15 60.15 0 0 0 5.08 4.32c4.12 2.94 8.3 5.28 12.48 6.6-5.21-4.99-10.48-9.5-16.24-13.17 5.5 3.26 10.6 7.3 15.64 11.77a111.55 111.55 0 0 1 6.2 15.22l-.57-.99a35.26 35.26 0 0 0-4.92-5.66 29.55 29.55 0 0 0-2.77-2.05 21.7 21.7 0 0 0-5.63-2.72c-.62-.18-1.22.43-.97.98.7 1.73 1.58 3.5 2.78 5.25 1.2 1.74 2.4 3.56 4.02 5.3a46.67 46.67 0 0 0 10.64 9.1c1.08 4.56 1.92 9.35 2.44 14.32-.5-1.42-1.1-2.83-1.85-4.2a28.44 28.44 0 0 0-4.14-5.67 25.1 25.1 0 0 0-4.96-3.85c-.55-.32-1.28.15-1.18.75.27 1.85.94 3.73 1.61 5.71.67 1.98 1.67 4 2.81 6.05a37.46 37.46 0 0 0 4.01 6.16 35 35 0 0 0 4.3 4.9c.03 2.08 0 4.2-.1 6.32-.13 2.16-.07 4.34-.38 6.52l-.15 1.27a31.03 31.03 0 0 0-.83-3.98 31.94 31.94 0 0 0-2.86-6.42c-1.1-1.89-2.61-3.5-4.03-4.82-.48-.43-1.29-.13-1.3.48-.05 1.87.12 3.85.33 5.93.23 2.08.86 4.27 1.49 6.51a37.4 37.4 0 0 0 2.6 6.87 42.57 42.57 0 0 0 3.07 5.56 76.61 76.61 0 0 1-1.96 8.33c-.46 1.64-.96 3.28-1.48 4.91.08-1.15.08-2.32-.06-3.52a28.77 28.77 0 0 0-1.38-6.87c-.81-2.1-1.8-3.98-2.94-5.57-.37-.52-1.22-.4-1.38.2-.52 1.79-.65 3.79-.89 5.86-.2 2.08-.2 4.3.06 6.67.2 4.77 1.4 9.41 2.83 13.27a98.46 98.46 0 0 1-5.18 10.39l-.96 1.63c.28-1.03.52-2.1.64-3.21.3-2.48.46-4.77.11-7a25.07 25.07 0 0 0-1.63-6.07c-.25-.59-1.11-.65-1.4-.1a28.66 28.66 0 0 0-2.12 5.53 32.23 32.23 0 0 0-1.42 6.51 45 45 0 0 0-.1 13.4 118.92 118.92 0 0 1-8.44 10.44c.44-.91.84-1.86 1.21-2.83 1.81-4.58 2-9.27 1.32-13.09-.11-.62-.94-.87-1.34-.4a26.3 26.3 0 0 0-3.26 4.96 32.19 32.19 0 0 0-2.8 6.05 47.22 47.22 0 0 0-2.1 7.02c-.38 2.12-.69 4.1-.83 6.02-3.3 2.94-6.75 5.65-10.26 8.14a35.5 35.5 0 0 0 1.57-2.21 24.38 24.38 0 0 0 4.07-12.5c.03-.64-.73-1.06-1.22-.69a25 25 0 0 0-4.24 4.16 32.12 32.12 0 0 0-4.03 5.3c-1.32 2.18-2.6 4.2-3.54 6.42a44.5 44.5 0 0 0-1.28 3.28c-.3.77-.55 1.54-.79 2.31l-4.6 2.52c-1.83.98-3.74 1.74-5.57 2.6-.5.24-1 .45-1.5.68.65-.55 1.28-1.12 1.88-1.75a24.38 24.38 0 0 0 6.66-11.33c.16-.62-.5-1.19-1.05-.93-1.7.78-3.38 1.83-5.04 3.14-1.7 1.2-3.42 2.6-5.06 4.32a56.64 56.64 0 0 0-7.99 10.32 93.7 93.7 0 0 1-12.62 2.6c.71-.32 1.41-.67 2.1-1.07a22.8 22.8 0 0 0 9.17-9.27c.29-.58-.2-1.27-.78-1.15a41.2 41.2 0 0 0-11.44 4.58 65.7 65.7 0 0 0-6.21 4.06 22.35 22.35 0 0 0-4.34 4.14l-.9.14c-3.16.51-6.12 1.2-8.87 2.03a75.4 75.4 0 0 0-9.68-2.16l-.36-.05a22.37 22.37 0 0 0-4.3-4.1 65.7 65.7 0 0 0-6.21-4.06 41.2 41.2 0 0 0-11.44-4.58c-.58-.12-1.07.57-.78 1.15a22.8 22.8 0 0 0 9.16 9.27c.65.38 1.31.71 1.98 1.02-2.14-.3-4.27-.63-6.39-1.05a99.47 99.47 0 0 1-6.09-1.47 56.58 56.58 0 0 0-8-10.35 34.52 34.52 0 0 0-5.06-4.32 24.77 24.77 0 0 0-5.04-3.14c-.55-.26-1.2.31-1.05.93.99 3.7 3.09 7.96 6.66 11.33.64.67 1.32 1.28 2.02 1.86l-.84-.36c-3.74-1.62-7.4-3.46-10.95-5.48-.24-.79-.5-1.58-.8-2.38a44.5 44.5 0 0 0-1.3-3.28c-.94-2.21-2.2-4.24-3.53-6.41a32.11 32.11 0 0 0-4.03-5.3 25 25 0 0 0-4.24-4.17c-.49-.37-1.25.05-1.23.69a24.38 24.38 0 0 0 4.08 12.5c.58.89 1.2 1.74 1.83 2.56a115.51 115.51 0 0 1-10.5-8.29 55.17 55.17 0 0 0-.86-6.22 47.22 47.22 0 0 0-2.1-7.02 32.2 32.2 0 0 0-2.79-6.05 26.3 26.3 0 0 0-3.26-4.97c-.4-.46-1.23-.21-1.34.41a24.32 24.32 0 0 0 1.32 13.09c.44 1.17.92 2.34 1.5 3.41-3.15-3.35-6.08-6.9-8.8-10.61.6-4.12.79-9-.03-13.8a32.23 32.23 0 0 0-1.42-6.52c-.59-2.01-1.24-3.9-2.12-5.54-.29-.54-1.15-.48-1.4.11a25.07 25.07 0 0 0-1.63 6.06c-.36 2.24-.19 4.53.11 7 .17 1.5.5 2.92.95 4.27L90 218.03c-1.93-3.4-3.66-6.9-5.23-10.48a44.63 44.63 0 0 0 2.95-13.6c.25-2.36.27-4.6.06-6.67-.24-2.07-.37-4.07-.9-5.87-.15-.58-1-.7-1.37-.19a25.33 25.33 0 0 0-2.94 5.57 28.76 28.76 0 0 0-1.38 6.87c-.2 1.68-.12 3.3.08 4.87a113.34 113.34 0 0 1-4-14.93l-.17-.98c.21-1.24.42-2.46.72-3.68l1.35-5.14c.79-3.35 2.16-6.65 3.26-9.8-1 3.19-2.26 6.5-2.94 9.88l-1.2 5.15c-.35 1.74-.55 3.48-.83 5.26a40.53 40.53 0 0 0 3.3-5.9 37.4 37.4 0 0 0 2.6-6.87c.63-2.25 1.26-4.44 1.5-6.52.2-2.08.37-4.06.33-5.93-.03-.6-.83-.91-1.3-.48a21.62 21.62 0 0 0-4.04 4.82 31.94 31.94 0 0 0-2.86 6.42 30.53 30.53 0 0 0-1 5.45c-.66-5.54-.92-11.13-.78-16.72l1.63-3.84 2.41-4.73 1.2-2.3 1.35-2.24 2.68-4.36c-1.6 2.91-3.54 5.88-4.94 9.04l-2.25 4.78-1.94 4.96c1.6-1.47 3.1-3.18 4.48-5.07a37.46 37.46 0 0 0 4-6.16 36.91 36.91 0 0 0 2.81-6.05c.68-1.98 1.35-3.86 1.62-5.7.1-.6-.63-1.08-1.18-.76a25.1 25.1 0 0 0-4.96 3.85 28.44 28.44 0 0 0-4.14 5.66 27.64 27.64 0 0 0-2.42 6.07c.13-1.63.3-3.26.5-4.89.56-4.13 1.36-8.24 2.36-12.29 1.84-2.74 4-5.29 5.96-7.8 1.14-1.32 2.35-2.6 3.51-3.86a48.66 48.66 0 0 1 3.6-3.65 48.6 48.6 0 0 0-3.48 3.75c-1.1 1.3-2.29 2.6-3.37 3.97-2.05 2.76-4.31 5.58-6.15 8.63a46.67 46.67 0 0 0 10.72-9.14c1.62-1.74 2.82-3.56 4.02-5.3a27.13 27.13 0 0 0 2.77-5.25c.26-.55-.34-1.16-.97-.98a21.7 21.7 0 0 0-5.62 2.72c-.93.6-1.87 1.3-2.78 2.05a33.05 33.05 0 0 0-4.9 5.66c-.6.95-1.1 1.91-1.57 2.88a117.1 117.1 0 0 1 6.41-16.42c5.3-4.75 10.63-9.03 16.42-12.46-5.77 3.66-11.03 8.18-16.24 13.17 4.17-1.32 8.36-3.66 12.48-6.6a60.15 60.15 0 0 0 5.08-4.32c.74-.74 1.41-1.5 2.04-2.27.67-.73 1.27-1.48 1.8-2.25.36-.5-.1-1.22-.74-1.17-3.98.29-8.23 1.91-12.28 4.8a30.1 30.1 0 0 0-5.45 5.33l-.24.35A119.4 119.4 0 0 1 99.52 91.2c6.11-3.75 12.64-6.55 18.96-8.87-6.24 2.52-12.68 5.5-18.64 9.44 2.16-.2 4.38-.67 6.64-1.33 2.33-.6 4.65-1.43 6.9-2.51 2.2-.91 4.16-1.96 5.89-3.14 1.8-1.1 3.4-2.27 4.73-3.58.44-.43.14-1.24-.49-1.32-3.84-.44-8.49.07-12.97 2.13a26.6 26.6 0 0 0-7.76 5.22c1.7-2 3.47-3.95 5.32-5.82-.02-.1-.9.61-2.37 2.16-.65.66-1.44 1.45-2.33 2.4a55.46 55.46 0 0 0 4.1-7.06c2.2-4.63 3.82-9.15 4.52-13.44.11-.7-.64-1.13-1.23-.7a33.62 33.62 0 0 0-5.2 4.85c-1.56 1.96-3 4.16-4.2 6.52a35.5 35.5 0 0 0-2.5 7.68c-.42 2.5-.44 4.9-.2 7.03 2.3-6.93 5.61-13.58 9.41-20.27-3.5 6.58-6.5 13.1-8.6 19.84l-.05.07c-2.9 3.52-6.34 8.12-9.74 13.8.7-1.87 1.34-3.84 1.8-6a52.08 52.08 0 0 0 1.6-14.04c-.02-.7-.85-.97-1.34-.43-.76.83-1.5 1.73-2.2 2.68-.66 1-1.27 2.06-1.85 3.17a28.1 28.1 0 0 0-2.71 7.27 26.74 26.74 0 0 0 .43 14.9c1-7.13 2.43-14.57 4.92-21.78a111.67 111.67 0 0 0-4.11 20.45 110.05 110.05 0 0 0-6.56 15.5l.12-1.35a40.28 40.28 0 0 0 .19-7.77 44.56 44.56 0 0 0-.2-3.6 47.71 47.71 0 0 0-1.21-6.7c-.17-.68-1.04-.77-1.43-.14a32.53 32.53 0 0 0-2.68 6.6 32.38 32.38 0 0 0-1.08 7.69c-.06 5.71 1.3 10.7 3.63 14.38-1.14 4.58-2.04 9.4-2.62 14.41-.17-1.48-.4-2.99-.71-4.54a51.04 51.04 0 0 0-1.9-7.17 38.05 38.05 0 0 0-2.57-6.27c-.33-.63-1.19-.52-1.4.18-.6 2.16-1.17 4.5-1.23 7.01-.06 2.51.05 5.12.57 7.74a35.39 35.39 0 0 0 2.62 7.63 26.3 26.3 0 0 0 3.9 5.5c-.04 2.13-.03 4.29.04 6.46.13 2.2.05 4.42.34 6.63l.14 1.24a46.28 46.28 0 0 0-1.54-3.84 43.45 43.45 0 0 0-3.36-6.6c-1.29-2.04-2.45-3.92-3.84-5.57-.45-.54-1.27-.26-1.34.47-.22 2.23-.19 4.64.32 7.1a32.6 32.6 0 0 0 2.17 7.43 35.42 35.42 0 0 0 4.19 6.9c1.47 1.83 3.2 3.3 4.88 4.48.52 2.84 1.1 5.7 1.94 8.5.48 1.78 1 3.56 1.57 5.33-.7-1.08-1.44-2.17-2.18-3.29a50.06 50.06 0 0 0-4.73-5.72 37.66 37.66 0 0 0-4.91-4.64c-.56-.44-1.3.02-1.2.75.34 2.21.76 4.59 1.77 6.89.99 2.3 2.24 4.62 3.73 6.8 3.38 4.4 7.2 7.52 11.16 9.1a100.4 100.4 0 0 0 5.24 10.68l1.1 1.9c-.84-.83-1.7-1.67-2.6-2.52-1.84-1.73-3.95-3.18-5.84-4.57a38.11 38.11 0 0 0-5.83-3.46c-.64-.3-1.26.3-1 .99.8 2.09 1.8 4.28 3.2 6.35a40.19 40.19 0 0 0 5.15 5.82c4.2 3.57 8.6 5.79 12.8 6.49 2.68 3.77 5.56 7.36 8.62 10.76-.9-.58-1.8-1.18-2.78-1.73-4.51-2.45-8.9-4.37-13.12-5.34-.7-.16-1.17.57-.77 1.18a33.47 33.47 0 0 0 4.49 5.52c1.87 1.66 3.99 3.22 6.27 4.57a30.44 30.44 0 0 0 7.53 2.95c2.11.57 4.22.74 6.19.67 3.46 3.12 7.08 6 10.77 8.64-.96-.38-1.94-.75-2.97-1.07-4.94-1.42-9.62-2.38-13.97-2.41-.7 0-1.02.8-.5 1.31a35.13 35.13 0 0 0 5.56 4.44c2.2 1.22 4.6 2.3 7.12 3.12a29.51 29.51 0 0 0 11.59 1.15c.87-.13 1.7-.3 2.5-.51l4.71 2.6c1.87 1.02 3.82 1.8 5.7 2.7l1.66.77c-.9-.13-1.82-.26-2.75-.36-5.14-.31-9.9-.3-14.17.63-.7.15-.83 1-.2 1.4 1.89 1.18 4.05 2.25 6.38 3.13 2.39.76 4.98 1.26 7.62 1.53 5.34.56 10.25-.56 13.9-2.44a96.81 96.81 0 0 0 13 2.75l-2.43.39a60.24 60.24 0 0 0-13.67 4.12c-.65.29-.57 1.18.14 1.42a29.35 29.35 0 0 0 14.96.98 26.45 26.45 0 0 0 7.56-2.57 49.74 49.74 0 0 0 4.87-2.98l.86.13c1.54.26 3.03.57 4.46.91a47.14 47.14 0 0 0-8.72 4.6 36.27 36.27 0 0 0-7.35 6.61c-.73.89-1.22 1.64-1.59 2.1-.35.49-.56.73-.56.73l2.9 1.84a31.73 31.73 0 0 1 5.74-6.6 37.67 37.67 0 0 1 7.42-4.87 48.76 48.76 0 0 1 7.26-2.97 45.18 45.18 0 0 1 11.85 5.73 31.8 31.8 0 0 1 6.58 6.1c1.23 1.66 1.8 2.6 1.8 2.6l2.9-1.83a35.08 35.08 0 0 0-6.5-7.29 40.93 40.93 0 0 0-8.12-5.22 48.79 48.79 0 0 0-3.39-1.51c1.6-.38 3.2-.7 4.82-.97l.34-.06a49.9 49.9 0 0 0 4.81 2.95 26.45 26.45 0 0 0 7.57 2.57c5.3 1 10.63.55 14.96-.98.7-.24.79-1.13.14-1.42a60.24 60.24 0 0 0-16.14-4.51c2.26-.33 4.52-.71 6.76-1.18 2.1-.46 4.18-.99 6.25-1.58a25 25 0 0 0 13.92 2.45c2.65-.27 5.24-.77 7.63-1.53a35.4 35.4 0 0 0 6.39-3.14c.62-.39.48-1.24-.21-1.39-4.27-.92-9.03-.94-14.17-.63-1 .11-1.99.24-2.96.39l1.02-.46c3.79-1.69 7.48-3.6 11.07-5.69.86.23 1.75.42 2.69.56a29.51 29.51 0 0 0 11.6-1.15c2.51-.83 4.92-1.9 7.1-3.12a35.13 35.13 0 0 0 5.57-4.44c.52-.51.2-1.32-.5-1.31-4.35.03-9.03 1-13.97 2.41-1.2.37-2.33.8-3.43 1.24 3.83-2.72 7.5-5.66 10.97-8.82 2.04.1 4.24-.07 6.45-.66 2.4-.64 5.05-1.52 7.52-2.95 2.29-1.35 4.4-2.9 6.28-4.57a33.47 33.47 0 0 0 4.5-5.52c.4-.61-.09-1.34-.78-1.18-4.22.97-8.61 2.9-13.13 5.34-1.2.67-2.28 1.41-3.37 2.12l-.04.03a114 114 0 0 0 9.02-11.14c4.27-.65 8.75-2.9 13.04-6.53a40.18 40.18 0 0 0 5.14-5.82 31.14 31.14 0 0 0 3.21-6.35c.26-.69-.36-1.3-1-.99zm-9.74-83.13c-1.09-1.36-2.26-2.67-3.37-3.97a48.6 48.6 0 0 0-3.48-3.75 48.67 48.67 0 0 1 3.6 3.65c1.16 1.26 2.36 2.54 3.5 3.87 1.76 2.23 3.66 4.5 5.35 6.9l.45 1.78c-1.82-2.99-4.03-5.76-6.05-8.48zm7.35 27.97-2.26-4.78c-1.39-3.16-3.32-6.13-4.93-9.04l2.68 4.36 1.35 2.23 1.2 2.3 2.4 4.74 1.26 2.93.05 1.73zm-1 24.12-1.2-5.15c-.68-3.38-1.94-6.7-2.94-9.88 1.1 3.15 2.47 6.45 3.26 9.8l1.35 5.13c.22.92.4 1.84.56 2.76-.1.58-.22 1.15-.33 1.73-.21-1.48-.41-2.94-.7-4.39zm8.36 11.36c-4.08 6.45-8.35 12.44-13.3 17.71.23-.55.48-1.1.7-1.65a120.5 120.5 0 0 0 12.6-16.06zm-15.26-3.57c.8 5.83 1.37 11.97 1.22 18.22l-.68 1.61c.51-6.77.13-13.47-.54-19.83zM76.53 124.19c.01-1.86.13-3.72.2-5.62.06-1.9.2-3.8.44-5.69-.2 1.89-.27 3.8-.28 5.7-.02 1.89-.07 3.74-.04 5.6.2 3.13.3 6.15.64 9.16-.14.55-.3 1.1-.43 1.66-.43-3.57-.42-7.12-.53-10.81zm-4.23 30.4-1.26-5.4c-.93-3.67-1.29-7.36-1.9-11.2l1 5.63.52 2.75.7 2.74 1.4 5.33 1.02 3.04-.07 1.76-1.41-4.66zm1.04 25.18-2.36-5.01c-1.7-3.38-2.84-6.91-4.2-10.53 1.47 3.58 2.69 7.06 4.49 10.39l2.5 4.91c.47.89 1 1.75 1.52 2.6l.3 1.67c-.76-1.32-1.55-2.66-2.25-4.03zm11.86 7.05c-.7 6.58-1.09 13.54-.49 20.56-.23-.53-.48-1.06-.7-1.6-.21-6.5.35-12.9 1.19-18.96zm-15.26 3.57a122.88 122.88 0 0 0 11.98 15.42c.2.52.42 1.03.63 1.54-4.65-5.1-8.72-10.81-12.6-16.96zm59.42 67.3-3.08-4.3c-1.9-2.97-3.7-5.9-5.3-8.88 1.7 2.93 3.58 5.8 5.57 8.7l3.18 4.17 1.65 2.12.69.77c-.5-.28-.97-.58-1.46-.87zm-20.8-20.01c1.34 2.78 2.6 5.77 4.16 8.54-.45-.4-.88-.82-1.32-1.22-1.14-2.39-2.1-4.87-3.13-7.19a138.46 138.46 0 0 1-3.3-9.8c1.06 3.2 2.25 6.44 3.6 9.67zM94 218.75c-.55-3.45-.86-6.92-1.15-10.26.4 3.32.8 6.78 1.47 10.2.73 3.17 1.35 6.53 2.38 9.73l-1.05-1.48c-.67-2.73-1.12-5.53-1.65-8.19zm-7.04 4.32c-2.83-2.43-5.5-5.08-8.23-7.8 2.8 2.64 5.55 5.2 8.43 7.54 2.23 1.68 4.3 3.39 6.52 4.93.3.46.63.9.95 1.35-2.66-1.84-5.08-3.94-7.67-6.02zm15.36 20.46c-3.25-1.8-6.48-3.77-9.7-5.88 3.27 2.02 6.56 3.89 9.84 5.59 2.44 1.1 4.74 2.27 7.11 3.28.4.39.81.76 1.22 1.13-2.87-1.21-5.58-2.7-8.47-4.12zm24.76 18.1-5.4-1.38a150.93 150.93 0 0 1-10.7-3.69c3.6 1.3 7.23 2.38 10.78 3.38l5.42 1.21 2.05.45c.47.29.94.57 1.43.84l-.93-.16-2.65-.65zm20.13 3.15c-2.46-2.56-4.89-4.94-7.07-7.56 2.26 2.54 4.76 4.85 7.28 7.32a77.9 77.9 0 0 0 6.72 5.44l-1.53-.45c-1.9-1.52-3.7-3.1-5.4-4.75zm-3.03 7.69c-3.67-.38-7.48-.69-11.25-1.34 3.78.55 7.6.73 11.26 1.01 2.54.1 5.04.08 7.5-.05l1.57.5c-2.98.12-6 .09-9.08-.12zm17.16-7.3a86.94 86.94 0 0 0 8.86 5.11c2.37 1.21 5.1 2.34 7.68 3.62l-1.63-.19c-2.11-1.07-4.26-2.08-6.2-3.14a86.08 86.08 0 0 1-8.71-5.4zm7.85 13.62a99.44 99.44 0 0 1-11.3 1.67 98.22 98.22 0 0 0 11.22-1.99c2.43-.56 4.66-1.23 6.91-1.83l1.58.2c-2.75.58-5.42 1.34-8.4 1.95zm39.02-8.5a86.93 86.93 0 0 0 8.86-5.12 86.08 86.08 0 0 1-8.72 5.4c-1.96 1.08-4.14 2.1-6.28 3.18-.54.06-1.08.12-1.62.2 2.62-1.3 5.36-2.45 7.76-3.67zm12.3 10.17a99.44 99.44 0 0 1-11.3-1.67c-2.93-.6-5.55-1.34-8.26-1.92l1.53-.2c2.22.59 4.42 1.25 6.82 1.8 3.63.86 7.37 1.54 11.22 1.99zm10.48-15.92c2.52-2.47 5.02-4.78 7.28-7.32-2.18 2.62-4.61 5-7.07 7.56a77.52 77.52 0 0 1-5.32 4.68l-1.56.49a77.88 77.88 0 0 0 6.67-5.41zm3.23 7.6c3.66-.28 7.48-.46 11.26-1.01-3.77.65-7.58.96-11.25 1.34-3.1.21-6.16.24-9.16.11l1.6-.49c2.48.13 5 .16 7.55.05zm49.87-53.45c.67-3.42 1.07-6.88 1.47-10.2-.29 3.34-.6 6.8-1.15 10.26-.49 2.41-.9 4.95-1.47 7.44l-.98 1.39c.88-2.94 1.47-6 2.13-8.9zm-14.26 18.99c1.35-3.23 2.54-6.47 3.6-9.67-.96 3.24-2.06 6.51-3.3 9.8-1 2.23-1.92 4.6-3 6.9-.4.38-.82.75-1.24 1.13 1.47-2.67 2.67-5.51 3.94-8.16zm-21.17 19.7 3.2-4.18c1.98-2.9 3.86-5.76 5.56-8.69-1.6 2.99-3.4 5.91-5.3 8.88l-3.08 4.3-1.2 1.65c-.47.29-.95.57-1.42.83l.6-.67 1.64-2.12zm2.57 3.77 5.42-1.21c3.55-1 7.19-2.08 10.79-3.38-3.57 1.4-7.18 2.6-10.72 3.69l-5.4 1.38-2.64.65-1.35.24 1.37-.82zm24.72-17.91c3.28-1.7 6.57-3.57 9.83-5.59-3.21 2.1-6.44 4.08-9.7 5.88-3.04 1.5-5.9 3.08-8.96 4.33.4-.36.77-.73 1.15-1.1 2.58-1.06 5.05-2.33 7.68-3.52zm15.5-20.17c-2.73 2.2-5.27 4.4-8.1 6.32.33-.45.64-.9.96-1.36 2.36-1.62 4.57-3.43 6.94-5.22 2.88-2.34 5.63-4.9 8.43-7.55-2.73 2.73-5.4 5.38-8.23 7.8z"/><path d="M252.42 69.89a39.82 39.82 0 0 0 5.23 4.69 39.15 39.15 0 0 0 6.25 4.17 31.9 31.9 0 0 0 6.2 2.86 120.7 120.7 0 0 0-16.41-14.03c5.97 4.04 11.69 8.5 16.86 13.58a27.9 27.9 0 0 0-3.29-6.17 33.91 33.91 0 0 0-5.52-5.64 34.12 34.12 0 0 0-6.35-3.8 29.9 29.9 0 0 0-6.36-1.82c-.66-.1-1.1.64-.73 1.2a31.1 31.1 0 0 0 4.12 4.96z"/><path d="M107.83 81.16c5.18-5.07 10.9-9.54 16.87-13.58a120.7 120.7 0 0 0-16.4 14.03 31.9 31.9 0 0 0 6.18-2.86c2.15-1.11 4.2-2.55 6.25-4.17a39.82 39.82 0 0 0 5.24-4.7 31.1 31.1 0 0 0 4.12-4.95c.37-.56-.07-1.3-.73-1.2a29.9 29.9 0 0 0-6.36 1.82 34.13 34.13 0 0 0-6.35 3.8 33.92 33.92 0 0 0-5.52 5.64 27.9 27.9 0 0 0-3.3 6.17z"/><path d="M180.4 111.93h5.78v-2.7h-31.32v2.7c1.7 0 3.09 1.38 3.09 3.08v106.11c0 1.7-1.38 3.08-3.09 3.08v2.7h31.32v-2.7h-8.45a5.86 5.86 0 0 1-5.86-5.86v-41.83l9.81-8.77 45.9 56.46h-9.48v2.7h43.21v-2.7h-4.66c-4.54 0-8.84-2.04-11.7-5.56l-45.52-56 56.75-50.71h8.62v-2.7h-46.7v2.7h12.23c3.56 0 5.25 4.4 2.58 6.78l-61.04 54.55v-52.8c0-4.72 3.81-8.53 8.52-8.53zm57.46 5.6a22.05 22.05 0 0 1 14.7-5.6l-54.65 48.83-3.55-4.36z"/><path d="M130.11 88.65h26.65v3.4h-26.65z"/><path d="M133.83 94.21h19.21v3.4h-19.21z"/><path d="M130.11 241.45h26.65v3.4h-26.65z"/><path d="M133.83 235.89h19.21v3.4h-19.21z"/><path d="M141.64 100.62h3.4v132.27h-3.4z"/><path d="M147.55 100.62h3.4v132.27h-3.4z"/><path d="M135.73 100.62h3.4v132.27h-3.4z"/><path d="M416.9 220.71a31.5 31.5 0 0 0-13.53-12.61c-5.85-2.93-12.8-4.39-20.83-4.39h-40.7v1.22h1.46c1.95 0 3.6.63 4.93 1.89a6.72 6.72 0 0 1 2.13 4.81v57.28a7.01 7.01 0 0 1-2.07 4.69 6.51 6.51 0 0 1-4.87 2.01h-1.59v1.22h40.7c8.05 0 15-1.48 20.84-4.45a31.98 31.98 0 0 0 13.53-12.61c3.17-5.44 4.75-11.95 4.75-19.5 0-7.56-1.58-14.07-4.75-19.56zm-12.13 43.63c-5.4 5.89-12.81 8.83-22.23 8.83h-24.25v-65.8h24.25c9.42 0 16.83 2.94 22.23 8.83 5.4 5.9 8.1 13.92 8.1 24.07 0 10.16-2.7 18.18-8.1 24.07z"/><path d="M451.01 276.83h32.9l6.7-17.43h-1.21a35.55 35.55 0 0 1-4.02 7.01 15.88 15.88 0 0 1-6.03 4.87c-2.48 1.18-5.75 1.77-9.81 1.77H451V242.1h20.72c1.7 0 2.96.5 3.78 1.52a5.59 5.59 0 0 1 1.22 3.6v1.58h1.34v-17.06h-1.34v1.58c0 1.39-.41 2.58-1.22 3.6-.82 1.02-2.07 1.52-3.78 1.52h-20.72V207.5h25.23c1.87 0 3.35.6 4.45 1.83a6.33 6.33 0 0 1 1.64 4.38v1.83h1.34v-13.77c-1.05.4-3 .84-5.85 1.28-2.84.45-5.52.67-8.04.67h-35.34v1.22h1.7c2.04 0 3.7.6 5 1.83a6.5 6.5 0 0 1 2.07 4.63v57.64a6.8 6.8 0 0 1-2.07 4.63 6.77 6.77 0 0 1-5 1.95h-1.7v1.22h16.57z"/><path d="M533.33 275.91a20.8 20.8 0 0 0 7.86-7.12c1.95-3 2.88-6.3 2.8-9.88a22.62 22.62 0 0 0-1.46-7.12c-.9-2.4-2.28-4.37-4.15-5.91l-24.61-19.01a15.48 15.48 0 0 1-2.87-3.17 10.83 10.83 0 0 1-1.46-3.23c-.28-1.1-.43-2.17-.43-3.23-.08-3.25 1.33-6 4.2-8.23 2.9-2.23 6.37-3.35 10.43-3.35 4.8 0 8.33.96 10.6 2.87 2.27 1.9 3.41 4.53 3.41 7.86h1.47l-.13-12.07-.05-.02-.07-1.2h-4.06l-1.6-.3a64.11 64.11 0 0 0-10.42-.8c-3.74 0-7.13.8-10.18 2.38a19.16 19.16 0 0 0-7.25 6.4 15.89 15.89 0 0 0-2.68 9.02c0 2.11.4 4.35 1.22 6.7.8 2.36 2.35 4.5 4.63 6.46l24.37 18.77a13 13 0 0 1 3.35 4.44 13.15 13.15 0 0 1 1.04 5.3c0 3.99-1.45 7.17-4.33 9.57-2.88 2.4-6.84 3.68-11.88 3.84a19.7 19.7 0 0 1-9.38-1.9 13.6 13.6 0 0 1-6.1-5.9c-1.38-2.6-1.9-5.73-1.58-9.38h-1.46c-.5 1.54-.88 3.29-1.16 5.24-.29 1.95-.43 3.8-.43 5.54 0 1.75.12 3.19.37 4.33 1.54 1.3 3.49 2.37 5.85 3.23 2.35.85 4.89 1.48 7.61 1.89 2.72.4 5.26.6 7.62.6 3.98 0 7.62-.87 10.9-2.62z"/><path d="M638.91 240.27a37.3 37.3 0 0 0-3.16-15.54 36.34 36.34 0 0 0-8.84-12.12 39.81 39.81 0 0 0-13.16-7.86 46.3 46.3 0 0 0-16.03-2.74c-5.68 0-11 .91-15.96 2.74a39.95 39.95 0 0 0-13.1 7.86 36.37 36.37 0 0 0-8.83 12.12 37.3 37.3 0 0 0-3.17 15.54 37.3 37.3 0 0 0 3.17 15.54 36.36 36.36 0 0 0 8.83 12.12 39.97 39.97 0 0 0 13.1 7.86 45.76 45.76 0 0 0 15.96 2.74c5.7 0 11.03-.9 16.03-2.74 5-1.83 9.38-4.45 13.16-7.86a36.33 36.33 0 0 0 8.84-12.12 37.3 37.3 0 0 0 3.16-15.54zm-13.28 18.04a31.11 31.11 0 0 1-27.9 16.57 30.9 30.9 0 0 1-16.21-4.39 31.55 31.55 0 0 1-11.58-12.18c-2.84-5.2-4.26-11.22-4.26-18.04 0-6.9 1.42-12.94 4.26-18.1 2.84-5.15 6.7-9.2 11.58-12.12a30.9 30.9 0 0 1 16.2-4.39c6.02 0 11.46 1.46 16.33 4.39a31.67 31.67 0 0 1 11.58 12.12c2.84 5.16 4.27 11.2 4.27 18.1 0 6.82-1.43 12.84-4.27 18.04z"/><path d="M799.28 210.17a5.2 5.2 0 0 1 1.83-3.72 5.84 5.84 0 0 1 4.02-1.52h1.83v-1.22H786v1.22h1.82c1.63 0 3 .5 4.15 1.52a4.8 4.8 0 0 1 1.7 3.72v40.95c0 7.47-2.21 13.36-6.64 17.67-4.43 4.3-10.5 6.45-18.22 6.45-6.98 0-12.49-2.27-16.5-6.82-4.03-4.55-6.04-10.76-6.04-18.64v-39.6c0-1.47.59-2.71 1.77-3.73a6.07 6.07 0 0 1 4.08-1.52h1.83v-1.22h-23.16v1.22h1.83c1.63 0 2.99.5 4.08 1.52a5.3 5.3 0 0 1 1.77 3.72v41.07c0 8.45 2.74 15.1 8.23 19.98 5.48 4.88 12.9 7.31 22.24 7.31 9.42 0 16.83-2.45 22.24-7.37 5.4-4.91 8.1-11.6 8.1-20.04v-40.95z"/><path d="M871.1 236.43c2.08-3.29 3.12-7.25 3.12-11.88 0-4.3-1.14-8.02-3.42-11.15-2.27-3.13-5.48-5.52-9.62-7.19-4.14-1.66-9.06-2.5-14.75-2.5h-28.51v1.22h1.7c1.95 0 3.6.6 4.94 1.83a6.39 6.39 0 0 1 2.13 4.63v57.64a6.68 6.68 0 0 1-2.13 4.63 6.82 6.82 0 0 1-4.94 1.95h-1.7v1.22h25.22v-1.22h-1.7c-1.95 0-3.6-.65-4.94-1.95a6.7 6.7 0 0 1-2.01-3.75v-62.54h11.7c6.01 0 10.72 1.42 14.14 4.26 3.4 2.85 5.11 6.75 5.11 11.7 0 1.06-.06 2.2-.18 3.41a13.27 13.27 0 0 1-.67 3.17c-1.22 3.5-2.86 6.18-4.94 8.05a17.04 17.04 0 0 1-6.64 3.83c-2.35.7-4.59 1.06-6.7 1.1-2.11.04-4.5-.18-7.19-.67v1.22a28.65 28.65 0 0 0 12.43 3.1c4.14.05 7.92-.8 11.34-2.55a20.73 20.73 0 0 0 8.22-7.56z"/><path d="M959.03 275.61a9.36 9.36 0 0 1-5.12-1.77c-1.8-1.17-3.3-3.15-4.51-5.9h-.04L919.54 202h-1.1c-.07.8-.36 1.9-.85 3.29a67.5 67.5 0 0 1-1.64 4.2 229 229 0 0 1-2.26 5.06l-25.41 54.47a12.91 12.91 0 0 1-4.08 4.81 9.53 9.53 0 0 1-5.24 1.77H878v1.22h23.27v-1.22h-.97c-1.46 0-2.76-.67-3.9-2.01-1.03-1.2-1.22-2.86-.6-4.95l7-16.56h30.79l6.78 16.54c.63 2.1.44 3.76-.59 4.97-1.14 1.34-2.4 2.01-3.77 2.01h-.98v1.22H960v-1.22h-.97zm-54.7-27.18 14.08-33.3 13.67 33.3z"/><path d="M349.62 165.71h16.35l-.12-1.15h-1.5a8.34 8.34 0 0 1-5.46-1.84 5.87 5.87 0 0 1-2.36-4.38v-54.35a5.8 5.8 0 0 1 2.36-4.43 8.52 8.52 0 0 1 5.47-1.79h1.5l.1-1.15h-26.13v1.15h1.61c2.15 0 3.97.6 5.47 1.79a5.8 5.8 0 0 1 2.36 4.43v54.35a5.88 5.88 0 0 1-2.36 4.38 8.34 8.34 0 0 1-5.47 1.84h-1.61v1.15z"/><path d="M384.85 165.71h13.13v-1.15h-1.96a6.39 6.39 0 0 1-4.43-1.73 5.53 5.53 0 0 1-1.9-4.26h-.01l-.09-48.09 59.98 56.84h1.03a103.9 103.9 0 0 1-1.04-14.74v-48.82c0-1.69.64-3.11 1.9-4.26a6.38 6.38 0 0 1 4.44-1.73h1.96v-1.15h-21.77v1.15h1.96a6.32 6.32 0 0 1 6.45 5.99v47.55L384.62 94.9h-1.15c.69 5.68 1.04 10.48 1.04 14.4v49.28c0 1.69-.62 3.11-1.85 4.26a6.33 6.33 0 0 1-4.49 1.73h-1.95v1.15h8.63z"/><path d="M467.07 99.44c1.69 1.11 3.11 2.98 4.26 5.59h.04l28.17 62.3h1.04c.08-.78.34-1.81.8-3.12.46-1.3.98-2.63 1.56-3.97.58-1.34 1.29-2.94 2.13-4.78l24-51.46c1.12-2.08 2.4-3.6 3.87-4.56a9 9 0 0 1 4.95-1.67h.92v-1.15h-21.88v1.15h.8c1.39 0 2.62.63 3.7 1.9.96 1.14 1.14 2.7.55 4.69l-21.36 50.57-20.68-50.4c-.6-2.06-.42-3.68.55-4.86 1.03-1.27 2.2-1.9 3.5-1.9h.93v-1.15h-23.6v1.15h.91c1.54 0 3.15.56 4.84 1.67z"/><path d="M554.36 165.71h16.35l-.12-1.15h-1.5a8.34 8.34 0 0 1-5.46-1.84 5.87 5.87 0 0 1-2.37-4.38v-54.35a5.8 5.8 0 0 1 2.37-4.43 8.52 8.52 0 0 1 5.46-1.79h1.5l.12-1.15h-26.14v1.15h1.6c2.16 0 3.98.6 5.48 1.79a5.8 5.8 0 0 1 2.36 4.43v54.35a5.88 5.88 0 0 1-2.36 4.38 8.34 8.34 0 0 1-5.47 1.84h-1.61v1.15z"/><path d="m652.35 152.47 1.26-15.78h-1.03c-.39 6.3-2.04 11.44-4.95 15.43-2.92 4-6.7 6.93-11.35 8.81a41.2 41.2 0 0 1-15.6 2.82c-6.06-.07-11.32-1.44-15.77-4.09a26.46 26.46 0 0 1-10.31-11.28c-2.42-4.88-3.63-10.61-3.63-17.22 0-6.75 1.21-12.57 3.63-17.44a26.6 26.6 0 0 1 10.25-11.29c4.41-2.64 9.65-3.97 15.72-3.97 7.14 0 13.26 1.54 18.36 4.6 5.1 3.08 8.5 8.15 10.2 15.2h1.03l-2.53-16.23a43.5 43.5 0 0 0-12.56-5.18A58.34 58.34 0 0 0 620.68 95c-7.75 0-14.49 1.46-20.2 4.37a31.06 31.06 0 0 0-13.2 12.44c-3.06 5.37-4.6 11.82-4.6 19.34 0 7.45 1.54 13.86 4.6 19.24a31.04 31.04 0 0 0 13.2 12.43c5.71 2.92 12.45 4.41 20.2 4.5 4.53 0 8.83-.6 12.9-1.8a37.67 37.67 0 0 0 10.94-5.12 28.5 28.5 0 0 0 7.83-7.94z"/><path d="M661.1 105.83c0-1.61.52-2.97 1.56-4.09a5.84 5.84 0 0 1 4.2-1.78h20.84v58.38a6.23 6.23 0 0 1-2.07 4.38 6.64 6.64 0 0 1-4.72 1.84h-1.39v1.15h23.73v-1.15h-1.27a6.64 6.64 0 0 1-4.72-1.84 6.21 6.21 0 0 1-2.07-4.38V99.96h20.84c1.76.08 3.17.67 4.2 1.78a5.78 5.78 0 0 1 1.56 4.1v1.83h1.26v-13a49.24 49.24 0 0 1-12.9 1.84h-37.42c-1.53 0-3.19-.1-4.95-.3a45.61 45.61 0 0 1-7.95-1.55v13.01h1.27z"/><path d="M741.76 157.3c3.57 3.23 7.7 5.7 12.38 7.43 4.68 1.73 9.71 2.6 15.09 2.6 5.37 0 10.42-.87 15.14-2.6a37.61 37.61 0 0 0 12.44-7.43 34.29 34.29 0 0 0 8.35-11.45c2-4.42 2.99-9.31 2.99-14.69 0-5.37-1-10.26-3-14.68a34.3 34.3 0 0 0-8.34-11.45 37.63 37.63 0 0 0-12.44-7.43 43.76 43.76 0 0 0-15.14-2.6c-5.38 0-10.4.87-15.09 2.6a37.8 37.8 0 0 0-12.38 7.43 34.3 34.3 0 0 0-8.34 11.45c-2 4.42-3 9.31-3 14.68 0 5.38 1 10.27 3 14.69 2 4.41 4.78 8.23 8.34 11.45zm1.21-43.24a29.93 29.93 0 0 1 10.94-11.45 29.2 29.2 0 0 1 15.32-4.15 29.41 29.41 0 0 1 26.37 15.6c2.68 4.88 4.03 10.58 4.03 17.1 0 6.45-1.35 12.13-4.03 17.05a29.4 29.4 0 0 1-26.37 15.66 29.2 29.2 0 0 1-15.32-4.15 29.82 29.82 0 0 1-10.94-11.51c-2.68-4.92-4.03-10.6-4.03-17.05 0-6.52 1.35-12.22 4.03-17.1z"/><path d="M99.89 334.53a2.72 2.72 0 0 1-1.05-1.78l-3.6-24.54h-.4l-11.4 22.68-11.8-22.68h-.44l-3.47 24.45h-.02c-.09.8-.43 1.43-1 1.87-.59.45-1.26.67-2.04.67H64v.45h8.27v-.4h-.63c-.65-.03-1.1-.25-1.34-.65-.2-.35-.29-.71-.3-1.1l2.02-18.01 10.75 20.79h.45c.12-.63.3-1.3.53-2 .24-.7.59-1.55 1.03-2.56l8.43-16.61 2.36 18.22h-.02a2 2 0 0 1-.24 1.25c-.22.41-.68.64-1.36.67h-.68v.4h9.3v-.45h-.67c-.74 0-1.41-.22-2.01-.67z"/><path d="M124.02 331.83a5.82 5.82 0 0 1-2.2 1.79c-.92.43-2.12.64-3.6.64h-6.8v-11.35h7.6c.62 0 1.09.19 1.38.56.3.37.45.81.45 1.32v.58h.5v-6.26h-.5v.58c0 .51-.15.95-.45 1.32-.3.38-.76.56-1.38.56h-7.6v-11.35h9.25c.69 0 1.23.22 1.63.67.4.45.6.98.6 1.6v.68h.5v-5.05a19.11 19.11 0 0 1-5.1.71h-12.96v.45h.63c.74 0 1.35.22 1.83.67.48.45.73 1.01.76 1.7v21.14a2.48 2.48 0 0 1-.76 1.7c-.48.47-1.09.71-1.83.71h-.63v.45h18.15l2.46-6.4h-.45c-.42.96-.91 1.82-1.48 2.58z"/><path d="M152.32 310.44a16.9 16.9 0 0 0-7.65-1.6h-14.92v.44h.53c.72 0 1.32.23 1.81.7.5.46.75 1.04.78 1.76v21a2.58 2.58 0 0 1-.76 1.73 2.4 2.4 0 0 1-1.78.73h-.58v.45h14.92c2.95 0 5.5-.54 7.65-1.63a11.73 11.73 0 0 0 4.96-4.63c1.16-2 1.74-4.38 1.74-7.15 0-2.77-.58-5.16-1.74-7.17a11.55 11.55 0 0 0-4.96-4.63zm.51 20.63c-1.98 2.16-4.7 3.24-8.16 3.24h-8.9v-24.14h8.9c3.46 0 6.18 1.08 8.16 3.24 1.98 2.17 2.97 5.1 2.97 8.83 0 3.73-.99 6.67-2.97 8.83z"/><path d="M171.11 309.97a3.3 3.3 0 0 1 2.12-.69h.58l.05-.45H163.7v.45h.63c.83 0 1.54.23 2.12.7.58.46.89 1.03.92 1.71v21.1a2.28 2.28 0 0 1-.92 1.7c-.58.47-1.29.71-2.12.71h-.63v.45h10.15l-.05-.45h-.58c-.83 0-1.54-.24-2.12-.71a2.28 2.28 0 0 1-.92-1.7v-21.1c.03-.68.34-1.25.92-1.72z"/><path d="M203.9 334.55a4.82 4.82 0 0 1-1.66-2.16h-.01l-10.94-24.18h-.4c-.03.3-.14.7-.32 1.2-.17.51-.38 1.03-.6 1.55-.22.52-.5 1.14-.83 1.85l-9.24 19.8a4.91 4.91 0 0 1-1.57 1.94 3.5 3.5 0 0 1-1.92.65h-.36v.45h8.54v-.45h-.36c-.54 0-1.02-.24-1.43-.73-.39-.46-.44-1.1-.19-1.9l2.53-6h11.3l2.45 5.98c.26.81.2 1.46-.18 1.92-.42.49-.88.73-1.39.73h-.35v.45h9.16v-.45h-.36c-.6 0-1.22-.21-1.88-.65zm-18.19-9.31 5.16-12.22 5.02 12.22z"/><path d="M230.93 310.44a16.9 16.9 0 0 0-7.64-1.6h-14.93v.44h.54c.71 0 1.32.23 1.8.7.5.46.76 1.04.8 1.76v21a2.58 2.58 0 0 1-.77 1.73 2.4 2.4 0 0 1-1.79.73h-.58v.45h14.93c2.95 0 5.5-.54 7.64-1.63a11.73 11.73 0 0 0 4.96-4.63c1.17-2 1.75-4.38 1.75-7.15 0-2.77-.58-5.16-1.75-7.17a11.55 11.55 0 0 0-4.96-4.63zm.52 20.63c-1.98 2.16-4.7 3.24-8.16 3.24h-8.9v-24.14h8.9c3.46 0 6.18 1.08 8.16 3.24 1.98 2.17 2.97 5.1 2.97 8.83 0 3.73-1 6.67-2.97 8.83z"/><path d="M267.87 312.1a14.6 14.6 0 0 0-4.82-2.89 17 17 0 0 0-5.88-1c-2.09 0-4.04.33-5.85 1a14.65 14.65 0 0 0-4.8 2.89 13.32 13.32 0 0 0-4.41 10.14 13.32 13.32 0 0 0 4.4 10.15 14.62 14.62 0 0 0 4.8 2.88c1.82.67 3.77 1 5.86 1 2.09 0 4.04-.33 5.88-1a14.58 14.58 0 0 0 4.82-2.88 13.32 13.32 0 0 0 4.4-10.15c0-2.08-.38-3.98-1.15-5.7a13.32 13.32 0 0 0-3.25-4.44zm-.47 16.76a11.41 11.41 0 0 1-10.23 6.08 11.33 11.33 0 0 1-10.19-6.08 13.56 13.56 0 0 1-1.56-6.62c0-2.53.52-4.74 1.56-6.64a11.61 11.61 0 0 1 4.25-4.44 11.33 11.33 0 0 1 5.94-1.61 11.41 11.41 0 0 1 10.23 6.05c1.05 1.9 1.57 4.11 1.57 6.64 0 2.5-.52 4.71-1.57 6.62z"/><path d="M299.34 333.6a41.11 41.11 0 0 1-3.53-3.96c-.61-.76-1.3-1.66-2.08-2.7a18.7 18.7 0 0 0-1.72-2.1 5.6 5.6 0 0 0-1.77-1.4 8.18 8.18 0 0 0 3.6-1.24 7.39 7.39 0 0 0 2.48-2.64c.6-1.07.9-2.24.9-3.49 0-1.13-.21-2.14-.63-3.04a6.26 6.26 0 0 0-1.8-2.27 8.35 8.35 0 0 0-2.87-1.44c-1.12-.32-2.38-.49-3.78-.49h-11.22v.45h.63c.72 0 1.31.22 1.79.67.4.37.63.83.71 1.36v21.8a2.48 2.48 0 0 1-2.5 2.1h-.63v.44h9.17l-.05-.45h-.58c-.71 0-1.31-.24-1.79-.71a2.48 2.48 0 0 1-.76-1.7v-22.56c.19.02.68.01 1.48-.01 1.04-.03 2.26-.02 3.66.04.9.03 1.7.18 2.42.45a5.7 5.7 0 0 1 1.85 1.12c.52.47.93 1.04 1.2 1.7.3.65.45 1.4.48 2.23a7.14 7.14 0 0 1-.31 2.55 5.29 5.29 0 0 1-1.72 2.68c-.74.54-1.52.86-2.35.96a28.3 28.3 0 0 1-5.05.2v.45c.86 0 1.68.3 2.46.92.77.6 1.46 1.3 2.05 2.07.1.12.34.47.76 1.05l1.39 1.95 1.4 1.99.83 1.14c.48.56 1.04 1.15 1.7 1.76a8.06 8.06 0 0 0 2.57 1.54c1.06.42 2.4.63 4.04.63h1.39v-.45c-.8 0-1.51-.14-2.12-.42a6.12 6.12 0 0 1-1.7-1.19z"/><path d="M323.63 331.83a5.82 5.82 0 0 1-2.21 1.79c-.91.43-2.11.64-3.6.64h-6.8v-11.35h7.6c.63 0 1.1.19 1.4.56.29.37.44.81.44 1.32v.58h.49v-6.26h-.5v.58c0 .51-.14.95-.44 1.32-.3.38-.76.56-1.38.56h-7.6v-11.35h9.25c.68 0 1.23.22 1.63.67.4.45.6.98.6 1.6v.68h.5v-5.05a19.11 19.11 0 0 1-5.1.71h-12.96v.45h.62c.75 0 1.36.22 1.84.67.47.45.73 1.01.76 1.7v21.14a2.48 2.48 0 0 1-.76 1.7c-.48.47-1.1.71-1.84.71h-.62v.45h18.15l2.45-6.4h-.44c-.42.96-.91 1.82-1.48 2.58z"/><path d="m343.07 324.3-9.02-6.98c-.45-.38-.8-.77-1.06-1.16a3.98 3.98 0 0 1-.53-1.18c-.1-.4-.16-.8-.16-1.19-.03-1.19.49-2.2 1.54-3.01a6.05 6.05 0 0 1 3.83-1.23c1.75 0 3.05.35 3.88 1.05.84.7 1.26 1.66 1.26 2.88h.53l-.04-4.42-.02-.01-.03-.44h-1.49a26.41 26.41 0 0 0-4.4-.4c-1.38 0-2.62.29-3.74.87-1.12.58-2 1.36-2.66 2.34a5.83 5.83 0 0 0-.98 3.31c0 .78.15 1.6.44 2.46.3.87.87 1.65 1.7 2.37l8.94 6.88c.57.51.98 1.05 1.23 1.63.25.58.38 1.23.38 1.95 0 1.46-.53 2.63-1.59 3.5-1.05.89-2.5 1.36-4.35 1.41a7.24 7.24 0 0 1-3.44-.69 5 5 0 0 1-2.24-2.17c-.5-.95-.7-2.1-.58-3.44h-.54a13.95 13.95 0 0 0-.58 3.96c0 .64.05 1.17.14 1.58.56.48 1.28.88 2.14 1.19.87.31 1.8.54 2.8.7 1 .14 1.92.22 2.79.22a8.4 8.4 0 0 0 4-.97 7.64 7.64 0 0 0 2.88-2.61 6.25 6.25 0 0 0 1.03-3.62 8.27 8.27 0 0 0-.54-2.62 5.03 5.03 0 0 0-1.52-2.16z"/><path d="M378.2 309.28h.54c.65 0 1.13.25 1.43.76.3.5.28 1.05-.04 1.65l-6.82 11.29-6.38-11.33h.01c-.3-.54-.3-1.07-.02-1.59.28-.52.75-.78 1.4-.78h.54v-.45H358.5v.45h.54c.86 0 1.65.2 2.35.6.7.4 1.28.95 1.76 1.63h.02l8.25 13v8.28c-.03.66-.3 1.22-.78 1.7-.5.47-1.1.71-1.81.71h-.54v.45h9.16v-.45h-.53a2.5 2.5 0 0 1-1.81-.71 2.45 2.45 0 0 1-.79-1.7v-8.2l8.56-13.03h.07c.42-.6 1-1.13 1.72-1.59.73-.46 1.51-.69 2.35-.69h.53v-.45h-9.34v.45z"/><path d="m414.67 324.3-9.02-6.98c-.45-.38-.8-.77-1.06-1.16a3.98 3.98 0 0 1-.53-1.18c-.1-.4-.16-.8-.16-1.19-.03-1.19.49-2.2 1.54-3.01a6.05 6.05 0 0 1 3.83-1.23c1.75 0 3.05.35 3.88 1.05.84.7 1.26 1.66 1.26 2.88h.53l-.04-4.42-.02-.01-.03-.44h-1.49l-.59-.11a26.41 26.41 0 0 0-3.82-.3c-1.37 0-2.61.3-3.73.88-1.12.58-2 1.36-2.66 2.34a5.83 5.83 0 0 0-.98 3.31c0 .78.15 1.6.44 2.46.3.87.87 1.65 1.7 2.37l8.94 6.88c.57.51.98 1.05 1.23 1.63.25.58.38 1.23.38 1.95 0 1.46-.53 2.63-1.58 3.5-1.06.89-2.52 1.36-4.36 1.41a7.24 7.24 0 0 1-3.44-.69 5 5 0 0 1-2.24-2.17c-.5-.95-.7-2.1-.58-3.44h-.54a13.95 13.95 0 0 0-.58 3.96c0 .64.05 1.17.14 1.58.56.48 1.28.88 2.14 1.19.87.31 1.8.54 2.8.7 1 .14 1.92.22 2.79.22a8.4 8.4 0 0 0 4-.97 7.64 7.64 0 0 0 2.88-2.61 6.25 6.25 0 0 0 1.03-3.62 8.27 8.27 0 0 0-.54-2.62 5.03 5.03 0 0 0-1.52-2.16z"/><path d="M440.29 331.83a5.82 5.82 0 0 1-2.22 1.79c-.9.43-2.1.64-3.6.64h-6.79v-11.35h7.6c.62 0 1.09.19 1.38.56.3.37.45.81.45 1.32v.58h.5v-6.26h-.5v.58c0 .51-.15.95-.45 1.32-.3.38-.76.56-1.38.56h-7.6v-11.35h9.25c.69 0 1.23.22 1.63.67.4.45.6.98.6 1.6v.68h.5v-5.05a19.11 19.11 0 0 1-5.1.71H421.6v.45h.63c.74 0 1.35.22 1.83.67.48.45.73 1.01.76 1.7v21.14a2.48 2.48 0 0 1-.76 1.7c-.48.47-1.09.71-1.83.71h-.63v.45h18.15l2.46-6.4h-.45c-.42.96-.9 1.82-1.47 2.58z"/><path d="M468.42 333.6a41.1 41.1 0 0 1-3.53-3.96c-.61-.76-1.3-1.66-2.08-2.7a18.7 18.7 0 0 0-1.72-2.1 5.6 5.6 0 0 0-1.77-1.4 8.18 8.18 0 0 0 3.6-1.24 7.39 7.39 0 0 0 2.48-2.64c.6-1.07.9-2.24.9-3.49 0-1.13-.21-2.14-.63-3.04a6.26 6.26 0 0 0-1.8-2.27 8.35 8.35 0 0 0-2.87-1.44c-1.12-.32-2.38-.49-3.78-.49H446v.45h.63c.72 0 1.31.22 1.79.67.4.37.63.83.71 1.36v21.8a2.48 2.48 0 0 1-2.5 2.1H446v.44h9.17l-.05-.45h-.58c-.71 0-1.31-.24-1.79-.71a2.48 2.48 0 0 1-.76-1.7v-22.56c.19.02.68.01 1.48-.01 1.04-.03 2.26-.02 3.66.04.9.03 1.7.18 2.42.45a5.7 5.7 0 0 1 1.85 1.12c.52.47.93 1.04 1.2 1.7.3.65.45 1.4.48 2.23a7.14 7.14 0 0 1-.31 2.55 5.29 5.29 0 0 1-1.72 2.68c-.74.54-1.52.86-2.35.96a28.3 28.3 0 0 1-5.05.2v.45c.86 0 1.68.3 2.46.92.77.6 1.46 1.3 2.05 2.07.1.12.34.47.76 1.05a436.61 436.61 0 0 1 2.8 3.94l.82 1.14c.48.56 1.04 1.15 1.7 1.76a8.06 8.06 0 0 0 2.57 1.54c1.06.42 2.4.63 4.04.63h1.39v-.45c-.8 0-1.51-.14-2.12-.42a6.12 6.12 0 0 1-1.7-1.19z"/><path d="M492.94 309.28h.3c.54 0 1.02.25 1.44.74.39.45.44 1.1.18 1.9l-8.26 19.54-8-19.5c-.25-.82-.2-1.48.19-1.94.4-.5.86-.74 1.36-.74h.36v-.45h-9.16v.45h.35c.6 0 1.23.22 1.88.65.66.43 1.2 1.15 1.66 2.17l10.95 24.18h.4c.03-.3.13-.7.31-1.21.18-.5.38-1.02.6-1.54l.83-1.86 9.25-19.82c.45-.88.97-1.53 1.57-1.92a3.5 3.5 0 0 1 1.92-.65h.36v-.45h-8.5v.45z"/><path d="M511.06 309.97a3.3 3.3 0 0 1 2.12-.69h.58l.05-.45h-10.15v.45h.62c.84 0 1.55.23 2.13.7.58.46.89 1.03.91 1.71v21.1a2.27 2.27 0 0 1-.91 1.7c-.58.47-1.29.71-2.13.71h-.62v.45h10.15l-.05-.45h-.58c-.83 0-1.54-.24-2.12-.71a2.27 2.27 0 0 1-.92-1.7v-21.1c.03-.68.34-1.25.92-1.72z"/><path d="M543.66 330.38a9.99 9.99 0 0 1-4.4 3.41c-1.8.74-3.82 1.1-6.06 1.1-2.35-.03-4.4-.56-6.12-1.59a10.28 10.28 0 0 1-4-4.38c-.94-1.89-1.4-4.12-1.4-6.68 0-2.62.46-4.88 1.4-6.77.94-1.9 2.27-3.35 3.98-4.38a11.64 11.64 0 0 1 6.1-1.54c2.77 0 5.15.6 7.13 1.79 1.98 1.19 3.3 3.16 3.95 5.9h.4l-.98-6.3c-1.37-.87-3-1.54-4.87-2.02a22.67 22.67 0 0 0-5.59-.71c-3 0-5.62.56-7.84 1.7a12.06 12.06 0 0 0-5.12 4.82 14.91 14.91 0 0 0-1.79 7.51c0 2.9.6 5.38 1.8 7.47 1.18 2.08 2.89 3.69 5.11 4.82a17.46 17.46 0 0 0 7.84 1.75c1.76 0 3.43-.24 5.01-.7 1.58-.46 3-1.12 4.25-1.99 1.25-.86 2.26-1.89 3.04-3.08l.49-6.12h-.4a11.1 11.1 0 0 1-1.93 5.99z"/><path d="M557.59 309.97a3.3 3.3 0 0 1 2.12-.69h.58l.05-.45h-10.15v.45h.62c.84 0 1.55.23 2.13.7.58.46.88 1.03.91 1.71v21.1a2.27 2.27 0 0 1-.91 1.7c-.58.47-1.3.71-2.13.71h-.62v.45h10.15l-.05-.45h-.58c-.84 0-1.54-.24-2.12-.71a2.27 2.27 0 0 1-.92-1.7v-21.1c.03-.68.34-1.25.92-1.72z"/><path d="M590.75 312.1a14.6 14.6 0 0 0-4.83-2.89 17 17 0 0 0-5.88-1c-2.08 0-4.03.33-5.85 1a14.67 14.67 0 0 0-4.8 2.89 13.3 13.3 0 0 0-4.4 10.14 13.3 13.3 0 0 0 4.4 10.15 14.64 14.64 0 0 0 4.8 2.88c1.82.67 3.77 1 5.85 1 2.09 0 4.05-.33 5.88-1a14.58 14.58 0 0 0 4.83-2.88 13.3 13.3 0 0 0 4.4-10.15 13.3 13.3 0 0 0-4.4-10.14zm-.47 16.76a11.4 11.4 0 0 1-10.24 6.08c-2.17 0-4.15-.54-5.94-1.61a11.56 11.56 0 0 1-4.25-4.47 13.56 13.56 0 0 1-1.56-6.62c0-2.53.52-4.74 1.56-6.64a11.6 11.6 0 0 1 4.25-4.44 11.33 11.33 0 0 1 5.94-1.61 11.4 11.4 0 0 1 10.24 6.05c1.04 1.9 1.56 4.11 1.56 6.64 0 2.5-.52 4.71-1.56 6.62z"/><path d="m613.52 324.3-9.03-6.98a5.6 5.6 0 0 1-1.05-1.16 3.99 3.99 0 0 1-.54-1.18c-.1-.4-.15-.8-.15-1.19-.03-1.19.48-2.2 1.54-3.01a6.05 6.05 0 0 1 3.82-1.23c1.76 0 3.06.35 3.89 1.05.83.7 1.25 1.66 1.25 2.88h.54l-.05-4.42h-.02l-.02-.45h-1.5l-.58-.11a26.4 26.4 0 0 0-3.82-.3c-1.37 0-2.61.3-3.73.88-1.12.58-2 1.36-2.66 2.35a5.83 5.83 0 0 0-.99 3.3c0 .78.15 1.6.45 2.46.3.87.86 1.65 1.7 2.37l8.94 6.88c.56.51.98 1.05 1.23 1.63.25.59.38 1.23.38 1.95 0 1.46-.53 2.63-1.59 3.5-1.06.89-2.5 1.36-4.36 1.42a7.23 7.23 0 0 1-3.44-.7 4.97 4.97 0 0 1-2.23-2.17c-.51-.95-.7-2.1-.58-3.44h-.54a13.94 13.94 0 0 0-.58 3.96c0 .64.04 1.17.13 1.59.57.47 1.28.87 2.15 1.18.86.31 1.8.54 2.8.7.99.14 1.92.22 2.78.22a8.4 8.4 0 0 0 4-.97 7.64 7.64 0 0 0 2.89-2.6 6.26 6.26 0 0 0 1.03-3.63 8.27 8.27 0 0 0-.54-2.61 5 5 0 0 0-1.52-2.17z"/><path d="M639.02 309.97a3.3 3.3 0 0 1 2.12-.69h.58l.05-.45h-10.15v.45h.63c.83 0 1.54.23 2.12.7.58.46.89 1.03.92 1.71v21.1a2.27 2.27 0 0 1-.92 1.7c-.58.47-1.29.71-2.12.71h-.63v.45h10.15l-.05-.45h-.58c-.83 0-1.54-.24-2.12-.71a2.27 2.27 0 0 1-.91-1.7v-21.1c.02-.68.33-1.25.91-1.72z"/><path d="M674.08 308.83h-5.1v.45h.77a2.46 2.46 0 0 1 2.5 2.32v18.46L649 308.16h-.45c.27 2.2.4 4.07.4 5.59v19.13c0 .66-.24 1.2-.71 1.65-.48.45-1.06.67-1.74.67h-.77v.45h8.45v-.45h-.76c-.65 0-1.23-.22-1.72-.67-.49-.44-.74-1-.74-1.65l-.03-18.66 23.28 22.06h.4a43.21 43.21 0 0 1-.4-5.72V311.6c0-.65.24-1.2.73-1.65.5-.45 1.07-.67 1.72-.67h.77v-.45h-3.36z"/><path d="M715.24 334.53a2.72 2.72 0 0 1-1.04-1.78l-3.6-24.54h-.4l-11.4 22.68L687 308.2h-.45l-3.46 24.45h-.02c-.1.8-.43 1.43-1.01 1.87-.58.45-1.26.67-2.03.67h-.67v.45h8.26v-.4H687c-.66-.03-1.1-.25-1.34-.65-.2-.35-.3-.71-.3-1.1l2.01-18.01 10.76 20.79h.45c.11-.63.3-1.3.53-2 .24-.7.58-1.55 1.03-2.56l8.43-16.61 2.35 18.22h-.01c.06.41-.02.83-.24 1.25-.23.41-.68.64-1.37.67h-.67v.4h9.3v-.45h-.67c-.75 0-1.42-.22-2.01-.67z"/><path d="M746.24 312.1a14.6 14.6 0 0 0-4.82-2.89 17 17 0 0 0-5.88-1c-2.09 0-4.04.33-5.86 1a14.67 14.67 0 0 0-4.8 2.89 13.3 13.3 0 0 0-4.4 10.14 13.3 13.3 0 0 0 4.4 10.15 14.64 14.64 0 0 0 4.8 2.88c1.82.67 3.77 1 5.86 1 2.08 0 4.04-.33 5.88-1a14.58 14.58 0 0 0 4.82-2.88 13.3 13.3 0 0 0 4.4-10.15 13.3 13.3 0 0 0-4.4-10.14zm-.47 16.76a11.4 11.4 0 0 1-10.24 6.08c-2.17 0-4.15-.54-5.94-1.61a11.56 11.56 0 0 1-4.24-4.47 13.56 13.56 0 0 1-1.57-6.62c0-2.53.52-4.74 1.57-6.64a11.6 11.6 0 0 1 4.24-4.44 11.33 11.33 0 0 1 5.95-1.61 11.4 11.4 0 0 1 10.23 6.05c1.04 1.9 1.57 4.11 1.57 6.64 0 2.5-.53 4.71-1.57 6.62z"/><path d="M772.66 322.3a9.23 9.23 0 0 0-3.87-1.22 7.12 7.12 0 0 0 4.2-3.04 4.7 4.7 0 0 0 .72-2.5c0-1.5-.33-2.68-.99-3.58a6.17 6.17 0 0 0-2.46-2.01c-.98-.45-2-.74-3.06-.9a20.27 20.27 0 0 0-2.79-.22h-9.12v.45h.54c.77 0 1.4.22 1.9.67.5.45.75 1.03.78 1.74v21.1c-.03.66-.29 1.22-.78 1.7a2.6 2.6 0 0 1-1.9.71h-.54v.45h11.09c1.1 0 2.23-.12 3.4-.36a10.7 10.7 0 0 0 3.21-1.2 6.79 6.79 0 0 0 2.4-2.3 6.7 6.7 0 0 0 .9-3.65c0-1.19-.32-2.3-.98-3.3a8 8 0 0 0-2.65-2.53zm-.43 9.33c-.6.92-1.4 1.6-2.43 2.03a8.87 8.87 0 0 1-3.47.65h-5v-24.14h3.04c1.93 0 3.45.43 4.55 1.28 1.1.85 1.66 2.21 1.66 4.09 0 1.22-.26 2.2-.76 2.93a4.84 4.84 0 0 1-1.95 1.65c-.79.37-1.64.62-2.57.74-.92.12-1.79.18-2.59.18v.44c1.22 0 2.45.08 3.67.25 1.22.16 2.34.47 3.35.94a6.06 6.06 0 0 1 2.46 2c.62.89.94 2.04.94 3.47 0 1.4-.3 2.56-.9 3.49z"/><path d="M788.17 309.97a3.3 3.3 0 0 1 2.12-.69h.58l.04-.45h-10.14v.45h.62c.84 0 1.55.23 2.13.7.58.46.88 1.03.91 1.71v21.1a2.27 2.27 0 0 1-.91 1.7c-.58.47-1.3.71-2.13.71h-.62v.45h10.14l-.04-.45h-.58c-.84 0-1.54-.24-2.12-.71a2.27 2.27 0 0 1-.92-1.7v-21.1c.03-.68.33-1.25.92-1.72z"/><path d="M814.47 331.83a5.82 5.82 0 0 1-2.21 1.79c-.91.43-2.11.64-3.6.64h-6.8V311.7c0-.68.26-1.25.78-1.72.53-.46 1.15-.69 1.86-.69h.54v-.45h-9.26v.45h.54c.74 0 1.37.23 1.88.7.5.46.77 1.03.8 1.71v21.1a2.5 2.5 0 0 1-.76 1.7c-.47.47-1.09.71-1.83.71h-.63v.45h18.15l2.46-6.4h-.45c-.42.96-.9 1.82-1.47 2.58z"/><path d="M827.14 309.97a3.3 3.3 0 0 1 2.12-.69h.58l.05-.45h-10.15v.45h.63c.83 0 1.54.23 2.12.7.58.46.89 1.03.92 1.71v21.1a2.27 2.27 0 0 1-.92 1.7c-.58.47-1.29.71-2.12.71h-.63v.45h10.15l-.05-.45h-.58c-.83 0-1.54-.24-2.12-.71a2.27 2.27 0 0 1-.91-1.7v-21.1c.02-.68.33-1.25.91-1.72z"/><path d="M859.92 334.55a4.83 4.83 0 0 1-1.65-2.16h-.01l-10.94-24.18h-.4c-.03.3-.14.7-.32 1.2a24 24 0 0 1-.6 1.55c-.22.52-.5 1.14-.83 1.85l-9.23 19.8c-.45.89-.98 1.55-1.58 1.94a3.5 3.5 0 0 1-1.93.65h-.35v.45h8.53v-.45h-.35c-.54 0-1.02-.24-1.43-.73-.4-.46-.44-1.1-.19-1.9l2.53-6h11.3l2.44 5.97c.27.82.22 1.46-.17 1.93-.42.49-.88.73-1.39.73H853v.45h9.17v-.45h-.36c-.6 0-1.22-.21-1.88-.65zm-18.18-9.31 5.16-12.22 5.02 12.22z"/><path d="M886.8 333.6a41.88 41.88 0 0 1-3.52-3.96c-.61-.76-1.3-1.66-2.08-2.7a19.1 19.1 0 0 0-1.72-2.1 5.61 5.61 0 0 0-1.77-1.4 8.17 8.17 0 0 0 3.6-1.24 7.37 7.37 0 0 0 2.48-2.64c.6-1.07.9-2.24.9-3.49 0-1.13-.22-2.14-.63-3.04a6.25 6.25 0 0 0-1.81-2.27 8.34 8.34 0 0 0-2.86-1.44c-1.12-.32-2.38-.49-3.78-.49H864.4v.45h.63c.71 0 1.3.22 1.79.67.4.37.62.83.71 1.36v21.8a2.49 2.49 0 0 1-2.5 2.1h-.63v.44h9.16l-.04-.45h-.58c-.72 0-1.31-.24-1.79-.71a2.49 2.49 0 0 1-.76-1.7v-22.56c.18.02.67.01 1.48-.01a52.7 52.7 0 0 1 3.66.04c.9.03 1.7.18 2.42.45a5.7 5.7 0 0 1 1.85 1.12c.52.47.92 1.04 1.2 1.7.3.65.44 1.4.48 2.23a7.05 7.05 0 0 1-.32 2.55 5.27 5.27 0 0 1-1.72 2.68c-.73.54-1.51.86-2.34.96a28.32 28.32 0 0 1-5.06.2v.45c.87 0 1.69.3 2.46.92.78.6 1.46 1.3 2.06 2.07l.76 1.05 1.38 1.95 1.41 1.99.83 1.14c.48.56 1.04 1.15 1.7 1.76a8.05 8.05 0 0 0 2.57 1.54c1.06.42 2.4.63 4.04.63h1.39v-.45c-.8 0-1.51-.14-2.12-.42a6.13 6.13 0 0 1-1.7-1.19z"/><path d="M899.81 309.97a3.3 3.3 0 0 1 2.13-.69h.58l.04-.45h-10.14v.45h.62c.84 0 1.54.23 2.13.7.58.46.88 1.03.91 1.71v21.1a2.27 2.27 0 0 1-.91 1.7c-.59.47-1.3.71-2.13.71h-.62v.45h10.14l-.04-.45h-.58c-.84 0-1.54-.24-2.13-.71a2.27 2.27 0 0 1-.91-1.7v-21.1c.03-.68.33-1.25.91-1.72z"/><path d="M932.98 312.1a14.6 14.6 0 0 0-4.83-2.89 17 17 0 0 0-5.88-1c-2.08 0-4.04.33-5.85 1a14.67 14.67 0 0 0-4.8 2.89 13.3 13.3 0 0 0-4.41 10.14 13.3 13.3 0 0 0 4.4 10.15 14.64 14.64 0 0 0 4.8 2.88c1.82.67 3.78 1 5.86 1 2.09 0 4.05-.33 5.88-1a14.58 14.58 0 0 0 4.83-2.88 13.3 13.3 0 0 0 4.4-10.15 13.3 13.3 0 0 0-4.4-10.14zm-.47 16.76a11.4 11.4 0 0 1-10.24 6.08c-2.17 0-4.16-.54-5.94-1.61a11.56 11.56 0 0 1-4.25-4.47 13.56 13.56 0 0 1-1.56-6.62c0-2.53.52-4.74 1.56-6.64a11.6 11.6 0 0 1 4.25-4.44 11.33 11.33 0 0 1 5.94-1.61 11.4 11.4 0 0 1 10.24 6.05c1.04 1.9 1.56 4.11 1.56 6.64 0 2.5-.52 4.71-1.56 6.62z"/><path d="m955.75 324.3-9.03-6.98a5.6 5.6 0 0 1-1.05-1.16 3.99 3.99 0 0 1-.54-1.18c-.1-.4-.15-.8-.15-1.19-.03-1.19.48-2.2 1.54-3.01a6.05 6.05 0 0 1 3.82-1.23c1.76 0 3.05.35 3.89 1.05.83.7 1.25 1.66 1.25 2.88h.54l-.05-4.42h-.02l-.02-.45h-1.5l-.58-.11a26.4 26.4 0 0 0-3.82-.3c-1.38 0-2.62.3-3.74.88-1.11.58-2 1.36-2.65 2.35a5.83 5.83 0 0 0-.99 3.3c0 .78.15 1.6.45 2.46.3.87.86 1.65 1.7 2.37l8.94 6.88c.56.51.97 1.05 1.22 1.63.26.59.39 1.23.39 1.95 0 1.46-.53 2.63-1.6 3.5-1.05.89-2.5 1.36-4.35 1.42a7.23 7.23 0 0 1-3.44-.7 4.97 4.97 0 0 1-2.23-2.17c-.51-.95-.7-2.1-.59-3.44h-.53a13.96 13.96 0 0 0-.58 3.96c0 .64.04 1.17.13 1.59.57.47 1.28.87 2.15 1.18.86.31 1.8.54 2.79.7 1 .14 1.93.22 2.8.22a8.4 8.4 0 0 0 4-.97 7.64 7.64 0 0 0 2.87-2.6 6.26 6.26 0 0 0 1.03-3.63 8.26 8.26 0 0 0-.53-2.61 5 5 0 0 0-1.52-2.17z"/><path d="m708.26 273.29-28.94-35.62 36.1-32.25h5.47v-1.7h-29.7v1.7h7.78c2.27 0 3.34 2.8 1.64 4.32l-38.82 34.69v-33.59c0-3 2.43-5.42 5.42-5.42h3.68v-1.7h-19.91v1.7c1.08 0 1.96.88 1.96 1.96v67.48c0 1.09-.88 1.97-1.96 1.97v1.7h19.91v-1.7h-5.37a3.73 3.73 0 0 1-3.73-3.73v-26.6l6.24-5.59 29.19 35.92h-6.03v1.7h27.48v-1.7h-2.97a9.59 9.59 0 0 1-7.44-3.54zM676.1 233.7l27.66-24.72c2.57-2.3 5.9-3.57 9.34-3.57l-34.75 31.06z"/></g></svg>